<?xml version="1.0" encoding="utf-8" standalone="no"?>
<!DOCTYPE svg PUBLIC "-//W3C//DTD SVG 1.1//EN"
  "http://www.w3.org/Graphics/SVG/1.1/DTD/svg11.dtd">
<svg xmlns:xlink="http://www.w3.org/1999/xlink" width="460.8pt" height="345.6pt" viewBox="0 0 460.8 345.6" xmlns="http://www.w3.org/2000/svg" version="1.1">
 <metadata>
  <rdf:RDF xmlns:dc="http://purl.org/dc/elements/1.1/" xmlns:cc="http://creativecommons.org/ns#" xmlns:rdf="http://www.w3.org/1999/02/22-rdf-syntax-ns#">
   <cc:Work>
    <dc:type rdf:resource="http://purl.org/dc/dcmitype/StillImage"/>
    <dc:date>2023-07-13T13:31:07.471658</dc:date>
    <dc:format>image/svg+xml</dc:format>
    <dc:creator>
     <cc:Agent>
      <dc:title>Matplotlib v3.5.1, https://matplotlib.org/</dc:title>
     </cc:Agent>
    </dc:creator>
   </cc:Work>
  </rdf:RDF>
 </metadata>
 <defs>
  <style type="text/css">*{stroke-linejoin: round; stroke-linecap: butt}</style>
 </defs>
 <g id="figure_1">
  <g id="patch_1">
   <path d="M 0 345.6 
L 460.8 345.6 
L 460.8 0 
L 0 0 
z
" style="fill: #ffffff"/>
  </g>
  <g id="axes_1">
   <g id="patch_2">
    <path d="M 57.6 307.584 
L 414.72 307.584 
L 414.72 41.472 
L 57.6 41.472 
z
" style="fill: #ffffff"/>
   </g>
   <g id="matplotlib.axis_1">
    <g id="xtick_1">
     <g id="line2d_1">
      <defs>
       <path id="m25d4029d41" d="M 0 0 
L 0 3.5 
" style="stroke: #000000; stroke-width: 0.8"/>
      </defs>
      <g>
       <use xlink:href="#m25d4029d41" x="73.832727" y="307.584" style="stroke: #000000; stroke-width: 0.8"/>
      </g>
     </g>
     <g id="text_1">
      <!-- 0 -->
      <g transform="translate(70.651477 322.182437)scale(0.1 -0.1)">
       <defs>
        <path id="DejaVuSans-30" d="M 2034 4250 
Q 1547 4250 1301 3770 
Q 1056 3291 1056 2328 
Q 1056 1369 1301 889 
Q 1547 409 2034 409 
Q 2525 409 2770 889 
Q 3016 1369 3016 2328 
Q 3016 3291 2770 3770 
Q 2525 4250 2034 4250 
z
M 2034 4750 
Q 2819 4750 3233 4129 
Q 3647 3509 3647 2328 
Q 3647 1150 3233 529 
Q 2819 -91 2034 -91 
Q 1250 -91 836 529 
Q 422 1150 422 2328 
Q 422 3509 836 4129 
Q 1250 4750 2034 4750 
z
" transform="scale(0.015625)"/>
       </defs>
       <use xlink:href="#DejaVuSans-30"/>
      </g>
     </g>
    </g>
    <g id="xtick_2">
     <g id="line2d_2">
      <g>
       <use xlink:href="#m25d4029d41" x="140.088757" y="307.584" style="stroke: #000000; stroke-width: 0.8"/>
      </g>
     </g>
     <g id="text_2">
      <!-- 200 -->
      <g transform="translate(130.545007 322.182437)scale(0.1 -0.1)">
       <defs>
        <path id="DejaVuSans-32" d="M 1228 531 
L 3431 531 
L 3431 0 
L 469 0 
L 469 531 
Q 828 903 1448 1529 
Q 2069 2156 2228 2338 
Q 2531 2678 2651 2914 
Q 2772 3150 2772 3378 
Q 2772 3750 2511 3984 
Q 2250 4219 1831 4219 
Q 1534 4219 1204 4116 
Q 875 4013 500 3803 
L 500 4441 
Q 881 4594 1212 4672 
Q 1544 4750 1819 4750 
Q 2544 4750 2975 4387 
Q 3406 4025 3406 3419 
Q 3406 3131 3298 2873 
Q 3191 2616 2906 2266 
Q 2828 2175 2409 1742 
Q 1991 1309 1228 531 
z
" transform="scale(0.015625)"/>
       </defs>
       <use xlink:href="#DejaVuSans-32"/>
       <use xlink:href="#DejaVuSans-30" x="63.623047"/>
       <use xlink:href="#DejaVuSans-30" x="127.246094"/>
      </g>
     </g>
    </g>
    <g id="xtick_3">
     <g id="line2d_3">
      <g>
       <use xlink:href="#m25d4029d41" x="206.344787" y="307.584" style="stroke: #000000; stroke-width: 0.8"/>
      </g>
     </g>
     <g id="text_3">
      <!-- 400 -->
      <g transform="translate(196.801037 322.182437)scale(0.1 -0.1)">
       <defs>
        <path id="DejaVuSans-34" d="M 2419 4116 
L 825 1625 
L 2419 1625 
L 2419 4116 
z
M 2253 4666 
L 3047 4666 
L 3047 1625 
L 3713 1625 
L 3713 1100 
L 3047 1100 
L 3047 0 
L 2419 0 
L 2419 1100 
L 313 1100 
L 313 1709 
L 2253 4666 
z
" transform="scale(0.015625)"/>
       </defs>
       <use xlink:href="#DejaVuSans-34"/>
       <use xlink:href="#DejaVuSans-30" x="63.623047"/>
       <use xlink:href="#DejaVuSans-30" x="127.246094"/>
      </g>
     </g>
    </g>
    <g id="xtick_4">
     <g id="line2d_4">
      <g>
       <use xlink:href="#m25d4029d41" x="272.600816" y="307.584" style="stroke: #000000; stroke-width: 0.8"/>
      </g>
     </g>
     <g id="text_4">
      <!-- 600 -->
      <g transform="translate(263.057066 322.182437)scale(0.1 -0.1)">
       <defs>
        <path id="DejaVuSans-36" d="M 2113 2584 
Q 1688 2584 1439 2293 
Q 1191 2003 1191 1497 
Q 1191 994 1439 701 
Q 1688 409 2113 409 
Q 2538 409 2786 701 
Q 3034 994 3034 1497 
Q 3034 2003 2786 2293 
Q 2538 2584 2113 2584 
z
M 3366 4563 
L 3366 3988 
Q 3128 4100 2886 4159 
Q 2644 4219 2406 4219 
Q 1781 4219 1451 3797 
Q 1122 3375 1075 2522 
Q 1259 2794 1537 2939 
Q 1816 3084 2150 3084 
Q 2853 3084 3261 2657 
Q 3669 2231 3669 1497 
Q 3669 778 3244 343 
Q 2819 -91 2113 -91 
Q 1303 -91 875 529 
Q 447 1150 447 2328 
Q 447 3434 972 4092 
Q 1497 4750 2381 4750 
Q 2619 4750 2861 4703 
Q 3103 4656 3366 4563 
z
" transform="scale(0.015625)"/>
       </defs>
       <use xlink:href="#DejaVuSans-36"/>
       <use xlink:href="#DejaVuSans-30" x="63.623047"/>
       <use xlink:href="#DejaVuSans-30" x="127.246094"/>
      </g>
     </g>
    </g>
    <g id="xtick_5">
     <g id="line2d_5">
      <g>
       <use xlink:href="#m25d4029d41" x="338.856846" y="307.584" style="stroke: #000000; stroke-width: 0.8"/>
      </g>
     </g>
     <g id="text_5">
      <!-- 800 -->
      <g transform="translate(329.313096 322.182437)scale(0.1 -0.1)">
       <defs>
        <path id="DejaVuSans-38" d="M 2034 2216 
Q 1584 2216 1326 1975 
Q 1069 1734 1069 1313 
Q 1069 891 1326 650 
Q 1584 409 2034 409 
Q 2484 409 2743 651 
Q 3003 894 3003 1313 
Q 3003 1734 2745 1975 
Q 2488 2216 2034 2216 
z
M 1403 2484 
Q 997 2584 770 2862 
Q 544 3141 544 3541 
Q 544 4100 942 4425 
Q 1341 4750 2034 4750 
Q 2731 4750 3128 4425 
Q 3525 4100 3525 3541 
Q 3525 3141 3298 2862 
Q 3072 2584 2669 2484 
Q 3125 2378 3379 2068 
Q 3634 1759 3634 1313 
Q 3634 634 3220 271 
Q 2806 -91 2034 -91 
Q 1263 -91 848 271 
Q 434 634 434 1313 
Q 434 1759 690 2068 
Q 947 2378 1403 2484 
z
M 1172 3481 
Q 1172 3119 1398 2916 
Q 1625 2713 2034 2713 
Q 2441 2713 2670 2916 
Q 2900 3119 2900 3481 
Q 2900 3844 2670 4047 
Q 2441 4250 2034 4250 
Q 1625 4250 1398 4047 
Q 1172 3844 1172 3481 
z
" transform="scale(0.015625)"/>
       </defs>
       <use xlink:href="#DejaVuSans-38"/>
       <use xlink:href="#DejaVuSans-30" x="63.623047"/>
       <use xlink:href="#DejaVuSans-30" x="127.246094"/>
      </g>
     </g>
    </g>
    <g id="xtick_6">
     <g id="line2d_6">
      <g>
       <use xlink:href="#m25d4029d41" x="405.112876" y="307.584" style="stroke: #000000; stroke-width: 0.8"/>
      </g>
     </g>
     <g id="text_6">
      <!-- 1000 -->
      <g transform="translate(392.387876 322.182437)scale(0.1 -0.1)">
       <defs>
        <path id="DejaVuSans-31" d="M 794 531 
L 1825 531 
L 1825 4091 
L 703 3866 
L 703 4441 
L 1819 4666 
L 2450 4666 
L 2450 531 
L 3481 531 
L 3481 0 
L 794 0 
L 794 531 
z
" transform="scale(0.015625)"/>
       </defs>
       <use xlink:href="#DejaVuSans-31"/>
       <use xlink:href="#DejaVuSans-30" x="63.623047"/>
       <use xlink:href="#DejaVuSans-30" x="127.246094"/>
       <use xlink:href="#DejaVuSans-30" x="190.869141"/>
      </g>
     </g>
    </g>
    <g id="text_7">
     <!-- All Datas -->
     <g transform="translate(213.829531 335.860562)scale(0.1 -0.1)">
      <defs>
       <path id="DejaVuSans-41" d="M 2188 4044 
L 1331 1722 
L 3047 1722 
L 2188 4044 
z
M 1831 4666 
L 2547 4666 
L 4325 0 
L 3669 0 
L 3244 1197 
L 1141 1197 
L 716 0 
L 50 0 
L 1831 4666 
z
" transform="scale(0.015625)"/>
       <path id="DejaVuSans-6c" d="M 603 4863 
L 1178 4863 
L 1178 0 
L 603 0 
L 603 4863 
z
" transform="scale(0.015625)"/>
       <path id="DejaVuSans-20" transform="scale(0.015625)"/>
       <path id="DejaVuSans-44" d="M 1259 4147 
L 1259 519 
L 2022 519 
Q 2988 519 3436 956 
Q 3884 1394 3884 2338 
Q 3884 3275 3436 3711 
Q 2988 4147 2022 4147 
L 1259 4147 
z
M 628 4666 
L 1925 4666 
Q 3281 4666 3915 4102 
Q 4550 3538 4550 2338 
Q 4550 1131 3912 565 
Q 3275 0 1925 0 
L 628 0 
L 628 4666 
z
" transform="scale(0.015625)"/>
       <path id="DejaVuSans-61" d="M 2194 1759 
Q 1497 1759 1228 1600 
Q 959 1441 959 1056 
Q 959 750 1161 570 
Q 1363 391 1709 391 
Q 2188 391 2477 730 
Q 2766 1069 2766 1631 
L 2766 1759 
L 2194 1759 
z
M 3341 1997 
L 3341 0 
L 2766 0 
L 2766 531 
Q 2569 213 2275 61 
Q 1981 -91 1556 -91 
Q 1019 -91 701 211 
Q 384 513 384 1019 
Q 384 1609 779 1909 
Q 1175 2209 1959 2209 
L 2766 2209 
L 2766 2266 
Q 2766 2663 2505 2880 
Q 2244 3097 1772 3097 
Q 1472 3097 1187 3025 
Q 903 2953 641 2809 
L 641 3341 
Q 956 3463 1253 3523 
Q 1550 3584 1831 3584 
Q 2591 3584 2966 3190 
Q 3341 2797 3341 1997 
z
" transform="scale(0.015625)"/>
       <path id="DejaVuSans-74" d="M 1172 4494 
L 1172 3500 
L 2356 3500 
L 2356 3053 
L 1172 3053 
L 1172 1153 
Q 1172 725 1289 603 
Q 1406 481 1766 481 
L 2356 481 
L 2356 0 
L 1766 0 
Q 1100 0 847 248 
Q 594 497 594 1153 
L 594 3053 
L 172 3053 
L 172 3500 
L 594 3500 
L 594 4494 
L 1172 4494 
z
" transform="scale(0.015625)"/>
       <path id="DejaVuSans-73" d="M 2834 3397 
L 2834 2853 
Q 2591 2978 2328 3040 
Q 2066 3103 1784 3103 
Q 1356 3103 1142 2972 
Q 928 2841 928 2578 
Q 928 2378 1081 2264 
Q 1234 2150 1697 2047 
L 1894 2003 
Q 2506 1872 2764 1633 
Q 3022 1394 3022 966 
Q 3022 478 2636 193 
Q 2250 -91 1575 -91 
Q 1294 -91 989 -36 
Q 684 19 347 128 
L 347 722 
Q 666 556 975 473 
Q 1284 391 1588 391 
Q 1994 391 2212 530 
Q 2431 669 2431 922 
Q 2431 1156 2273 1281 
Q 2116 1406 1581 1522 
L 1381 1569 
Q 847 1681 609 1914 
Q 372 2147 372 2553 
Q 372 3047 722 3315 
Q 1072 3584 1716 3584 
Q 2034 3584 2315 3537 
Q 2597 3491 2834 3397 
z
" transform="scale(0.015625)"/>
      </defs>
      <use xlink:href="#DejaVuSans-41"/>
      <use xlink:href="#DejaVuSans-6c" x="68.408203"/>
      <use xlink:href="#DejaVuSans-6c" x="96.191406"/>
      <use xlink:href="#DejaVuSans-20" x="123.974609"/>
      <use xlink:href="#DejaVuSans-44" x="155.761719"/>
      <use xlink:href="#DejaVuSans-61" x="232.763672"/>
      <use xlink:href="#DejaVuSans-74" x="294.042969"/>
      <use xlink:href="#DejaVuSans-61" x="333.251953"/>
      <use xlink:href="#DejaVuSans-73" x="394.53125"/>
     </g>
    </g>
   </g>
   <g id="matplotlib.axis_2">
    <g id="ytick_1">
     <g id="line2d_7">
      <defs>
       <path id="mb0438bdaaa" d="M 0 0 
L -3.5 0 
" style="stroke: #000000; stroke-width: 0.8"/>
      </defs>
      <g>
       <use xlink:href="#mb0438bdaaa" x="57.6" y="304.78371" style="stroke: #000000; stroke-width: 0.8"/>
      </g>
     </g>
     <g id="text_8">
      <!-- 0 -->
      <g transform="translate(44.2375 308.582929)scale(0.1 -0.1)">
       <use xlink:href="#DejaVuSans-30"/>
      </g>
     </g>
    </g>
    <g id="ytick_2">
     <g id="line2d_8">
      <g>
       <use xlink:href="#mb0438bdaaa" x="57.6" y="271.288282" style="stroke: #000000; stroke-width: 0.8"/>
      </g>
     </g>
     <g id="text_9">
      <!-- 2000 -->
      <g transform="translate(25.15 275.087501)scale(0.1 -0.1)">
       <use xlink:href="#DejaVuSans-32"/>
       <use xlink:href="#DejaVuSans-30" x="63.623047"/>
       <use xlink:href="#DejaVuSans-30" x="127.246094"/>
       <use xlink:href="#DejaVuSans-30" x="190.869141"/>
      </g>
     </g>
    </g>
    <g id="ytick_3">
     <g id="line2d_9">
      <g>
       <use xlink:href="#mb0438bdaaa" x="57.6" y="237.792854" style="stroke: #000000; stroke-width: 0.8"/>
      </g>
     </g>
     <g id="text_10">
      <!-- 4000 -->
      <g transform="translate(25.15 241.592073)scale(0.1 -0.1)">
       <use xlink:href="#DejaVuSans-34"/>
       <use xlink:href="#DejaVuSans-30" x="63.623047"/>
       <use xlink:href="#DejaVuSans-30" x="127.246094"/>
       <use xlink:href="#DejaVuSans-30" x="190.869141"/>
      </g>
     </g>
    </g>
    <g id="ytick_4">
     <g id="line2d_10">
      <g>
       <use xlink:href="#mb0438bdaaa" x="57.6" y="204.297426" style="stroke: #000000; stroke-width: 0.8"/>
      </g>
     </g>
     <g id="text_11">
      <!-- 6000 -->
      <g transform="translate(25.15 208.096645)scale(0.1 -0.1)">
       <use xlink:href="#DejaVuSans-36"/>
       <use xlink:href="#DejaVuSans-30" x="63.623047"/>
       <use xlink:href="#DejaVuSans-30" x="127.246094"/>
       <use xlink:href="#DejaVuSans-30" x="190.869141"/>
      </g>
     </g>
    </g>
    <g id="ytick_5">
     <g id="line2d_11">
      <g>
       <use xlink:href="#mb0438bdaaa" x="57.6" y="170.801998" style="stroke: #000000; stroke-width: 0.8"/>
      </g>
     </g>
     <g id="text_12">
      <!-- 8000 -->
      <g transform="translate(25.15 174.601217)scale(0.1 -0.1)">
       <use xlink:href="#DejaVuSans-38"/>
       <use xlink:href="#DejaVuSans-30" x="63.623047"/>
       <use xlink:href="#DejaVuSans-30" x="127.246094"/>
       <use xlink:href="#DejaVuSans-30" x="190.869141"/>
      </g>
     </g>
    </g>
    <g id="ytick_6">
     <g id="line2d_12">
      <g>
       <use xlink:href="#mb0438bdaaa" x="57.6" y="137.30657" style="stroke: #000000; stroke-width: 0.8"/>
      </g>
     </g>
     <g id="text_13">
      <!-- 10000 -->
      <g transform="translate(18.7875 141.105789)scale(0.1 -0.1)">
       <use xlink:href="#DejaVuSans-31"/>
       <use xlink:href="#DejaVuSans-30" x="63.623047"/>
       <use xlink:href="#DejaVuSans-30" x="127.246094"/>
       <use xlink:href="#DejaVuSans-30" x="190.869141"/>
       <use xlink:href="#DejaVuSans-30" x="254.492188"/>
      </g>
     </g>
    </g>
    <g id="ytick_7">
     <g id="line2d_13">
      <g>
       <use xlink:href="#mb0438bdaaa" x="57.6" y="103.811142" style="stroke: #000000; stroke-width: 0.8"/>
      </g>
     </g>
     <g id="text_14">
      <!-- 12000 -->
      <g transform="translate(18.7875 107.610361)scale(0.1 -0.1)">
       <use xlink:href="#DejaVuSans-31"/>
       <use xlink:href="#DejaVuSans-32" x="63.623047"/>
       <use xlink:href="#DejaVuSans-30" x="127.246094"/>
       <use xlink:href="#DejaVuSans-30" x="190.869141"/>
       <use xlink:href="#DejaVuSans-30" x="254.492188"/>
      </g>
     </g>
    </g>
    <g id="ytick_8">
     <g id="line2d_14">
      <g>
       <use xlink:href="#mb0438bdaaa" x="57.6" y="70.315714" style="stroke: #000000; stroke-width: 0.8"/>
      </g>
     </g>
     <g id="text_15">
      <!-- 14000 -->
      <g transform="translate(18.7875 74.114933)scale(0.1 -0.1)">
       <use xlink:href="#DejaVuSans-31"/>
       <use xlink:href="#DejaVuSans-34" x="63.623047"/>
       <use xlink:href="#DejaVuSans-30" x="127.246094"/>
       <use xlink:href="#DejaVuSans-30" x="190.869141"/>
       <use xlink:href="#DejaVuSans-30" x="254.492188"/>
      </g>
     </g>
    </g>
    <g id="text_16">
     <!-- Price -->
     <g transform="translate(12.707813 186.725656)rotate(-90)scale(0.1 -0.1)">
      <defs>
       <path id="DejaVuSans-50" d="M 1259 4147 
L 1259 2394 
L 2053 2394 
Q 2494 2394 2734 2622 
Q 2975 2850 2975 3272 
Q 2975 3691 2734 3919 
Q 2494 4147 2053 4147 
L 1259 4147 
z
M 628 4666 
L 2053 4666 
Q 2838 4666 3239 4311 
Q 3641 3956 3641 3272 
Q 3641 2581 3239 2228 
Q 2838 1875 2053 1875 
L 1259 1875 
L 1259 0 
L 628 0 
L 628 4666 
z
" transform="scale(0.015625)"/>
       <path id="DejaVuSans-72" d="M 2631 2963 
Q 2534 3019 2420 3045 
Q 2306 3072 2169 3072 
Q 1681 3072 1420 2755 
Q 1159 2438 1159 1844 
L 1159 0 
L 581 0 
L 581 3500 
L 1159 3500 
L 1159 2956 
Q 1341 3275 1631 3429 
Q 1922 3584 2338 3584 
Q 2397 3584 2469 3576 
Q 2541 3569 2628 3553 
L 2631 2963 
z
" transform="scale(0.015625)"/>
       <path id="DejaVuSans-69" d="M 603 3500 
L 1178 3500 
L 1178 0 
L 603 0 
L 603 3500 
z
M 603 4863 
L 1178 4863 
L 1178 4134 
L 603 4134 
L 603 4863 
z
" transform="scale(0.015625)"/>
       <path id="DejaVuSans-63" d="M 3122 3366 
L 3122 2828 
Q 2878 2963 2633 3030 
Q 2388 3097 2138 3097 
Q 1578 3097 1268 2742 
Q 959 2388 959 1747 
Q 959 1106 1268 751 
Q 1578 397 2138 397 
Q 2388 397 2633 464 
Q 2878 531 3122 666 
L 3122 134 
Q 2881 22 2623 -34 
Q 2366 -91 2075 -91 
Q 1284 -91 818 406 
Q 353 903 353 1747 
Q 353 2603 823 3093 
Q 1294 3584 2113 3584 
Q 2378 3584 2631 3529 
Q 2884 3475 3122 3366 
z
" transform="scale(0.015625)"/>
       <path id="DejaVuSans-65" d="M 3597 1894 
L 3597 1613 
L 953 1613 
Q 991 1019 1311 708 
Q 1631 397 2203 397 
Q 2534 397 2845 478 
Q 3156 559 3463 722 
L 3463 178 
Q 3153 47 2828 -22 
Q 2503 -91 2169 -91 
Q 1331 -91 842 396 
Q 353 884 353 1716 
Q 353 2575 817 3079 
Q 1281 3584 2069 3584 
Q 2775 3584 3186 3129 
Q 3597 2675 3597 1894 
z
M 3022 2063 
Q 3016 2534 2758 2815 
Q 2500 3097 2075 3097 
Q 1594 3097 1305 2825 
Q 1016 2553 972 2059 
L 3022 2063 
z
" transform="scale(0.015625)"/>
      </defs>
      <use xlink:href="#DejaVuSans-50"/>
      <use xlink:href="#DejaVuSans-72" x="58.552734"/>
      <use xlink:href="#DejaVuSans-69" x="99.666016"/>
      <use xlink:href="#DejaVuSans-63" x="127.449219"/>
      <use xlink:href="#DejaVuSans-65" x="182.429688"/>
     </g>
    </g>
   </g>
   <g id="line2d_15">
    <path d="M 73.832727 120.642595 
L 74.164007 204.381164 
L 74.495288 154.087779 
L 74.826568 146.517813 
L 75.157848 204.314174 
L 75.489128 182.106705 
L 75.820408 179.259593 
L 76.151688 184.015944 
L 76.482968 231.931154 
L 76.814249 143.16827 
L 77.145529 166.363854 
L 77.476809 163.265527 
L 77.808089 149.113708 
L 78.139369 194.265545 
L 78.470649 187.63345 
L 78.801929 145.764165 
L 79.13321 187.63345 
L 79.46449 145.764165 
L 79.79577 140.656113 
L 80.12705 175.910051 
L 80.45833 150.78848 
L 80.78961 204.381164 
L 81.452171 142.665838 
L 81.783451 149.046717 
L 82.114731 149.113708 
L 82.446011 159.246075 
L 82.777291 230.256383 
L 83.108571 254.691297 
L 83.439852 170.885736 
L 83.771132 166.615069 
L 84.102412 137.390308 
L 84.433692 158.743644 
L 84.764972 221.061888 
L 85.096252 129.016452 
L 85.427532 187.63345 
L 85.758813 182.558893 
L 86.090093 204.297426 
L 86.421373 137.340065 
L 86.752653 165.945161 
L 87.083933 178.639928 
L 87.415213 147.556171 
L 87.746494 199.440589 
L 88.077774 119.50375 
L 88.409054 170.801998 
L 88.740334 146.09912 
L 89.071614 222.937632 
L 89.402894 154.221761 
L 89.734174 190.899255 
L 90.396735 159.497291 
L 90.728015 172.560508 
L 91.059295 204.464903 
L 91.390575 187.63345 
L 91.721855 179.175855 
L 92.053135 195.923569 
L 92.384416 114.027247 
L 93.046976 204.330921 
L 93.378256 145.764165 
L 93.709536 179.20935 
L 94.040816 189.308222 
L 94.372096 179.20935 
L 94.703377 194.399527 
L 95.365937 181.001356 
L 96.028497 126.822501 
L 96.359777 192.239072 
L 96.691058 174.151541 
L 97.022338 132.299003 
L 97.353618 209.32174 
L 97.684898 196.007307 
L 98.016178 221.04514 
L 98.347458 154.138022 
L 98.678738 195.923569 
L 99.010019 170.801998 
L 99.341299 134.040766 
L 99.672579 182.609136 
L 100.335139 124.745784 
L 100.666419 144.173133 
L 100.997699 184.283908 
L 101.32898 187.63345 
L 101.66026 237.826349 
L 101.99154 137.390308 
L 102.32282 179.510809 
L 102.6541 179.259593 
L 102.98538 170.885736 
L 103.31666 128.932713 
L 103.647941 179.259593 
L 103.979221 170.835493 
L 104.310501 123.992137 
L 104.641781 175.591844 
L 104.973061 249.599992 
L 105.304341 201.768521 
L 105.635622 179.20935 
L 105.966902 187.63345 
L 106.298182 124.059128 
L 106.629462 154.89167 
L 106.960742 157.571304 
L 107.292022 225.232068 
L 107.623302 162.511879 
L 107.954583 142.330884 
L 108.285863 208.115905 
L 108.617143 180.013241 
L 108.948423 179.259593 
L 109.279703 204.464903 
L 109.610983 160.837108 
L 109.942263 186.343876 
L 110.604824 160.837108 
L 110.936104 182.609136 
L 111.267384 179.175855 
L 111.598664 187.63345 
L 111.929944 149.448663 
L 112.261224 212.855508 
L 112.923785 125.666909 
L 113.255065 154.054284 
L 113.586345 200.110497 
L 113.917625 172.677742 
L 114.248905 212.755021 
L 114.580186 95.521024 
L 114.911466 171.639384 
L 115.242746 169.093731 
L 115.574026 142.498361 
L 116.236586 238.04407 
L 116.567866 140.67286 
L 116.899147 237.876592 
L 117.230427 162.511879 
L 117.561707 154.087779 
L 117.892987 187.717189 
L 118.224267 137.390308 
L 118.555547 203.192077 
L 118.886827 149.063465 
L 119.218108 170.835493 
L 119.549388 165.928413 
L 119.880668 132.449733 
L 120.211948 165.861422 
L 120.543228 175.910051 
L 120.874508 172.476769 
L 121.205788 179.259593 
L 121.537069 167.452455 
L 121.868349 162.428141 
L 122.199629 138.981341 
L 122.530909 174.570234 
L 122.862189 176.663698 
L 123.193469 198.92141 
L 123.52475 154.087779 
L 123.85603 165.677197 
L 124.18731 227.744225 
L 124.51859 113.943509 
L 124.84987 145.764165 
L 125.18115 154.087779 
L 125.51243 170.450296 
L 125.843711 196.007307 
L 126.174991 204.381164 
L 126.506271 179.20935 
L 126.837551 185.891688 
L 127.168831 141.493498 
L 127.500111 154.138022 
L 128.162672 170.835493 
L 128.493952 244.659417 
L 128.825232 149.113708 
L 129.156512 137.474047 
L 129.487792 191.049984 
L 129.819072 137.457299 
L 130.150353 155.729055 
L 130.481633 154.087779 
L 130.812913 170.885736 
L 131.144193 162.444889 
L 131.475473 203.627517 
L 131.806753 196.007307 
L 132.138033 180.934365 
L 132.469314 187.717189 
L 132.800594 212.671283 
L 133.131874 146.601551 
L 133.794434 204.314174 
L 134.125714 159.246075 
L 134.456994 170.835493 
L 134.788275 159.915984 
L 135.119555 179.259593 
L 135.450835 162.511879 
L 135.782115 197.615088 
L 136.113395 190.982993 
L 136.444675 174.168288 
L 136.775955 192.607522 
L 137.107236 128.932713 
L 137.438516 149.113708 
L 137.769796 133.957027 
L 138.101076 204.297426 
L 138.432356 204.297426 
L 138.763636 191.066732 
L 139.094917 154.138022 
L 139.426197 202.622654 
L 139.757477 199.306607 
L 140.088757 182.609136 
L 140.420037 204.314174 
L 140.751317 203.292563 
L 141.082597 216.104564 
L 141.413878 221.04514 
L 141.745158 172.460022 
L 142.076438 159.078598 
L 142.407718 162.511879 
L 142.738998 229.502735 
L 143.070278 218.951676 
L 143.401558 187.56646 
L 143.732839 99.791691 
L 144.064119 162.511879 
L 144.395399 195.957064 
L 145.057959 171.00297 
L 145.389239 141.660976 
L 145.720519 229.502735 
L 146.0518 137.390308 
L 146.38308 179.343332 
L 146.71436 187.583207 
L 147.04564 165.342243 
L 147.37692 128.932713 
L 147.7082 197.933295 
L 148.039481 192.607522 
L 148.370761 195.923569 
L 148.702041 171.639384 
L 149.033321 179.343332 
L 149.364601 191.73664 
L 150.027161 207.730707 
L 150.358442 173.297407 
L 150.689722 251.525979 
L 151.021002 170.969475 
L 151.352282 174.988926 
L 151.683562 191.73664 
L 152.014842 170.801998 
L 152.346122 165.861422 
L 152.677403 137.390308 
L 153.008683 179.20935 
L 153.339963 125.080739 
L 153.671243 170.818746 
L 154.002523 142.062921 
L 154.333803 189.39196 
L 154.665083 143.16827 
L 154.996364 187.549712 
L 155.327644 179.259593 
L 155.658924 145.881399 
L 155.990204 154.138022 
L 156.321484 185.539986 
L 156.652764 202.706393 
L 156.984045 190.899255 
L 157.315325 190.982993 
L 157.646605 187.717189 
L 157.977885 124.712289 
L 158.309165 170.801998 
L 158.971725 87.147167 
L 159.303006 180.867374 
L 159.634286 175.910051 
L 159.965566 196.007307 
L 160.296846 165.861422 
L 160.628126 202.706393 
L 161.290686 154.138022 
L 161.621967 170.801998 
L 161.953247 137.474047 
L 162.284527 212.671283 
L 162.947087 120.89381 
L 163.278367 172.476769 
L 163.609647 167.536194 
L 163.940928 170.885736 
L 164.272208 72.308692 
L 164.603488 157.387079 
L 165.266048 196.007307 
L 165.597328 170.885736 
L 166.259889 162.595618 
L 166.591169 162.511879 
L 166.922449 166.615069 
L 167.253729 154.138022 
L 167.585009 196.292019 
L 167.916289 145.51295 
L 168.24757 182.609136 
L 168.57885 170.801998 
L 168.91013 180.850626 
L 169.24141 183.731233 
L 169.57269 162.595618 
L 170.23525 207.680464 
L 170.566531 172.058076 
L 170.897811 155.226624 
L 171.229091 194.248797 
L 171.560371 175.072665 
L 171.891651 201.11536 
L 172.222931 137.390308 
L 172.554212 204.297426 
L 172.885492 187.56646 
L 173.216772 197.799313 
L 173.548052 158.241212 
L 173.879332 174.235279 
L 174.210612 179.20935 
L 174.541892 197.682079 
L 174.873173 172.610751 
L 175.204453 170.818746 
L 175.535733 129.770099 
L 175.867013 137.390308 
L 176.198293 179.20935 
L 176.529573 162.511879 
L 176.860853 179.259593 
L 177.192134 187.549712 
L 177.523414 170.835493 
L 177.854694 221.078635 
L 178.185974 179.259593 
L 178.517254 197.765817 
L 178.848534 187.700441 
L 179.179814 204.314174 
L 179.511095 189.308222 
L 179.842375 137.30657 
L 180.173655 179.175855 
L 180.504935 187.63345 
L 180.836215 179.20935 
L 181.167495 257.973849 
L 181.498776 154.221761 
L 181.830056 170.885736 
L 182.161336 154.138022 
L 182.492616 120.642595 
L 182.823896 182.525398 
L 183.155176 162.511879 
L 183.486456 170.885736 
L 183.817737 120.575604 
L 184.149017 187.717189 
L 184.480297 199.94302 
L 185.142857 154.221761 
L 185.474137 239.618355 
L 185.805417 167.452455 
L 186.136698 199.35685 
L 186.467978 194.265545 
L 186.799258 184.283908 
L 187.130538 162.461636 
L 187.461818 182.692875 
L 187.793098 190.229346 
L 188.124378 130.908943 
L 188.455659 164.019174 
L 188.786939 259.648621 
L 189.118219 216.087817 
L 189.449499 271.37202 
L 190.112059 190.982993 
L 190.44334 103.894881 
L 190.77462 209.355235 
L 191.1059 154.087779 
L 191.43718 164.772821 
L 192.09974 229.670213 
L 192.43102 137.390308 
L 192.762301 137.390308 
L 193.093581 187.549712 
L 193.424861 187.63345 
L 193.756141 137.390308 
L 194.087421 189.39196 
L 194.418701 187.549712 
L 194.749981 138.143956 
L 195.081262 199.306607 
L 195.412542 164.270389 
L 195.743822 217.193166 
L 196.075102 179.259593 
L 196.406382 191.73664 
L 196.737662 137.474047 
L 197.068942 179.20935 
L 197.400223 179.20935 
L 197.731503 146.517813 
L 198.062783 137.390308 
L 198.394063 120.642595 
L 198.725343 200.445452 
L 199.056623 191.066732 
L 199.387904 175.826312 
L 199.719184 201.26609 
L 200.050464 179.343332 
L 200.381744 142.414623 
L 200.713024 146.517813 
L 201.044304 182.692875 
L 201.375584 182.609136 
L 201.706865 189.643176 
L 202.038145 175.826312 
L 202.369425 148.192584 
L 202.700705 162.595618 
L 203.031985 200.612929 
L 203.363265 188.387098 
L 203.694545 221.212617 
L 204.025826 145.764165 
L 204.357106 172.644246 
L 204.688386 175.859808 
L 205.019666 167.084005 
L 205.350946 182.525398 
L 205.682226 162.511879 
L 206.013506 154.138022 
L 206.344787 129.016452 
L 206.676067 150.704741 
L 207.007347 200.110497 
L 207.338627 191.73664 
L 207.669907 157.437322 
L 208.001187 225.918725 
L 208.332468 158.241212 
L 208.663748 180.934365 
L 208.995028 191.703145 
L 209.326308 130.908943 
L 209.657588 179.259593 
L 209.988868 154.506472 
L 210.320148 139.06508 
L 210.651429 200.947883 
L 210.982709 179.259593 
L 211.313989 103.894881 
L 211.645269 221.078635 
L 211.976549 179.175855 
L 212.307829 194.717733 
L 212.639109 131.44487 
L 212.97039 162.595618 
L 213.30167 162.57887 
L 213.63295 170.969475 
L 213.96423 137.390308 
L 214.29551 185.037555 
L 214.62679 130.607484 
L 214.958071 187.717189 
L 215.289351 179.20935 
L 215.620631 202.622654 
L 215.951911 166.447592 
L 216.283191 166.196377 
L 216.614471 176.814427 
L 216.945751 154.054284 
L 217.277032 204.464903 
L 217.608312 204.431408 
L 217.939592 145.764165 
L 218.270872 213.609155 
L 218.602152 137.323318 
L 218.933432 145.764165 
L 219.264712 187.63345 
L 219.595993 187.700441 
L 219.927273 175.910051 
L 220.258553 148.527538 
L 220.589833 204.464903 
L 220.921113 129.016452 
L 221.252393 205.972197 
L 221.583673 154.071032 
L 221.914954 132.449733 
L 222.246234 170.885736 
L 222.577514 87.080176 
L 222.908794 179.192603 
L 223.240074 137.390308 
L 223.571354 162.846834 
L 223.902635 137.30657 
L 224.233915 162.57887 
L 224.565195 137.390308 
L 224.896475 195.086183 
L 225.227755 137.323318 
L 225.559035 204.314174 
L 225.890315 187.63345 
L 226.221596 154.138022 
L 226.552876 174.285522 
L 226.884156 144.039151 
L 227.546716 211.163989 
L 227.877996 137.474047 
L 228.209276 187.717189 
L 228.540557 184.200169 
L 228.871837 187.56646 
L 229.203117 170.885736 
L 229.534397 129.10019 
L 229.865677 162.428141 
L 230.196957 154.054284 
L 230.859518 195.957064 
L 231.190798 137.474047 
L 231.522078 165.861422 
L 231.853358 179.175855 
L 232.184638 167.536194 
L 232.515918 181.185581 
L 232.847199 170.969475 
L 233.178479 179.192603 
L 233.509759 190.982993 
L 233.841039 149.867355 
L 234.172319 179.510809 
L 234.503599 191.066732 
L 235.16616 127.157455 
L 235.49744 170.885736 
L 235.82872 183.630747 
L 236.16 149.063465 
L 236.49128 144.005656 
L 236.82256 120.642595 
L 237.816401 204.330921 
L 238.147681 162.511879 
L 238.478961 167.619932 
L 238.810241 176.245005 
L 239.141521 170.835493 
L 239.472801 155.896532 
L 239.804082 174.235279 
L 240.135362 137.390308 
L 240.466642 196.760955 
L 240.797922 157.487565 
L 241.129202 209.405479 
L 241.460482 178.355217 
L 241.791763 229.502735 
L 242.123043 138.143956 
L 242.454323 162.511879 
L 242.785603 204.314174 
L 243.116883 162.846834 
L 243.448163 204.381164 
L 243.779443 204.314174 
L 244.110724 137.390308 
L 244.442004 132.449733 
L 244.773284 157.604799 
L 245.104564 191.401686 
L 245.435844 170.818746 
L 245.767124 162.428141 
L 246.098404 179.259593 
L 246.760965 137.474047 
L 247.092245 159.246075 
L 247.423525 200.110497 
L 247.754805 154.138022 
L 248.086085 204.381164 
L 248.417365 145.847904 
L 248.748646 206.156422 
L 249.079926 173.314155 
L 249.411206 179.259593 
L 249.742486 187.717189 
L 250.073766 184.367646 
L 250.405046 191.066732 
L 250.736327 165.861422 
L 251.398887 204.381164 
L 251.730167 168.155859 
L 252.061447 187.717189 
L 252.392727 195.957064 
L 252.724007 195.086183 
L 253.055288 187.63345 
L 253.717848 184.702601 
L 254.380408 129.016452 
L 254.711688 222.703164 
L 255.374249 188.052143 
L 255.705529 159.095346 
L 256.036809 149.197447 
L 256.368089 132.449733 
L 256.699369 145.847904 
L 257.030649 204.448155 
L 257.361929 190.982993 
L 257.69321 209.338488 
L 258.02449 133.957027 
L 258.35577 229.502735 
L 258.68705 170.969475 
L 259.01833 173.314155 
L 259.34961 145.764165 
L 259.680891 141.660976 
L 260.012171 179.376827 
L 260.343451 197.765817 
L 260.674731 205.302289 
L 261.337291 187.583207 
L 261.668571 232.433585 
L 261.999852 190.899255 
L 262.331132 170.885736 
L 262.662412 196.258523 
L 262.993692 159.162337 
L 263.656252 194.349284 
L 263.987532 192.239072 
L 264.318813 155.896532 
L 264.650093 192.607522 
L 264.981373 149.113708 
L 265.312653 174.988926 
L 265.643933 137.323318 
L 265.975213 120.642595 
L 266.306494 154.138022 
L 266.637774 137.340065 
L 266.969054 196.760955 
L 267.300334 124.745784 
L 268.294174 191.73664 
L 268.625455 204.381164 
L 268.956735 180.013241 
L 269.288015 165.861422 
L 269.619295 172.644246 
L 269.950575 170.969475 
L 270.281855 182.558893 
L 270.613135 137.474047 
L 270.944416 149.046717 
L 271.275696 185.87494 
L 271.606976 170.801998 
L 271.938256 137.474047 
L 272.269536 171.287682 
L 272.600816 166.615069 
L 272.932096 170.969475 
L 273.263377 208.819309 
L 273.594657 142.665838 
L 273.925937 154.221761 
L 274.257217 141.510246 
L 274.588497 154.054284 
L 274.919777 191.73664 
L 275.251058 124.745784 
L 275.582338 197.59834 
L 275.913618 142.833316 
L 276.244898 184.200169 
L 276.576178 195.923569 
L 276.907458 174.235279 
L 277.238738 199.306607 
L 277.570019 191.267704 
L 277.901299 192.657765 
L 278.232579 207.730707 
L 278.563859 162.846834 
L 278.895139 199.289859 
L 279.226419 195.957064 
L 279.557699 199.440589 
L 279.88898 187.63345 
L 280.22026 145.847904 
L 280.55154 149.867355 
L 280.88282 191.73664 
L 281.54538 170.885736 
L 282.207941 204.297426 
L 282.539221 158.241212 
L 282.870501 159.078598 
L 283.201781 183.496765 
L 283.533061 165.861422 
L 283.864341 167.619932 
L 284.195622 162.428141 
L 284.526902 179.192603 
L 284.858182 146.517813 
L 285.189462 152.463251 
L 285.520742 123.908399 
L 285.852022 149.113708 
L 286.183302 137.390308 
L 286.514583 146.517813 
L 286.845863 162.511879 
L 287.177143 132.449733 
L 287.508423 140.739851 
L 287.839703 218.532983 
L 288.170983 154.087779 
L 288.502263 170.818746 
L 288.833544 137.390308 
L 289.164824 187.63345 
L 289.496104 158.877626 
L 289.827384 149.063465 
L 290.158664 237.809602 
L 290.489944 154.138022 
L 290.821224 193.913843 
L 291.152505 140.656113 
L 291.483785 154.071032 
L 291.815065 162.511879 
L 292.146345 221.04514 
L 292.477625 171.136952 
L 292.808905 201.098612 
L 293.140186 125.164477 
L 293.471466 234.912247 
L 293.802746 137.390308 
L 294.134026 199.775543 
L 294.465306 180.683149 
L 294.796586 192.590774 
L 295.127866 165.945161 
L 295.459147 187.63345 
L 295.790427 155.896532 
L 296.121707 165.861422 
L 296.452987 196.007307 
L 296.784267 151.207173 
L 297.115547 196.426 
L 297.446827 137.390308 
L 297.778108 232.936017 
L 298.440668 158.274708 
L 298.771948 192.607522 
L 299.103228 162.511879 
L 299.434508 154.89167 
L 299.765788 141.493498 
L 300.097069 189.308222 
L 300.428349 283.09542 
L 300.759629 179.20935 
L 301.090909 162.428141 
L 301.422189 172.560508 
L 301.753469 195.421137 
L 302.08475 208.1494 
L 302.41603 189.308222 
L 302.74731 264.672935 
L 303.07859 188.387098 
L 303.40987 146.517813 
L 303.74115 233.019755 
L 304.07243 139.818727 
L 304.403711 170.885736 
L 304.734991 179.259593 
L 305.066271 162.511879 
L 305.397551 137.323318 
L 305.728831 207.814446 
L 306.060111 179.259593 
L 306.391391 139.818727 
L 306.722672 187.583207 
L 307.053952 170.885736 
L 307.385232 145.764165 
L 307.716512 166.079143 
L 308.047792 175.910051 
L 308.379072 129.10019 
L 308.710353 162.511879 
L 309.041633 174.570234 
L 309.372913 162.428141 
L 309.704193 157.588052 
L 310.035473 164.136408 
L 310.698033 196.007307 
L 311.029314 137.474047 
L 312.023154 204.381164 
L 312.685714 182.240687 
L 313.016994 104.648528 
L 313.348275 204.297426 
L 313.679555 195.923569 
L 314.010835 162.428141 
L 314.342115 246.31744 
L 314.673395 137.390308 
L 315.004675 174.151541 
L 315.335955 170.885736 
L 315.667236 121.396242 
L 315.998516 141.493498 
L 316.329796 170.885736 
L 316.661076 177.484336 
L 316.992356 157.403827 
L 317.323636 187.63345 
L 317.654917 170.885736 
L 317.986197 179.343332 
L 318.317477 173.314155 
L 318.648757 137.390308 
L 318.980037 199.35685 
L 319.311317 177.501083 
L 319.642597 171.053214 
L 319.973878 183.228802 
L 320.305158 201.785269 
L 320.636438 103.978619 
L 320.967718 185.87494 
L 321.298998 180.934365 
L 321.630278 159.832245 
L 321.961558 190.93275 
L 322.292839 162.511879 
L 322.624119 204.314174 
L 322.955399 137.390308 
L 323.286679 171.639384 
L 323.617959 187.800928 
L 323.949239 178.338469 
L 324.6118 95.437285 
L 324.94308 175.859808 
L 325.27436 172.677742 
L 325.60564 144.089394 
L 325.93692 224.428178 
L 326.2682 154.054284 
L 326.599481 137.474047 
L 326.930761 142.347632 
L 327.262041 154.138022 
L 327.593321 187.985152 
L 327.924601 120.642595 
L 328.255881 165.861422 
L 328.587161 188.387098 
L 328.918442 170.818746 
L 329.249722 174.402756 
L 329.581002 196.007307 
L 329.912282 174.988926 
L 330.243562 170.93598 
L 330.574842 170.885736 
L 330.906122 53.568 
L 331.237403 174.486495 
L 331.568683 172.811724 
L 331.899963 239.819327 
L 332.231243 154.087779 
L 332.562523 187.63345 
L 332.893803 174.988926 
L 333.225083 179.175855 
L 333.556364 211.850645 
L 333.887644 108.919195 
L 334.218924 179.20935 
L 334.550204 146.517813 
L 334.881484 194.44977 
L 335.212764 201.11536 
L 335.544045 154.89167 
L 335.875325 208.484354 
L 336.206605 196.124541 
L 336.869165 162.511879 
L 337.200445 170.818746 
L 337.531725 170.801998 
L 337.863006 152.279026 
L 338.194286 103.894881 
L 338.525566 197.095909 
L 338.856846 182.692875 
L 339.188126 204.330921 
L 339.519406 196.007307 
L 339.850686 165.777684 
L 340.181967 170.952727 
L 340.513247 95.437285 
L 340.844527 179.259593 
L 341.175807 170.885736 
L 341.507087 124.059128 
L 341.838367 154.138022 
L 342.500928 137.30657 
L 342.832208 182.542145 
L 343.163488 174.235279 
L 343.494768 213.558912 
L 343.826048 113.85977 
L 344.157328 145.680427 
L 344.488609 87.147167 
L 344.819889 171.639384 
L 345.151169 204.548642 
L 345.813729 145.764165 
L 346.145009 167.469203 
L 346.476289 159.547534 
L 346.80757 123.908399 
L 347.47013 204.330921 
L 347.80141 154.138022 
L 348.13269 145.831156 
L 348.46397 155.678812 
L 349.126531 128.681497 
L 349.457811 205.687486 
L 350.120371 147.438937 
L 350.782931 120.223902 
L 351.114212 196.760955 
L 351.445492 149.951094 
L 351.776772 173.448137 
L 352.108052 120.810072 
L 352.439332 179.175855 
L 352.770612 202.622654 
L 353.101892 179.175855 
L 353.433173 184.283908 
L 353.764453 145.831156 
L 354.095733 154.138022 
L 354.427013 137.30657 
L 354.758293 174.151541 
L 355.089573 170.969475 
L 355.420853 146.517813 
L 355.752134 155.729055 
L 356.083414 170.969475 
L 356.414694 209.338488 
L 356.745974 179.192603 
L 357.077254 229.586474 
L 357.408534 162.511879 
L 357.739814 190.899255 
L 358.071095 154.138022 
L 358.402375 137.30657 
L 358.733655 137.390308 
L 359.064935 179.175855 
L 359.396215 187.549712 
L 359.727495 125.21472 
L 360.058776 179.175855 
L 360.390056 187.63345 
L 360.721336 149.147204 
L 361.052616 207.646969 
L 361.383896 137.474047 
L 361.715176 199.440589 
L 362.046456 132.449733 
L 362.377737 167.284978 
L 362.709017 171.639384 
L 363.040297 183.362783 
L 363.371577 124.913262 
L 363.702857 162.595618 
L 364.034137 217.729092 
L 364.365417 199.35685 
L 364.696698 154.138022 
L 365.027978 163.566985 
L 365.359258 199.35685 
L 366.021818 179.259593 
L 366.353098 204.297426 
L 366.684378 130.774961 
L 367.015659 170.818746 
L 367.346939 174.988926 
L 367.678219 175.910051 
L 368.009499 192.607522 
L 368.340779 197.849556 
L 368.672059 170.952727 
L 369.00334 190.832264 
L 369.33462 187.717189 
L 369.6659 170.885736 
L 369.99718 170.969475 
L 370.32846 194.248797 
L 370.65974 175.910051 
L 370.99102 103.894881 
L 371.322301 137.390308 
L 371.653581 197.682079 
L 371.984861 125.750647 
L 372.316141 162.461636 
L 372.647421 157.487565 
L 372.978701 202.706393 
L 373.309981 231.261245 
L 373.641262 165.811179 
L 373.972542 140.739851 
L 374.303822 180.180718 
L 374.635102 165.024037 
L 374.966382 140.82359 
L 375.297662 172.058076 
L 375.628942 183.362783 
L 375.960223 185.908436 
L 376.291503 174.285522 
L 376.622783 207.663716 
L 376.954063 212.704778 
L 377.285343 154.221761 
L 377.616623 162.511879 
L 377.947904 212.755021 
L 378.279184 162.428141 
L 378.610464 157.571304 
L 378.941744 140.82359 
L 379.273024 137.474047 
L 379.604304 164.186651 
L 379.935584 157.571304 
L 380.266865 176.161266 
L 380.598145 208.95329 
L 380.929425 175.859808 
L 381.260705 197.615088 
L 381.591985 124.745784 
L 381.923265 170.801998 
L 382.254545 165.945161 
L 382.585826 170.835493 
L 382.917106 187.56646 
L 383.248386 146.68529 
L 383.579666 187.63345 
L 383.910946 162.461636 
L 384.242226 170.885736 
L 384.573506 146.517813 
L 384.904787 149.02997 
L 385.236067 137.390308 
L 385.898627 193.294178 
L 386.229907 170.801998 
L 386.561187 170.885736 
L 386.892468 191.451929 
L 387.223748 226.153193 
L 387.555028 137.474047 
L 388.217588 162.511879 
L 388.548868 158.241212 
L 388.880148 168.44057 
L 389.211429 160.75337 
L 389.873989 187.63345 
L 390.205269 174.988926 
L 390.536549 195.923569 
L 391.199109 170.801998 
L 391.53039 130.774961 
L 391.86167 159.246075 
L 392.19295 254.557316 
L 392.52423 170.885736 
L 392.85551 172.811724 
L 393.18679 204.297426 
L 393.518071 147.438937 
L 393.849351 173.314155 
L 394.180631 180.934365 
L 394.511911 196.007307 
L 394.843191 157.487565 
L 395.174471 140.991067 
L 395.505751 185.037555 
L 395.837032 187.56646 
L 396.168312 195.086183 
L 396.499592 210.996511 
L 397.162152 157.420574 
L 397.824712 214.429793 
L 398.155993 220.207754 
L 398.487273 165.928413 
L 398.487273 165.928413 
" clip-path="url(#p705ee3d23a)" style="fill: none; stroke: #1f77b4; stroke-width: 1.5; stroke-linecap: square"/>
   </g>
   <g id="line2d_16">
    <path d="M 73.832727 132.425037 
L 74.164007 198.925996 
L 74.826568 135.185472 
L 75.157848 203.258904 
L 75.489128 177.638467 
L 75.820408 170.739366 
L 76.151688 175.368595 
L 76.482968 209.861106 
L 76.814249 134.403304 
L 77.145529 164.12036 
L 77.476809 169.260027 
L 77.808089 137.024154 
L 78.139369 183.724177 
L 78.470649 200.707574 
L 78.801929 164.034644 
L 79.13321 183.31207 
L 79.46449 152.459116 
L 79.79577 134.760894 
L 80.12705 176.54294 
L 80.45833 140.92828 
L 80.78961 187.773611 
L 81.120891 178.563447 
L 81.452171 158.050879 
L 81.783451 144.547207 
L 82.114731 154.165904 
L 82.446011 139.656717 
L 82.777291 210.935487 
L 83.108571 221.962072 
L 83.439852 155.341111 
L 83.771132 162.929236 
L 84.102412 138.727148 
L 84.433692 175.032536 
L 84.764972 250.584487 
L 85.096252 174.737549 
L 85.427532 184.846167 
L 85.758813 178.088471 
L 86.090093 190.47863 
L 86.421373 163.735601 
L 86.752653 183.760286 
L 87.083933 189.901587 
L 87.415213 152.006135 
L 87.746494 205.842192 
L 88.077774 139.818763 
L 88.409054 176.350736 
L 88.740334 162.822627 
L 89.071614 203.717916 
L 89.402894 175.790508 
L 89.734174 185.154652 
L 90.065455 174.855229 
L 90.396735 168.863321 
L 90.728015 175.299012 
L 91.059295 191.704142 
L 91.390575 183.361541 
L 91.721855 168.575554 
L 92.053135 181.144023 
L 92.384416 132.798362 
L 92.715696 140.619496 
L 93.046976 185.554941 
L 93.378256 138.818654 
L 93.709536 185.250552 
L 94.040816 173.018 
L 94.372096 184.899658 
L 94.703377 185.354128 
L 95.034657 184.668189 
L 95.365937 181.455406 
L 95.697217 150.676371 
L 96.028497 154.670566 
L 96.359777 191.306218 
L 96.691058 184.337483 
L 97.022338 159.652766 
L 97.353618 194.411793 
L 97.684898 184.528505 
L 98.016178 197.541633 
L 98.347458 177.432547 
L 98.678738 183.937245 
L 99.010019 144.802803 
L 99.341299 143.387993 
L 99.672579 185.633571 
L 100.003859 140.624486 
L 100.335139 123.833346 
L 100.666419 163.193562 
L 100.997699 185.1126 
L 101.32898 184.157752 
L 101.66026 208.476357 
L 101.99154 137.905522 
L 102.32282 182.421999 
L 102.98538 166.272277 
L 103.31666 141.72447 
L 103.647941 182.860969 
L 103.979221 170.679464 
L 104.310501 132.79421 
L 104.641781 165.229614 
L 104.973061 266.945745 
L 105.304341 186.896549 
L 105.635622 184.908415 
L 105.966902 169.139878 
L 106.298182 140.577297 
L 106.629462 150.790813 
L 106.960742 139.760962 
L 107.292022 210.444402 
L 107.954583 136.228622 
L 108.285863 197.38662 
L 108.617143 183.335457 
L 108.948423 176.534648 
L 109.279703 198.078215 
L 109.610983 162.121267 
L 109.942263 162.541387 
L 110.273544 162.3427 
L 110.604824 138.544154 
L 110.936104 181.335093 
L 111.267384 169.429528 
L 111.598664 188.925707 
L 111.929944 141.46007 
L 112.261224 203.260817 
L 112.592505 185.226532 
L 112.923785 132.462422 
L 113.255065 178.073932 
L 113.586345 198.711447 
L 113.917625 155.976099 
L 114.248905 189.823814 
L 114.580186 133.227871 
L 114.911466 190.141224 
L 115.242746 169.365248 
L 115.574026 140.280948 
L 115.905306 176.218758 
L 116.236586 245.389819 
L 116.567866 150.896418 
L 116.899147 231.114472 
L 117.230427 169.67171 
L 117.561707 175.362963 
L 117.892987 186.912349 
L 118.224267 150.684812 
L 118.555547 204.431931 
L 118.886827 153.436727 
L 119.218108 159.341638 
L 119.549388 173.392947 
L 119.880668 133.676098 
L 120.211948 187.404032 
L 120.543228 186.83206 
L 120.874508 185.181586 
L 121.205788 182.784866 
L 121.537069 176.524735 
L 121.868349 147.808892 
L 122.530909 182.356247 
L 122.862189 184.385221 
L 123.193469 198.273403 
L 123.52475 169.378569 
L 123.85603 166.832958 
L 124.18731 223.035607 
L 124.51859 141.919964 
L 124.84987 165.228577 
L 125.18115 174.994562 
L 125.51243 168.745552 
L 126.174991 205.501494 
L 126.506271 187.974602 
L 126.837551 155.233795 
L 127.168831 151.159462 
L 127.500111 151.159462 
L 128.162672 179.899682 
L 128.493952 220.164954 
L 128.825232 161.997093 
L 129.156512 133.809401 
L 129.487792 180.911078 
L 129.819072 148.554601 
L 130.150353 153.927823 
L 130.481633 157.482517 
L 130.812913 173.12418 
L 131.144193 151.409535 
L 131.475473 203.164387 
L 131.806753 196.954757 
L 132.138033 177.651815 
L 132.469314 171.676418 
L 132.800594 213.334878 
L 133.131874 140.505192 
L 133.463154 177.688697 
L 133.794434 186.396352 
L 134.125714 167.925025 
L 134.456994 170.633565 
L 134.788275 155.784546 
L 135.119555 184.110694 
L 135.450835 163.917561 
L 135.782115 198.000323 
L 136.113395 184.661457 
L 136.444675 150.79725 
L 136.775955 196.745789 
L 137.107236 138.094274 
L 137.438516 151.507558 
L 137.769796 134.689445 
L 138.101076 185.512529 
L 138.432356 201.540878 
L 138.763636 180.959742 
L 139.094917 145.435042 
L 139.426197 189.588597 
L 139.757477 184.660243 
L 140.088757 186.991124 
L 140.420037 191.559765 
L 140.751317 202.545582 
L 141.082597 178.404179 
L 141.413878 210.655307 
L 141.745158 155.103805 
L 142.076438 160.468929 
L 142.407718 150.150727 
L 142.738998 205.20755 
L 143.070278 196.947988 
L 143.401558 184.580946 
L 143.732839 139.795788 
L 144.064119 154.139807 
L 144.395399 196.249635 
L 144.726679 189.825431 
L 145.057959 167.976155 
L 145.389239 160.613756 
L 145.720519 217.20454 
L 146.0518 144.507222 
L 146.38308 172.091967 
L 146.71436 187.735141 
L 147.04564 174.106982 
L 147.37692 152.600063 
L 147.7082 194.526947 
L 148.039481 177.679347 
L 148.370761 191.542241 
L 148.702041 171.141428 
L 149.033321 175.642508 
L 149.364601 198.657121 
L 149.695881 187.287457 
L 150.027161 187.437543 
L 150.358442 171.827036 
L 150.689722 243.546234 
L 151.021002 165.067916 
L 151.352282 186.214336 
L 151.683562 174.981432 
L 152.014842 180.520842 
L 152.346122 175.410095 
L 152.677403 137.814624 
L 153.008683 182.969704 
L 153.339963 124.221843 
L 153.671243 172.671843 
L 154.002523 140.821752 
L 154.333803 173.349568 
L 154.665083 148.286884 
L 154.996364 181.092531 
L 155.327644 181.942003 
L 155.990204 139.102833 
L 156.321484 178.387815 
L 156.652764 177.999623 
L 156.984045 183.260905 
L 157.315325 185.854885 
L 157.646605 194.061255 
L 157.977885 124.221843 
L 158.309165 187.719913 
L 158.640445 138.722269 
L 158.971725 146.133832 
L 159.303006 178.968539 
L 159.634286 172.707052 
L 159.965566 183.4463 
L 160.296846 186.290659 
L 160.628126 210.306018 
L 160.959406 184.612344 
L 161.290686 188.555338 
L 161.953247 141.740375 
L 162.284527 210.258562 
L 162.615807 142.612179 
L 162.947087 132.801684 
L 163.278367 183.374192 
L 163.609647 174.81151 
L 163.940928 159.938668 
L 164.272208 156.980022 
L 164.603488 141.480855 
L 164.934768 173.429614 
L 165.266048 180.990697 
L 165.597328 167.031794 
L 165.928609 184.161289 
L 166.259889 140.388713 
L 166.591169 161.224281 
L 166.922449 162.425847 
L 167.253729 156.352925 
L 167.585009 194.167416 
L 167.916289 133.356145 
L 168.24757 179.776458 
L 168.57885 160.050851 
L 169.24141 185.219047 
L 169.57269 165.038827 
L 170.23525 197.253834 
L 170.897811 136.392116 
L 171.229091 204.909277 
L 171.560371 167.319463 
L 171.891651 174.520447 
L 172.222931 155.724961 
L 172.554212 202.677283 
L 172.885492 184.110694 
L 173.216772 184.311429 
L 173.548052 160.28648 
L 173.879332 177.315603 
L 174.210612 178.230188 
L 174.541892 189.830552 
L 174.873173 176.580008 
L 175.535733 141.622497 
L 175.867013 136.868249 
L 176.198293 185.526766 
L 176.860853 159.339982 
L 177.192134 186.265375 
L 177.523414 174.375987 
L 177.854694 211.283777 
L 178.185974 174.181939 
L 178.848534 199.022 
L 179.179814 197.732466 
L 179.511095 186.06871 
L 179.842375 132.542118 
L 180.173655 196.331347 
L 180.504935 176.035651 
L 180.836215 182.880961 
L 181.167495 256.62573 
L 181.498776 151.620467 
L 181.830056 168.274718 
L 182.161336 133.393003 
L 182.492616 149.619201 
L 182.823896 187.446725 
L 183.155176 154.114457 
L 183.486456 164.778175 
L 183.817737 129.862711 
L 184.149017 176.038445 
L 184.480297 179.795948 
L 184.811577 192.315195 
L 185.142857 142.955079 
L 185.474137 210.673749 
L 185.805417 178.740672 
L 186.136698 183.075254 
L 186.467978 199.38356 
L 186.799258 168.165271 
L 187.130538 175.870948 
L 187.461818 187.775751 
L 187.793098 182.31113 
L 188.124378 132.82269 
L 188.455659 148.431236 
L 188.786939 247.436851 
L 189.118219 205.429341 
L 189.449499 281.85611 
L 190.44334 135.754841 
L 190.77462 215.652778 
L 191.1059 141.827549 
L 191.43718 152.956249 
L 191.76846 215.22295 
L 192.09974 236.564728 
L 192.43102 166.007356 
L 192.762301 134.167083 
L 193.093581 187.605602 
L 193.424861 187.011613 
L 193.756141 151.238945 
L 194.087421 197.272116 
L 194.749981 156.168456 
L 195.081262 173.850204 
L 195.412542 174.016886 
L 195.743822 211.159087 
L 196.075102 183.86659 
L 196.406382 179.429462 
L 196.737662 150.290274 
L 197.068942 176.61029 
L 197.400223 181.564345 
L 197.731503 134.969186 
L 198.062783 129.577432 
L 198.394063 132.565269 
L 198.725343 187.060773 
L 199.056623 181.630001 
L 199.387904 171.788364 
L 199.719184 200.319999 
L 200.050464 182.239704 
L 200.381744 152.24008 
L 200.713024 132.941283 
L 201.044304 199.466911 
L 201.375584 177.054278 
L 201.706865 193.021003 
L 202.038145 191.929428 
L 202.369425 158.185482 
L 202.700705 157.114355 
L 203.031985 205.484401 
L 203.363265 174.297058 
L 203.694545 209.806655 
L 204.025826 142.486622 
L 204.357106 144.722271 
L 204.688386 174.963179 
L 205.019666 169.807982 
L 205.350946 169.493622 
L 205.682226 162.198293 
L 206.013506 167.621995 
L 206.344787 141.642536 
L 207.007347 184.986612 
L 207.338627 182.55029 
L 207.669907 146.064229 
L 208.001187 204.039363 
L 208.332468 146.133832 
L 208.663748 185.833932 
L 208.995028 202.577437 
L 209.326308 148.412351 
L 209.657588 180.317238 
L 209.988868 154.703505 
L 210.651429 178.752868 
L 210.982709 170.819057 
L 211.313989 133.879153 
L 211.645269 211.981289 
L 211.976549 184.908034 
L 212.307829 189.562271 
L 212.639109 134.053303 
L 212.97039 149.174235 
L 213.30167 170.989939 
L 213.63295 176.8754 
L 213.96423 150.614988 
L 214.29551 178.038855 
L 214.62679 132.801684 
L 214.958071 192.242111 
L 215.289351 175.782987 
L 215.620631 194.525608 
L 215.951911 154.531684 
L 216.283191 180.811745 
L 216.614471 169.181851 
L 216.945751 138.73831 
L 217.277032 201.073596 
L 217.608312 175.234854 
L 217.939592 163.083201 
L 218.270872 186.381423 
L 218.602152 144.037418 
L 218.933432 135.967402 
L 219.264712 183.996559 
L 219.595993 181.578654 
L 219.927273 181.105962 
L 220.258553 136.231268 
L 220.589833 203.511432 
L 220.921113 146.683141 
L 221.252393 188.323822 
L 221.583673 150.816726 
L 221.914954 143.85415 
L 222.246234 174.096692 
L 222.577514 144.633427 
L 222.908794 190.443275 
L 223.240074 150.819267 
L 223.571354 150.043215 
L 223.902635 149.875443 
L 224.233915 139.543394 
L 224.565195 156.280841 
L 224.896475 191.889518 
L 225.227755 137.981075 
L 225.559035 195.254552 
L 225.890315 188.736313 
L 226.221596 150.903207 
L 226.552876 178.56839 
L 226.884156 142.467492 
L 227.546716 213.262882 
L 227.877996 136.643366 
L 228.209276 172.867271 
L 228.540557 166.391609 
L 228.871837 203.565091 
L 229.203117 175.15547 
L 229.534397 136.253328 
L 229.865677 172.744722 
L 230.196957 169.232992 
L 230.859518 192.103834 
L 231.190798 134.945227 
L 231.522078 174.247726 
L 231.853358 187.226005 
L 232.184638 171.68285 
L 232.515918 181.437082 
L 232.847199 167.120578 
L 233.178479 193.16159 
L 233.509759 177.649847 
L 233.841039 152.351726 
L 234.172319 175.909644 
L 234.503599 174.735001 
L 234.834879 184.316881 
L 235.16616 149.893319 
L 235.49744 178.107058 
L 235.82872 184.25804 
L 236.16 153.112659 
L 236.49128 133.719924 
L 236.82256 132.425037 
L 237.15384 180.174254 
L 237.485121 166.024739 
L 237.816401 198.912885 
L 238.147681 195.088271 
L 238.478961 161.932274 
L 238.810241 166.106355 
L 239.141521 175.116217 
L 239.472801 153.901559 
L 239.804082 180.950355 
L 240.135362 137.814624 
L 240.466642 186.191396 
L 240.797922 154.246692 
L 241.129202 205.803655 
L 241.460482 184.510504 
L 241.791763 210.614864 
L 242.123043 141.519963 
L 242.785603 192.955505 
L 243.116883 171.075963 
L 243.448163 205.388524 
L 243.779443 205.28803 
L 244.110724 145.733256 
L 244.442004 133.324234 
L 244.773284 166.731258 
L 245.435844 194.799534 
L 245.767124 182.635319 
L 246.098404 180.171984 
L 246.429685 162.12931 
L 246.760965 137.278806 
L 247.092245 151.673141 
L 247.423525 184.886353 
L 247.754805 145.640093 
L 248.086085 220.323673 
L 248.417365 138.43672 
L 248.748646 191.242223 
L 249.079926 192.223424 
L 249.411206 182.83956 
L 249.742486 186.681713 
L 250.073766 181.835552 
L 250.405046 202.92808 
L 250.736327 157.492026 
L 251.067607 174.520447 
L 251.398887 205.020497 
L 251.730167 165.876672 
L 252.061447 169.227005 
L 252.392727 198.827876 
L 252.724007 179.262751 
L 253.055288 183.61552 
L 253.386568 182.335757 
L 253.717848 165.887223 
L 254.049128 140.60326 
L 254.380408 140.505192 
L 254.711688 215.362359 
L 255.042968 234.156014 
L 255.374249 180.249175 
L 255.705529 167.309102 
L 256.036809 165.388476 
L 256.368089 143.362757 
L 256.699369 133.575428 
L 257.030649 194.116676 
L 257.361929 197.363543 
L 257.69321 181.581738 
L 258.02449 149.116558 
L 258.35577 215.015555 
L 258.68705 181.457766 
L 259.01833 176.495028 
L 259.34961 145.454405 
L 259.680891 152.33539 
L 260.012171 175.991695 
L 260.343451 182.290788 
L 260.674731 197.198599 
L 261.006011 203.539088 
L 261.337291 202.226966 
L 261.668571 210.082926 
L 261.999852 185.879352 
L 262.331132 170.768512 
L 262.662412 212.558325 
L 262.993692 166.818565 
L 263.324972 181.874016 
L 263.656252 172.915017 
L 263.987532 191.01459 
L 264.318813 180.481323 
L 264.650093 189.66622 
L 264.981373 155.624363 
L 265.312653 183.587746 
L 265.643933 138.926139 
L 265.975213 132.706145 
L 266.306494 166.098598 
L 266.637774 142.671242 
L 266.969054 186.585437 
L 267.300334 132.448099 
L 267.631614 152.665141 
L 267.962894 157.023514 
L 268.294174 183.787854 
L 268.625455 201.158804 
L 268.956735 174.26227 
L 269.288015 167.431371 
L 269.619295 142.743254 
L 269.950575 182.925418 
L 270.281855 184.485668 
L 270.613135 158.823592 
L 270.944416 165.571856 
L 271.275696 180.972527 
L 271.606976 171.347223 
L 271.938256 134.296354 
L 272.269536 183.464113 
L 272.600816 177.105102 
L 272.932096 160.086839 
L 273.263377 195.857282 
L 273.594657 128.046771 
L 273.925937 171.57586 
L 274.257217 140.024692 
L 274.588497 151.192778 
L 274.919777 195.291798 
L 275.251058 132.448099 
L 275.582338 187.751234 
L 275.913618 168.671969 
L 276.576178 192.599725 
L 276.907458 187.127993 
L 277.238738 206.420374 
L 277.901299 192.515314 
L 278.232579 203.951454 
L 278.563859 149.658415 
L 278.895139 187.933766 
L 279.226419 183.275348 
L 279.557699 201.773447 
L 279.88898 185.0961 
L 280.22026 137.810936 
L 280.55154 154.39858 
L 280.88282 203.717858 
L 281.2141 174.574037 
L 281.87666 185.386612 
L 282.207941 209.43311 
L 282.539221 154.2022 
L 282.870501 154.610224 
L 283.201781 190.831587 
L 283.533061 173.72734 
L 283.864341 183.661831 
L 284.195622 148.124165 
L 284.526902 177.977493 
L 285.189462 148.237686 
L 285.520742 159.618685 
L 285.852022 178.730253 
L 286.183302 134.159542 
L 286.514583 132.674071 
L 286.845863 166.788086 
L 287.177143 143.39931 
L 287.508423 136.575757 
L 287.839703 206.094321 
L 288.170983 177.103783 
L 288.502263 185.623523 
L 288.833544 143.069649 
L 289.164824 165.30592 
L 289.496104 177.77217 
L 289.827384 161.823852 
L 290.158664 207.416797 
L 290.489944 157.174023 
L 290.821224 174.71529 
L 291.152505 156.080492 
L 291.483785 154.423173 
L 291.815065 160.56577 
L 292.146345 208.81872 
L 292.477625 164.322319 
L 292.808905 181.382246 
L 293.140186 141.415213 
L 293.471466 216.919693 
L 293.802746 137.87416 
L 294.134026 189.879559 
L 294.465306 172.40299 
L 294.796586 175.688459 
L 295.127866 153.695228 
L 295.459147 196.18239 
L 295.790427 151.394937 
L 296.452987 194.170243 
L 296.784267 136.024438 
L 297.115547 205.119848 
L 297.446827 134.398245 
L 297.778108 198.130177 
L 298.109388 196.855015 
L 298.440668 140.547302 
L 298.771948 191.064888 
L 299.103228 176.940369 
L 299.434508 149.910707 
L 299.765788 135.557231 
L 300.097069 190.354067 
L 300.428349 295.488 
L 300.759629 182.863601 
L 301.090909 142.993648 
L 301.422189 172.644534 
L 301.753469 177.864421 
L 302.08475 186.989412 
L 302.41603 171.835792 
L 302.74731 248.461055 
L 303.07859 190.885712 
L 303.40987 158.865159 
L 303.74115 201.68441 
L 304.07243 136.008636 
L 304.403711 148.877187 
L 304.734991 179.106282 
L 305.066271 170.40558 
L 305.397551 138.926139 
L 305.728831 210.997159 
L 306.060111 201.834517 
L 306.391391 141.740375 
L 306.722672 184.700825 
L 307.053952 165.961659 
L 307.385232 134.557957 
L 307.716512 166.930791 
L 308.047792 175.192087 
L 308.379072 136.358485 
L 308.710353 142.177331 
L 309.041633 178.952176 
L 309.372913 142.591654 
L 309.704193 173.314095 
L 310.035473 144.462717 
L 310.366753 166.363273 
L 310.698033 180.644061 
L 311.029314 139.052642 
L 311.360594 172.230877 
L 311.691874 176.917335 
L 312.023154 205.303012 
L 312.354434 185.948032 
L 312.685714 183.526454 
L 313.016994 136.581091 
L 313.348275 188.456914 
L 313.679555 174.420321 
L 314.010835 182.158733 
L 314.342115 246.0578 
L 314.673395 137.660082 
L 315.004675 189.027001 
L 315.335955 177.279659 
L 315.667236 145.455875 
L 315.998516 135.3839 
L 316.329796 170.385509 
L 316.661076 175.098462 
L 316.992356 158.615057 
L 317.323636 178.087116 
L 317.654917 177.425105 
L 317.986197 182.914799 
L 318.317477 174.902408 
L 318.648757 129.689218 
L 318.980037 178.680328 
L 319.311317 177.349147 
L 319.642597 155.285378 
L 319.973878 185.367961 
L 320.305158 189.500071 
L 320.636438 138.961545 
L 320.967718 183.028154 
L 321.298998 185.941003 
L 321.630278 149.486958 
L 321.961558 174.300017 
L 322.292839 157.364392 
L 322.624119 205.63565 
L 322.955399 159.147143 
L 323.617959 192.582459 
L 323.949239 174.050431 
L 324.280519 129.242751 
L 324.6118 132.788887 
L 324.94308 183.047143 
L 325.27436 180.653722 
L 325.60564 159.210632 
L 325.93692 202.350595 
L 326.2682 178.067608 
L 326.599481 133.939051 
L 326.930761 138.882225 
L 327.262041 138.339329 
L 327.593321 203.866981 
L 327.924601 133.304612 
L 328.255881 177.018573 
L 328.587161 188.657655 
L 328.918442 149.898295 
L 329.249722 159.066429 
L 329.581002 192.917008 
L 329.912282 161.269906 
L 330.243562 168.90766 
L 330.574842 180.897774 
L 330.906122 172.065811 
L 331.237403 167.571314 
L 331.568683 178.31415 
L 331.899963 227.037618 
L 332.231243 144.881662 
L 332.562523 193.264334 
L 332.893803 181.630655 
L 333.225083 178.068873 
L 333.556364 210.307582 
L 333.887644 141.649218 
L 334.218924 177.031142 
L 334.550204 134.866607 
L 334.881484 199.143456 
L 335.212764 185.552049 
L 335.544045 157.579566 
L 335.875325 211.818262 
L 336.206605 187.707543 
L 336.537885 181.868937 
L 336.869165 179.597363 
L 337.200445 178.34602 
L 337.531725 165.204422 
L 337.863006 165.426076 
L 338.194286 132.462422 
L 338.525566 192.603154 
L 338.856846 174.877717 
L 339.188126 200.440964 
L 339.519406 209.974066 
L 339.850686 169.018146 
L 340.181967 175.34418 
L 340.513247 124.315485 
L 340.844527 186.093927 
L 341.175807 145.912339 
L 341.507087 140.19103 
L 341.838367 170.486309 
L 342.169647 141.098483 
L 342.500928 133.227871 
L 342.832208 183.175346 
L 343.163488 171.8501 
L 343.494768 207.957267 
L 343.826048 138.002695 
L 344.157328 146.363338 
L 344.488609 140.804318 
L 344.819889 166.961691 
L 345.151169 208.813251 
L 345.813729 145.327365 
L 346.145009 143.606112 
L 346.476289 162.729156 
L 346.80757 137.512118 
L 347.13885 149.416788 
L 347.47013 197.071912 
L 347.80141 178.57395 
L 348.13269 133.464377 
L 348.46397 170.421318 
L 348.79525 157.197927 
L 349.126531 137.087017 
L 349.457811 182.204813 
L 349.789091 177.234649 
L 350.120371 164.151736 
L 350.451651 134.053303 
L 350.782931 139.336727 
L 351.114212 178.860713 
L 351.445492 138.106541 
L 351.776772 177.179496 
L 352.108052 133.059508 
L 352.439332 181.209 
L 352.770612 200.325988 
L 353.101892 175.464868 
L 353.433173 181.090337 
L 353.764453 133.932391 
L 354.095733 160.891317 
L 354.427013 132.542118 
L 354.758293 166.510411 
L 355.089573 187.048963 
L 355.420853 150.314228 
L 355.752134 165.856501 
L 356.414694 215.781656 
L 356.745974 196.163868 
L 357.077254 193.69677 
L 357.408534 153.92971 
L 357.739814 173.885375 
L 358.071095 153.367821 
L 358.402375 154.875228 
L 358.733655 129.242751 
L 359.064935 179.000017 
L 359.396215 207.649856 
L 359.727495 138.865436 
L 360.058776 175.804192 
L 360.390056 188.889139 
L 360.721336 140.522248 
L 361.052616 213.736288 
L 361.383896 129.577432 
L 361.715176 179.725953 
L 362.046456 143.506524 
L 362.377737 172.537418 
L 362.709017 172.630121 
L 363.040297 178.926312 
L 363.371577 132.79338 
L 363.702857 144.766101 
L 364.034137 205.561535 
L 364.696698 168.592247 
L 365.027978 174.594148 
L 365.359258 188.331348 
L 365.690538 167.790331 
L 366.021818 195.420172 
L 366.353098 195.562709 
L 366.684378 134.898207 
L 367.015659 174.289321 
L 367.346939 192.083543 
L 367.678219 190.958057 
L 368.009499 191.699 
L 368.340779 209.977321 
L 368.672059 137.803562 
L 369.33462 203.187999 
L 369.6659 170.88776 
L 369.99718 167.722373 
L 370.32846 191.273778 
L 370.65974 170.304209 
L 370.99102 139.748308 
L 371.322301 156.578965 
L 371.653581 198.599949 
L 371.984861 144.680314 
L 372.316141 171.512128 
L 372.647421 176.763171 
L 372.978701 184.473686 
L 373.309981 209.075387 
L 373.641262 156.606591 
L 373.972542 137.912186 
L 374.303822 173.399833 
L 374.635102 165.869875 
L 374.966382 139.705637 
L 375.297662 192.338604 
L 375.628942 191.158819 
L 375.960223 171.276999 
L 376.291503 174.774911 
L 376.622783 213.381737 
L 376.954063 216.45144 
L 377.285343 171.8743 
L 377.616623 181.521052 
L 377.947904 208.360464 
L 378.610464 157.501537 
L 378.941744 140.505192 
L 379.273024 139.993598 
L 379.604304 154.200384 
L 379.935584 143.387953 
L 380.266865 175.476792 
L 380.598145 192.109689 
L 380.929425 177.18804 
L 381.260705 205.350194 
L 381.591985 145.488627 
L 381.923265 142.037896 
L 382.585826 180.395842 
L 382.917106 186.648384 
L 383.248386 157.685303 
L 383.579666 181.831376 
L 383.910946 176.732401 
L 384.242226 187.255898 
L 384.573506 137.545667 
L 384.904787 154.943751 
L 385.567347 173.236446 
L 385.898627 172.230129 
L 386.229907 184.908034 
L 386.561187 163.413299 
L 386.892468 174.5997 
L 387.223748 197.213361 
L 387.555028 146.756904 
L 387.886308 137.907003 
L 388.217588 183.684454 
L 388.548868 154.2022 
L 388.880148 165.507164 
L 389.211429 181.154098 
L 389.873989 188.220335 
L 390.205269 185.577763 
L 390.536549 191.394379 
L 390.867829 165.963131 
L 391.199109 187.196293 
L 391.53039 134.77026 
L 391.86167 145.70375 
L 392.19295 249.859445 
L 392.52423 173.426308 
L 392.85551 172.684656 
L 393.18679 177.084386 
L 393.518071 149.289551 
L 393.849351 177.288368 
L 394.180631 184.84577 
L 394.511911 168.867236 
L 394.843191 143.779578 
L 395.174471 133.638106 
L 395.505751 171.140735 
L 395.837032 139.894142 
L 396.168312 194.651183 
L 396.499592 211.59381 
L 397.162152 150.188868 
L 397.493432 169.987886 
L 397.824712 210.802058 
L 398.155993 205.62561 
L 398.487273 141.808254 
L 398.487273 141.808254 
" clip-path="url(#p705ee3d23a)" style="fill: none; stroke: #ff7f0e; stroke-width: 1.5; stroke-linecap: square"/>
   </g>
   <g id="patch_3">
    <path d="M 57.6 307.584 
L 57.6 41.472 
" style="fill: none; stroke: #000000; stroke-width: 0.8; stroke-linejoin: miter; stroke-linecap: square"/>
   </g>
   <g id="patch_4">
    <path d="M 414.72 307.584 
L 414.72 41.472 
" style="fill: none; stroke: #000000; stroke-width: 0.8; stroke-linejoin: miter; stroke-linecap: square"/>
   </g>
   <g id="patch_5">
    <path d="M 57.6 307.584 
L 414.72 307.584 
" style="fill: none; stroke: #000000; stroke-width: 0.8; stroke-linejoin: miter; stroke-linecap: square"/>
   </g>
   <g id="patch_6">
    <path d="M 57.6 41.472 
L 414.72 41.472 
" style="fill: none; stroke: #000000; stroke-width: 0.8; stroke-linejoin: miter; stroke-linecap: square"/>
   </g>
   <g id="text_17">
    <!-- Aygo -->
    <g transform="translate(221.429062 35.472)scale(0.12 -0.12)">
     <defs>
      <path id="DejaVuSans-79" d="M 2059 -325 
Q 1816 -950 1584 -1140 
Q 1353 -1331 966 -1331 
L 506 -1331 
L 506 -850 
L 844 -850 
Q 1081 -850 1212 -737 
Q 1344 -625 1503 -206 
L 1606 56 
L 191 3500 
L 800 3500 
L 1894 763 
L 2988 3500 
L 3597 3500 
L 2059 -325 
z
" transform="scale(0.015625)"/>
      <path id="DejaVuSans-67" d="M 2906 1791 
Q 2906 2416 2648 2759 
Q 2391 3103 1925 3103 
Q 1463 3103 1205 2759 
Q 947 2416 947 1791 
Q 947 1169 1205 825 
Q 1463 481 1925 481 
Q 2391 481 2648 825 
Q 2906 1169 2906 1791 
z
M 3481 434 
Q 3481 -459 3084 -895 
Q 2688 -1331 1869 -1331 
Q 1566 -1331 1297 -1286 
Q 1028 -1241 775 -1147 
L 775 -588 
Q 1028 -725 1275 -790 
Q 1522 -856 1778 -856 
Q 2344 -856 2625 -561 
Q 2906 -266 2906 331 
L 2906 616 
Q 2728 306 2450 153 
Q 2172 0 1784 0 
Q 1141 0 747 490 
Q 353 981 353 1791 
Q 353 2603 747 3093 
Q 1141 3584 1784 3584 
Q 2172 3584 2450 3431 
Q 2728 3278 2906 2969 
L 2906 3500 
L 3481 3500 
L 3481 434 
z
" transform="scale(0.015625)"/>
      <path id="DejaVuSans-6f" d="M 1959 3097 
Q 1497 3097 1228 2736 
Q 959 2375 959 1747 
Q 959 1119 1226 758 
Q 1494 397 1959 397 
Q 2419 397 2687 759 
Q 2956 1122 2956 1747 
Q 2956 2369 2687 2733 
Q 2419 3097 1959 3097 
z
M 1959 3584 
Q 2709 3584 3137 3096 
Q 3566 2609 3566 1747 
Q 3566 888 3137 398 
Q 2709 -91 1959 -91 
Q 1206 -91 779 398 
Q 353 888 353 1747 
Q 353 2609 779 3096 
Q 1206 3584 1959 3584 
z
" transform="scale(0.015625)"/>
     </defs>
     <use xlink:href="#DejaVuSans-41"/>
     <use xlink:href="#DejaVuSans-79" x="61.658203"/>
     <use xlink:href="#DejaVuSans-67" x="120.837891"/>
     <use xlink:href="#DejaVuSans-6f" x="184.314453"/>
    </g>
   </g>
  </g>
 </g>
 <defs>
  <clipPath id="p705ee3d23a">
   <rect x="57.6" y="41.472" width="357.12" height="266.112"/>
  </clipPath>
 </defs>
</svg>
