<?xml version="1.0" encoding="utf-8" standalone="no"?>
<!DOCTYPE svg PUBLIC "-//W3C//DTD SVG 1.1//EN"
  "http://www.w3.org/Graphics/SVG/1.1/DTD/svg11.dtd">
<svg xmlns:xlink="http://www.w3.org/1999/xlink" width="460.8pt" height="345.6pt" viewBox="0 0 460.8 345.6" xmlns="http://www.w3.org/2000/svg" version="1.1">
 <metadata>
  <rdf:RDF xmlns:dc="http://purl.org/dc/elements/1.1/" xmlns:cc="http://creativecommons.org/ns#" xmlns:rdf="http://www.w3.org/1999/02/22-rdf-syntax-ns#">
   <cc:Work>
    <dc:type rdf:resource="http://purl.org/dc/dcmitype/StillImage"/>
    <dc:date>2023-07-13T14:25:49.323272</dc:date>
    <dc:format>image/svg+xml</dc:format>
    <dc:creator>
     <cc:Agent>
      <dc:title>Matplotlib v3.5.1, https://matplotlib.org/</dc:title>
     </cc:Agent>
    </dc:creator>
   </cc:Work>
  </rdf:RDF>
 </metadata>
 <defs>
  <style type="text/css">*{stroke-linejoin: round; stroke-linecap: butt}</style>
 </defs>
 <g id="figure_1">
  <g id="patch_1">
   <path d="M 0 345.6 
L 460.8 345.6 
L 460.8 0 
L 0 0 
z
" style="fill: #ffffff"/>
  </g>
  <g id="axes_1">
   <g id="patch_2">
    <path d="M 57.6 307.584 
L 414.72 307.584 
L 414.72 41.472 
L 57.6 41.472 
z
" style="fill: #ffffff"/>
   </g>
   <g id="matplotlib.axis_1">
    <g id="xtick_1">
     <g id="line2d_1">
      <defs>
       <path id="m7dcc656616" d="M 0 0 
L 0 3.5 
" style="stroke: #000000; stroke-width: 0.8"/>
      </defs>
      <g>
       <use xlink:href="#m7dcc656616" x="73.832727" y="307.584" style="stroke: #000000; stroke-width: 0.8"/>
      </g>
     </g>
     <g id="text_1">
      <!-- 0 -->
      <g transform="translate(70.651477 322.182437)scale(0.1 -0.1)">
       <defs>
        <path id="DejaVuSans-30" d="M 2034 4250 
Q 1547 4250 1301 3770 
Q 1056 3291 1056 2328 
Q 1056 1369 1301 889 
Q 1547 409 2034 409 
Q 2525 409 2770 889 
Q 3016 1369 3016 2328 
Q 3016 3291 2770 3770 
Q 2525 4250 2034 4250 
z
M 2034 4750 
Q 2819 4750 3233 4129 
Q 3647 3509 3647 2328 
Q 3647 1150 3233 529 
Q 2819 -91 2034 -91 
Q 1250 -91 836 529 
Q 422 1150 422 2328 
Q 422 3509 836 4129 
Q 1250 4750 2034 4750 
z
" transform="scale(0.015625)"/>
       </defs>
       <use xlink:href="#DejaVuSans-30"/>
      </g>
     </g>
    </g>
    <g id="xtick_2">
     <g id="line2d_2">
      <g>
       <use xlink:href="#m7dcc656616" x="142.61547" y="307.584" style="stroke: #000000; stroke-width: 0.8"/>
      </g>
     </g>
     <g id="text_2">
      <!-- 50 -->
      <g transform="translate(136.25297 322.182437)scale(0.1 -0.1)">
       <defs>
        <path id="DejaVuSans-35" d="M 691 4666 
L 3169 4666 
L 3169 4134 
L 1269 4134 
L 1269 2991 
Q 1406 3038 1543 3061 
Q 1681 3084 1819 3084 
Q 2600 3084 3056 2656 
Q 3513 2228 3513 1497 
Q 3513 744 3044 326 
Q 2575 -91 1722 -91 
Q 1428 -91 1123 -41 
Q 819 9 494 109 
L 494 744 
Q 775 591 1075 516 
Q 1375 441 1709 441 
Q 2250 441 2565 725 
Q 2881 1009 2881 1497 
Q 2881 1984 2565 2268 
Q 2250 2553 1709 2553 
Q 1456 2553 1204 2497 
Q 953 2441 691 2322 
L 691 4666 
z
" transform="scale(0.015625)"/>
       </defs>
       <use xlink:href="#DejaVuSans-35"/>
       <use xlink:href="#DejaVuSans-30" x="63.623047"/>
      </g>
     </g>
    </g>
    <g id="xtick_3">
     <g id="line2d_3">
      <g>
       <use xlink:href="#m7dcc656616" x="211.398213" y="307.584" style="stroke: #000000; stroke-width: 0.8"/>
      </g>
     </g>
     <g id="text_3">
      <!-- 100 -->
      <g transform="translate(201.854463 322.182437)scale(0.1 -0.1)">
       <defs>
        <path id="DejaVuSans-31" d="M 794 531 
L 1825 531 
L 1825 4091 
L 703 3866 
L 703 4441 
L 1819 4666 
L 2450 4666 
L 2450 531 
L 3481 531 
L 3481 0 
L 794 0 
L 794 531 
z
" transform="scale(0.015625)"/>
       </defs>
       <use xlink:href="#DejaVuSans-31"/>
       <use xlink:href="#DejaVuSans-30" x="63.623047"/>
       <use xlink:href="#DejaVuSans-30" x="127.246094"/>
      </g>
     </g>
    </g>
    <g id="xtick_4">
     <g id="line2d_4">
      <g>
       <use xlink:href="#m7dcc656616" x="280.180955" y="307.584" style="stroke: #000000; stroke-width: 0.8"/>
      </g>
     </g>
     <g id="text_4">
      <!-- 150 -->
      <g transform="translate(270.637205 322.182437)scale(0.1 -0.1)">
       <use xlink:href="#DejaVuSans-31"/>
       <use xlink:href="#DejaVuSans-35" x="63.623047"/>
       <use xlink:href="#DejaVuSans-30" x="127.246094"/>
      </g>
     </g>
    </g>
    <g id="xtick_5">
     <g id="line2d_5">
      <g>
       <use xlink:href="#m7dcc656616" x="348.963698" y="307.584" style="stroke: #000000; stroke-width: 0.8"/>
      </g>
     </g>
     <g id="text_5">
      <!-- 200 -->
      <g transform="translate(339.419948 322.182437)scale(0.1 -0.1)">
       <defs>
        <path id="DejaVuSans-32" d="M 1228 531 
L 3431 531 
L 3431 0 
L 469 0 
L 469 531 
Q 828 903 1448 1529 
Q 2069 2156 2228 2338 
Q 2531 2678 2651 2914 
Q 2772 3150 2772 3378 
Q 2772 3750 2511 3984 
Q 2250 4219 1831 4219 
Q 1534 4219 1204 4116 
Q 875 4013 500 3803 
L 500 4441 
Q 881 4594 1212 4672 
Q 1544 4750 1819 4750 
Q 2544 4750 2975 4387 
Q 3406 4025 3406 3419 
Q 3406 3131 3298 2873 
Q 3191 2616 2906 2266 
Q 2828 2175 2409 1742 
Q 1991 1309 1228 531 
z
" transform="scale(0.015625)"/>
       </defs>
       <use xlink:href="#DejaVuSans-32"/>
       <use xlink:href="#DejaVuSans-30" x="63.623047"/>
       <use xlink:href="#DejaVuSans-30" x="127.246094"/>
      </g>
     </g>
    </g>
    <g id="text_6">
     <!-- All Datas -->
     <g transform="translate(213.829531 335.860562)scale(0.1 -0.1)">
      <defs>
       <path id="DejaVuSans-41" d="M 2188 4044 
L 1331 1722 
L 3047 1722 
L 2188 4044 
z
M 1831 4666 
L 2547 4666 
L 4325 0 
L 3669 0 
L 3244 1197 
L 1141 1197 
L 716 0 
L 50 0 
L 1831 4666 
z
" transform="scale(0.015625)"/>
       <path id="DejaVuSans-6c" d="M 603 4863 
L 1178 4863 
L 1178 0 
L 603 0 
L 603 4863 
z
" transform="scale(0.015625)"/>
       <path id="DejaVuSans-20" transform="scale(0.015625)"/>
       <path id="DejaVuSans-44" d="M 1259 4147 
L 1259 519 
L 2022 519 
Q 2988 519 3436 956 
Q 3884 1394 3884 2338 
Q 3884 3275 3436 3711 
Q 2988 4147 2022 4147 
L 1259 4147 
z
M 628 4666 
L 1925 4666 
Q 3281 4666 3915 4102 
Q 4550 3538 4550 2338 
Q 4550 1131 3912 565 
Q 3275 0 1925 0 
L 628 0 
L 628 4666 
z
" transform="scale(0.015625)"/>
       <path id="DejaVuSans-61" d="M 2194 1759 
Q 1497 1759 1228 1600 
Q 959 1441 959 1056 
Q 959 750 1161 570 
Q 1363 391 1709 391 
Q 2188 391 2477 730 
Q 2766 1069 2766 1631 
L 2766 1759 
L 2194 1759 
z
M 3341 1997 
L 3341 0 
L 2766 0 
L 2766 531 
Q 2569 213 2275 61 
Q 1981 -91 1556 -91 
Q 1019 -91 701 211 
Q 384 513 384 1019 
Q 384 1609 779 1909 
Q 1175 2209 1959 2209 
L 2766 2209 
L 2766 2266 
Q 2766 2663 2505 2880 
Q 2244 3097 1772 3097 
Q 1472 3097 1187 3025 
Q 903 2953 641 2809 
L 641 3341 
Q 956 3463 1253 3523 
Q 1550 3584 1831 3584 
Q 2591 3584 2966 3190 
Q 3341 2797 3341 1997 
z
" transform="scale(0.015625)"/>
       <path id="DejaVuSans-74" d="M 1172 4494 
L 1172 3500 
L 2356 3500 
L 2356 3053 
L 1172 3053 
L 1172 1153 
Q 1172 725 1289 603 
Q 1406 481 1766 481 
L 2356 481 
L 2356 0 
L 1766 0 
Q 1100 0 847 248 
Q 594 497 594 1153 
L 594 3053 
L 172 3053 
L 172 3500 
L 594 3500 
L 594 4494 
L 1172 4494 
z
" transform="scale(0.015625)"/>
       <path id="DejaVuSans-73" d="M 2834 3397 
L 2834 2853 
Q 2591 2978 2328 3040 
Q 2066 3103 1784 3103 
Q 1356 3103 1142 2972 
Q 928 2841 928 2578 
Q 928 2378 1081 2264 
Q 1234 2150 1697 2047 
L 1894 2003 
Q 2506 1872 2764 1633 
Q 3022 1394 3022 966 
Q 3022 478 2636 193 
Q 2250 -91 1575 -91 
Q 1294 -91 989 -36 
Q 684 19 347 128 
L 347 722 
Q 666 556 975 473 
Q 1284 391 1588 391 
Q 1994 391 2212 530 
Q 2431 669 2431 922 
Q 2431 1156 2273 1281 
Q 2116 1406 1581 1522 
L 1381 1569 
Q 847 1681 609 1914 
Q 372 2147 372 2553 
Q 372 3047 722 3315 
Q 1072 3584 1716 3584 
Q 2034 3584 2315 3537 
Q 2597 3491 2834 3397 
z
" transform="scale(0.015625)"/>
      </defs>
      <use xlink:href="#DejaVuSans-41"/>
      <use xlink:href="#DejaVuSans-6c" x="68.408203"/>
      <use xlink:href="#DejaVuSans-6c" x="96.191406"/>
      <use xlink:href="#DejaVuSans-20" x="123.974609"/>
      <use xlink:href="#DejaVuSans-44" x="155.761719"/>
      <use xlink:href="#DejaVuSans-61" x="232.763672"/>
      <use xlink:href="#DejaVuSans-74" x="294.042969"/>
      <use xlink:href="#DejaVuSans-61" x="333.251953"/>
      <use xlink:href="#DejaVuSans-73" x="394.53125"/>
     </g>
    </g>
   </g>
   <g id="matplotlib.axis_2">
    <g id="ytick_1">
     <g id="line2d_6">
      <defs>
       <path id="mcc9b354e22" d="M 0 0 
L -3.5 0 
" style="stroke: #000000; stroke-width: 0.8"/>
      </defs>
      <g>
       <use xlink:href="#mcc9b354e22" x="57.6" y="304.62909" style="stroke: #000000; stroke-width: 0.8"/>
      </g>
     </g>
     <g id="text_7">
      <!-- −5000 -->
      <g transform="translate(16.770313 308.428309)scale(0.1 -0.1)">
       <defs>
        <path id="DejaVuSans-2212" d="M 678 2272 
L 4684 2272 
L 4684 1741 
L 678 1741 
L 678 2272 
z
" transform="scale(0.015625)"/>
       </defs>
       <use xlink:href="#DejaVuSans-2212"/>
       <use xlink:href="#DejaVuSans-35" x="83.789062"/>
       <use xlink:href="#DejaVuSans-30" x="147.412109"/>
       <use xlink:href="#DejaVuSans-30" x="211.035156"/>
       <use xlink:href="#DejaVuSans-30" x="274.658203"/>
      </g>
     </g>
    </g>
    <g id="ytick_2">
     <g id="line2d_7">
      <g>
       <use xlink:href="#mcc9b354e22" x="57.6" y="275.050734" style="stroke: #000000; stroke-width: 0.8"/>
      </g>
     </g>
     <g id="text_8">
      <!-- 0 -->
      <g transform="translate(44.2375 278.849952)scale(0.1 -0.1)">
       <use xlink:href="#DejaVuSans-30"/>
      </g>
     </g>
    </g>
    <g id="ytick_3">
     <g id="line2d_8">
      <g>
       <use xlink:href="#mcc9b354e22" x="57.6" y="245.472377" style="stroke: #000000; stroke-width: 0.8"/>
      </g>
     </g>
     <g id="text_9">
      <!-- 5000 -->
      <g transform="translate(25.15 249.271596)scale(0.1 -0.1)">
       <use xlink:href="#DejaVuSans-35"/>
       <use xlink:href="#DejaVuSans-30" x="63.623047"/>
       <use xlink:href="#DejaVuSans-30" x="127.246094"/>
       <use xlink:href="#DejaVuSans-30" x="190.869141"/>
      </g>
     </g>
    </g>
    <g id="ytick_4">
     <g id="line2d_9">
      <g>
       <use xlink:href="#mcc9b354e22" x="57.6" y="215.894021" style="stroke: #000000; stroke-width: 0.8"/>
      </g>
     </g>
     <g id="text_10">
      <!-- 10000 -->
      <g transform="translate(18.7875 219.693239)scale(0.1 -0.1)">
       <use xlink:href="#DejaVuSans-31"/>
       <use xlink:href="#DejaVuSans-30" x="63.623047"/>
       <use xlink:href="#DejaVuSans-30" x="127.246094"/>
       <use xlink:href="#DejaVuSans-30" x="190.869141"/>
       <use xlink:href="#DejaVuSans-30" x="254.492188"/>
      </g>
     </g>
    </g>
    <g id="ytick_5">
     <g id="line2d_10">
      <g>
       <use xlink:href="#mcc9b354e22" x="57.6" y="186.315664" style="stroke: #000000; stroke-width: 0.8"/>
      </g>
     </g>
     <g id="text_11">
      <!-- 15000 -->
      <g transform="translate(18.7875 190.114883)scale(0.1 -0.1)">
       <use xlink:href="#DejaVuSans-31"/>
       <use xlink:href="#DejaVuSans-35" x="63.623047"/>
       <use xlink:href="#DejaVuSans-30" x="127.246094"/>
       <use xlink:href="#DejaVuSans-30" x="190.869141"/>
       <use xlink:href="#DejaVuSans-30" x="254.492188"/>
      </g>
     </g>
    </g>
    <g id="ytick_6">
     <g id="line2d_11">
      <g>
       <use xlink:href="#mcc9b354e22" x="57.6" y="156.737308" style="stroke: #000000; stroke-width: 0.8"/>
      </g>
     </g>
     <g id="text_12">
      <!-- 20000 -->
      <g transform="translate(18.7875 160.536526)scale(0.1 -0.1)">
       <use xlink:href="#DejaVuSans-32"/>
       <use xlink:href="#DejaVuSans-30" x="63.623047"/>
       <use xlink:href="#DejaVuSans-30" x="127.246094"/>
       <use xlink:href="#DejaVuSans-30" x="190.869141"/>
       <use xlink:href="#DejaVuSans-30" x="254.492188"/>
      </g>
     </g>
    </g>
    <g id="ytick_7">
     <g id="line2d_12">
      <g>
       <use xlink:href="#mcc9b354e22" x="57.6" y="127.158951" style="stroke: #000000; stroke-width: 0.8"/>
      </g>
     </g>
     <g id="text_13">
      <!-- 25000 -->
      <g transform="translate(18.7875 130.95817)scale(0.1 -0.1)">
       <use xlink:href="#DejaVuSans-32"/>
       <use xlink:href="#DejaVuSans-35" x="63.623047"/>
       <use xlink:href="#DejaVuSans-30" x="127.246094"/>
       <use xlink:href="#DejaVuSans-30" x="190.869141"/>
       <use xlink:href="#DejaVuSans-30" x="254.492188"/>
      </g>
     </g>
    </g>
    <g id="ytick_8">
     <g id="line2d_13">
      <g>
       <use xlink:href="#mcc9b354e22" x="57.6" y="97.580595" style="stroke: #000000; stroke-width: 0.8"/>
      </g>
     </g>
     <g id="text_14">
      <!-- 30000 -->
      <g transform="translate(18.7875 101.379813)scale(0.1 -0.1)">
       <defs>
        <path id="DejaVuSans-33" d="M 2597 2516 
Q 3050 2419 3304 2112 
Q 3559 1806 3559 1356 
Q 3559 666 3084 287 
Q 2609 -91 1734 -91 
Q 1441 -91 1130 -33 
Q 819 25 488 141 
L 488 750 
Q 750 597 1062 519 
Q 1375 441 1716 441 
Q 2309 441 2620 675 
Q 2931 909 2931 1356 
Q 2931 1769 2642 2001 
Q 2353 2234 1838 2234 
L 1294 2234 
L 1294 2753 
L 1863 2753 
Q 2328 2753 2575 2939 
Q 2822 3125 2822 3475 
Q 2822 3834 2567 4026 
Q 2313 4219 1838 4219 
Q 1578 4219 1281 4162 
Q 984 4106 628 3988 
L 628 4550 
Q 988 4650 1302 4700 
Q 1616 4750 1894 4750 
Q 2613 4750 3031 4423 
Q 3450 4097 3450 3541 
Q 3450 3153 3228 2886 
Q 3006 2619 2597 2516 
z
" transform="scale(0.015625)"/>
       </defs>
       <use xlink:href="#DejaVuSans-33"/>
       <use xlink:href="#DejaVuSans-30" x="63.623047"/>
       <use xlink:href="#DejaVuSans-30" x="127.246094"/>
       <use xlink:href="#DejaVuSans-30" x="190.869141"/>
       <use xlink:href="#DejaVuSans-30" x="254.492188"/>
      </g>
     </g>
    </g>
    <g id="ytick_9">
     <g id="line2d_14">
      <g>
       <use xlink:href="#mcc9b354e22" x="57.6" y="68.002238" style="stroke: #000000; stroke-width: 0.8"/>
      </g>
     </g>
     <g id="text_15">
      <!-- 35000 -->
      <g transform="translate(18.7875 71.801457)scale(0.1 -0.1)">
       <use xlink:href="#DejaVuSans-33"/>
       <use xlink:href="#DejaVuSans-35" x="63.623047"/>
       <use xlink:href="#DejaVuSans-30" x="127.246094"/>
       <use xlink:href="#DejaVuSans-30" x="190.869141"/>
       <use xlink:href="#DejaVuSans-30" x="254.492188"/>
      </g>
     </g>
    </g>
    <g id="text_16">
     <!-- Price -->
     <g transform="translate(10.690625 186.725656)rotate(-90)scale(0.1 -0.1)">
      <defs>
       <path id="DejaVuSans-50" d="M 1259 4147 
L 1259 2394 
L 2053 2394 
Q 2494 2394 2734 2622 
Q 2975 2850 2975 3272 
Q 2975 3691 2734 3919 
Q 2494 4147 2053 4147 
L 1259 4147 
z
M 628 4666 
L 2053 4666 
Q 2838 4666 3239 4311 
Q 3641 3956 3641 3272 
Q 3641 2581 3239 2228 
Q 2838 1875 2053 1875 
L 1259 1875 
L 1259 0 
L 628 0 
L 628 4666 
z
" transform="scale(0.015625)"/>
       <path id="DejaVuSans-72" d="M 2631 2963 
Q 2534 3019 2420 3045 
Q 2306 3072 2169 3072 
Q 1681 3072 1420 2755 
Q 1159 2438 1159 1844 
L 1159 0 
L 581 0 
L 581 3500 
L 1159 3500 
L 1159 2956 
Q 1341 3275 1631 3429 
Q 1922 3584 2338 3584 
Q 2397 3584 2469 3576 
Q 2541 3569 2628 3553 
L 2631 2963 
z
" transform="scale(0.015625)"/>
       <path id="DejaVuSans-69" d="M 603 3500 
L 1178 3500 
L 1178 0 
L 603 0 
L 603 3500 
z
M 603 4863 
L 1178 4863 
L 1178 4134 
L 603 4134 
L 603 4863 
z
" transform="scale(0.015625)"/>
       <path id="DejaVuSans-63" d="M 3122 3366 
L 3122 2828 
Q 2878 2963 2633 3030 
Q 2388 3097 2138 3097 
Q 1578 3097 1268 2742 
Q 959 2388 959 1747 
Q 959 1106 1268 751 
Q 1578 397 2138 397 
Q 2388 397 2633 464 
Q 2878 531 3122 666 
L 3122 134 
Q 2881 22 2623 -34 
Q 2366 -91 2075 -91 
Q 1284 -91 818 406 
Q 353 903 353 1747 
Q 353 2603 823 3093 
Q 1294 3584 2113 3584 
Q 2378 3584 2631 3529 
Q 2884 3475 3122 3366 
z
" transform="scale(0.015625)"/>
       <path id="DejaVuSans-65" d="M 3597 1894 
L 3597 1613 
L 953 1613 
Q 991 1019 1311 708 
Q 1631 397 2203 397 
Q 2534 397 2845 478 
Q 3156 559 3463 722 
L 3463 178 
Q 3153 47 2828 -22 
Q 2503 -91 2169 -91 
Q 1331 -91 842 396 
Q 353 884 353 1716 
Q 353 2575 817 3079 
Q 1281 3584 2069 3584 
Q 2775 3584 3186 3129 
Q 3597 2675 3597 1894 
z
M 3022 2063 
Q 3016 2534 2758 2815 
Q 2500 3097 2075 3097 
Q 1594 3097 1305 2825 
Q 1016 2553 972 2059 
L 3022 2063 
z
" transform="scale(0.015625)"/>
      </defs>
      <use xlink:href="#DejaVuSans-50"/>
      <use xlink:href="#DejaVuSans-72" x="58.552734"/>
      <use xlink:href="#DejaVuSans-69" x="99.666016"/>
      <use xlink:href="#DejaVuSans-63" x="127.449219"/>
      <use xlink:href="#DejaVuSans-65" x="182.429688"/>
     </g>
    </g>
   </g>
   <g id="line2d_15">
    <path d="M 73.832727 148.910874 
L 75.208382 147.982114 
L 76.584037 156.346873 
L 77.959692 101.135913 
L 79.335347 139.019872 
L 80.711002 150.851215 
L 82.086656 192.260914 
L 83.462311 171.526486 
L 84.837966 194.60352 
L 86.213621 165.669971 
L 87.589276 162.66481 
L 88.964931 213.291125 
L 90.340586 254.3518 
L 91.71624 150.874877 
L 93.091895 139.019872 
L 94.46755 152.063927 
L 95.843205 189.865067 
L 97.21886 162.682557 
L 98.594515 162.658895 
L 99.970169 144.911881 
L 101.345824 159.428938 
L 102.721479 196.431462 
L 104.097134 73.947488 
L 105.472789 193.41447 
L 106.848444 248.459791 
L 108.224099 140.824152 
L 109.599753 156.737308 
L 110.975408 146.290232 
L 113.726718 167.385516 
L 115.102373 195.195087 
L 116.478028 155.021763 
L 117.853683 180.695776 
L 119.229337 136.038374 
L 120.604992 115.292114 
L 121.980647 76.13037 
L 123.356302 196.194835 
L 124.731957 146.118678 
L 126.107612 165.669971 
L 127.483267 180.429571 
L 128.858921 144.905965 
L 130.234576 194.006037 
L 131.610231 212.995342 
L 132.985886 221.868849 
L 134.361541 153.80905 
L 135.737196 217.088986 
L 137.112851 214.450597 
L 138.488505 184.552794 
L 139.86416 212.936185 
L 141.239815 212.936185 
L 142.61547 144.965122 
L 143.991125 152.034349 
L 145.36678 180.399993 
L 146.742435 181.624537 
L 148.118089 227.873255 
L 149.493744 98.172162 
L 150.869399 156.766886 
L 152.245054 144.935543 
L 153.620709 142.036864 
L 154.996364 175.075889 
L 156.372018 150.833468 
L 157.747673 150.880793 
L 159.123328 144.905965 
L 160.498983 162.682557 
L 161.874638 207.612081 
L 163.250293 209.990181 
L 164.625948 146.727992 
L 166.001602 169.160217 
L 167.377257 156.790549 
L 168.752912 189.303078 
L 171.504222 91.670839 
L 172.879877 162.682557 
L 174.255532 204.074509 
L 175.631186 147.893379 
L 177.006841 86.991543 
L 178.382496 189.332656 
L 179.758151 162.652979 
L 181.133806 162.70622 
L 182.509461 207.032345 
L 183.885116 97.610173 
L 185.26077 103.508097 
L 186.636425 253.192328 
L 189.387735 142.243913 
L 190.76339 156.766886 
L 192.139045 141.954045 
L 193.5147 201.116674 
L 194.890354 144.917796 
L 196.266009 163.859776 
L 197.641664 215.923599 
L 199.017319 186.315664 
L 200.392974 183.653612 
L 201.768629 156.749139 
L 203.144284 133.104201 
L 204.519938 207.020514 
L 205.895593 152.300554 
L 207.271248 156.766886 
L 208.646903 168.598229 
L 210.022558 202.690242 
L 211.398213 149.218489 
L 212.773867 124.201115 
L 214.149522 147.875632 
L 215.525177 204.068594 
L 216.900832 156.808296 
L 218.276487 158.541587 
L 219.652142 151.590674 
L 222.403451 192.243167 
L 223.779106 144.965122 
L 225.154761 212.965763 
L 227.906071 172.17721 
L 229.281726 194.065194 
L 230.657381 205.275391 
L 232.033035 156.766886 
L 233.40869 173.005404 
L 234.784345 201.134421 
L 236.16 164.368524 
L 237.535655 215.982756 
L 238.91131 198.176585 
L 240.286965 162.948762 
L 241.662619 156.914778 
L 243.038274 207.316297 
L 244.413929 152.791555 
L 245.789584 186.924978 
L 247.165239 195.189171 
L 248.540894 163.865691 
L 249.916549 168.56865 
L 251.292203 198.147007 
L 252.667858 209.984265 
L 254.043513 172.739198 
L 255.419168 196.963872 
L 256.794823 150.715154 
L 258.170478 204.092256 
L 259.546133 156.743223 
L 260.921787 228.346509 
L 262.297442 172.739198 
L 263.673097 154.672738 
L 265.048752 144.965122 
L 266.424407 97.580595 
L 267.800062 190.486212 
L 269.175716 160.955181 
L 270.551371 204.092256 
L 271.927026 186.32158 
L 274.678336 68.061395 
L 276.053991 192.379227 
L 277.429646 159.109492 
L 278.8053 159.979095 
L 280.180955 214.704971 
L 281.55661 139.581861 
L 282.932265 198.158838 
L 284.30792 153.217483 
L 285.683575 142.859143 
L 287.05923 103.585001 
L 288.434884 133.695768 
L 289.810539 176.406915 
L 291.186194 209.978349 
L 292.561849 74.213693 
L 293.937504 156.749139 
L 295.313159 183.387407 
L 296.688814 62.352772 
L 298.064468 162.682557 
L 299.440123 157.55367 
L 300.815778 149.685827 
L 302.191433 198.147007 
L 303.567088 144.935543 
L 304.942743 189.279415 
L 306.318398 150.851215 
L 307.694052 152.655494 
L 309.069707 109.707721 
L 310.445362 215.905852 
L 311.821017 160.511506 
L 313.196672 56.230052 
L 314.572327 208.381118 
L 315.947982 192.243167 
L 317.323636 162.682557 
L 318.699291 100.124333 
L 320.074946 203.471111 
L 321.450601 217.195468 
L 322.826256 156.796464 
L 324.201911 180.399993 
L 325.577565 152.058012 
L 326.95322 159.7543 
L 328.328875 156.737308 
L 329.70453 165.622646 
L 331.080185 195.218749 
L 332.45584 147.863801 
L 333.831495 210.037506 
L 335.207149 145.077519 
L 336.582804 152.004771 
L 337.958459 168.580482 
L 339.334114 53.568 
L 340.709769 155.25839 
L 342.085424 198.158838 
L 343.461079 79.863159 
L 344.836733 152.063927 
L 346.212388 201.110758 
L 347.588043 133.133779 
L 348.963698 149.058766 
L 350.339353 194.538447 
L 351.715008 192.260914 
L 353.090663 159.695143 
L 354.466317 251.417627 
L 355.841972 178.65487 
L 357.217627 97.66933 
L 358.593282 169.781363 
L 359.968937 150.821636 
L 361.344592 142.17884 
L 362.720247 195.201002 
L 364.095901 185.138446 
L 365.471556 110.654228 
L 366.847211 94.741072 
L 368.222866 210.007928 
L 369.598521 201.134421 
L 370.974176 156.737308 
L 372.349831 148.484946 
L 375.10114 165.244043 
L 376.476795 147.893379 
L 377.85245 210.007928 
L 379.228105 163.847944 
L 380.60376 242.54412 
L 381.979414 98.154415 
L 383.355069 186.327495 
L 384.730724 156.766886 
L 386.106379 162.682557 
L 387.482034 149.342718 
L 390.233344 182.920069 
L 391.608998 156.737308 
L 392.984653 210.007928 
L 394.360308 100.550262 
L 395.735963 188.681933 
L 397.111618 168.598229 
L 398.487273 189.303078 
L 398.487273 189.303078 
" clip-path="url(#pe69ab43bae)" style="fill: none; stroke: #1f77b4; stroke-width: 1.5; stroke-linecap: square"/>
   </g>
   <g id="line2d_16">
    <path d="M 73.832727 148.212369 
L 75.208382 158.646445 
L 76.584037 158.07654 
L 77.959692 91.265865 
L 79.335347 145.710127 
L 80.711002 175.470295 
L 82.086656 202.727096 
L 83.462311 164.251676 
L 84.837966 193.267383 
L 86.213621 167.753252 
L 87.589276 167.380482 
L 88.964931 213.05053 
L 90.340586 269.697478 
L 91.71624 159.855821 
L 93.091895 139.124566 
L 95.843205 181.524884 
L 97.21886 165.276015 
L 98.594515 162.902438 
L 99.970169 147.632238 
L 101.345824 179.537202 
L 102.721479 191.750962 
L 104.097134 63.074187 
L 105.472789 191.380357 
L 106.848444 272.709944 
L 108.224099 145.068335 
L 109.599753 134.76962 
L 110.975408 144.472409 
L 112.351063 183.669361 
L 113.726718 186.376725 
L 115.102373 168.086264 
L 116.478028 154.583426 
L 117.853683 179.006996 
L 119.229337 128.418995 
L 120.604992 115.448457 
L 121.980647 89.391179 
L 123.356302 198.351159 
L 124.731957 150.527206 
L 126.107612 167.433601 
L 127.483267 178.486126 
L 128.858921 134.213552 
L 130.234576 195.724141 
L 131.610231 223.14662 
L 132.985886 218.204606 
L 134.361541 179.239044 
L 135.737196 210.924114 
L 137.112851 207.554193 
L 138.488505 195.163568 
L 139.86416 214.697281 
L 141.239815 194.803101 
L 142.61547 168.170124 
L 143.991125 155.119361 
L 145.36678 195.222885 
L 146.742435 178.623226 
L 148.118089 230.776738 
L 149.493744 108.457094 
L 150.869399 170.015551 
L 152.245054 148.752161 
L 153.620709 150.879952 
L 154.996364 173.155623 
L 156.372018 168.328121 
L 157.747673 157.997218 
L 159.123328 166.764913 
L 160.498983 155.835206 
L 163.250293 215.296522 
L 164.625948 150.960515 
L 166.001602 168.713811 
L 167.377257 163.306175 
L 168.752912 195.074463 
L 170.128567 149.083172 
L 171.504222 93.497234 
L 172.879877 157.589242 
L 174.255532 204.376042 
L 175.631186 157.411462 
L 177.006841 66.323849 
L 178.382496 158.820372 
L 179.758151 163.745245 
L 181.133806 169.965867 
L 182.509461 205.734778 
L 183.885116 110.75987 
L 185.26077 93.778053 
L 186.636425 273.666165 
L 189.387735 146.279455 
L 190.76339 164.494318 
L 192.139045 143.063635 
L 193.5147 195.326284 
L 194.890354 142.64283 
L 196.266009 175.92836 
L 197.641664 217.926461 
L 199.017319 183.491723 
L 200.392974 178.535917 
L 201.768629 160.21471 
L 203.144284 150.312716 
L 204.519938 197.51272 
L 205.895593 152.965003 
L 207.271248 168.272305 
L 208.646903 170.94815 
L 210.022558 184.40089 
L 211.398213 154.829122 
L 212.773867 122.665459 
L 214.149522 149.289203 
L 215.525177 197.369089 
L 216.900832 157.605575 
L 218.276487 160.342678 
L 219.652142 156.791251 
L 221.027797 184.561741 
L 222.403451 184.513785 
L 223.779106 161.978926 
L 225.154761 199.888572 
L 226.530416 179.710488 
L 227.906071 166.019577 
L 229.281726 196.000668 
L 230.657381 196.016293 
L 232.033035 176.756619 
L 233.40869 186.137174 
L 234.784345 177.07168 
L 236.16 173.844858 
L 237.535655 206.597464 
L 238.91131 213.530112 
L 240.286965 164.475624 
L 241.662619 171.79321 
L 243.038274 205.608602 
L 244.413929 152.458089 
L 245.789584 180.742862 
L 247.165239 190.178171 
L 248.540894 183.82534 
L 249.916549 169.461822 
L 251.292203 197.701353 
L 252.667858 203.662132 
L 254.043513 175.076664 
L 255.419168 162.147053 
L 256.794823 187.780073 
L 258.170478 197.77574 
L 259.546133 186.367956 
L 260.921787 216.592884 
L 262.297442 179.365444 
L 263.673097 149.281035 
L 265.048752 143.692028 
L 266.424407 91.953737 
L 267.800062 190.191394 
L 269.175716 178.486511 
L 270.551371 189.834667 
L 271.927026 192.641464 
L 274.678336 84.642484 
L 276.053991 199.118801 
L 277.429646 174.971173 
L 278.8053 164.918686 
L 280.180955 204.258539 
L 281.55661 143.948487 
L 282.932265 187.767751 
L 284.30792 165.455021 
L 285.683575 108.930557 
L 287.05923 104.750053 
L 288.434884 148.177899 
L 289.810539 178.479237 
L 291.186194 216.636312 
L 292.561849 93.446581 
L 293.937504 143.579268 
L 295.313159 184.311926 
L 296.688814 80.126288 
L 298.064468 172.708726 
L 299.440123 167.090831 
L 300.815778 150.986982 
L 302.191433 180.692739 
L 303.567088 158.807611 
L 304.942743 190.224931 
L 306.318398 160.674818 
L 307.694052 166.801826 
L 309.069707 93.241617 
L 310.445362 209.42359 
L 311.821017 183.458128 
L 313.196672 88.983765 
L 314.572327 212.221089 
L 315.947982 191.073278 
L 317.323636 159.345214 
L 318.699291 87.541135 
L 320.074946 196.10905 
L 321.450601 218.180113 
L 322.826256 147.310255 
L 324.201911 180.990357 
L 325.577565 163.848142 
L 326.95322 169.208036 
L 328.328875 146.778784 
L 329.70453 168.552111 
L 331.080185 195.008555 
L 332.45584 144.806207 
L 333.831495 215.270647 
L 335.207149 155.892562 
L 336.582804 167.179255 
L 337.958459 184.742966 
L 339.334114 76.712738 
L 340.709769 166.613883 
L 342.085424 205.061674 
L 343.461079 89.020077 
L 344.836733 160.530549 
L 346.212388 186.407387 
L 347.588043 152.664485 
L 348.963698 146.621568 
L 350.339353 186.086089 
L 351.715008 191.664796 
L 353.090663 177.65693 
L 354.466317 295.488 
L 355.841972 180.117221 
L 357.217627 96.673852 
L 358.593282 173.748993 
L 361.344592 144.927146 
L 362.720247 190.22327 
L 364.095901 198.320143 
L 365.471556 104.117033 
L 366.847211 89.231348 
L 368.222866 197.203025 
L 369.598521 214.378235 
L 370.974176 147.216031 
L 372.349831 171.193382 
L 373.725485 149.557445 
L 375.10114 179.63143 
L 376.476795 153.66967 
L 377.85245 209.099967 
L 379.228105 162.896988 
L 380.60376 289.515882 
L 381.979414 89.951863 
L 383.355069 192.14425 
L 384.730724 157.124478 
L 386.106379 168.52714 
L 387.482034 157.684324 
L 388.857689 175.504339 
L 390.233344 179.715114 
L 391.608998 157.031235 
L 392.984653 197.487299 
L 394.360308 94.683061 
L 395.735963 180.822365 
L 397.111618 180.453982 
L 398.487273 198.393682 
L 398.487273 198.393682 
" clip-path="url(#pe69ab43bae)" style="fill: none; stroke: #ff7f0e; stroke-width: 1.5; stroke-linecap: square"/>
   </g>
   <g id="patch_3">
    <path d="M 57.6 307.584 
L 57.6 41.472 
" style="fill: none; stroke: #000000; stroke-width: 0.8; stroke-linejoin: miter; stroke-linecap: square"/>
   </g>
   <g id="patch_4">
    <path d="M 414.72 307.584 
L 414.72 41.472 
" style="fill: none; stroke: #000000; stroke-width: 0.8; stroke-linejoin: miter; stroke-linecap: square"/>
   </g>
   <g id="patch_5">
    <path d="M 57.6 307.584 
L 414.72 307.584 
" style="fill: none; stroke: #000000; stroke-width: 0.8; stroke-linejoin: miter; stroke-linecap: square"/>
   </g>
   <g id="patch_6">
    <path d="M 57.6 41.472 
L 414.72 41.472 
" style="fill: none; stroke: #000000; stroke-width: 0.8; stroke-linejoin: miter; stroke-linecap: square"/>
   </g>
   <g id="text_17">
    <!-- RAV4 -->
    <g transform="translate(220.587187 35.472)scale(0.12 -0.12)">
     <defs>
      <path id="DejaVuSans-52" d="M 2841 2188 
Q 3044 2119 3236 1894 
Q 3428 1669 3622 1275 
L 4263 0 
L 3584 0 
L 2988 1197 
Q 2756 1666 2539 1819 
Q 2322 1972 1947 1972 
L 1259 1972 
L 1259 0 
L 628 0 
L 628 4666 
L 2053 4666 
Q 2853 4666 3247 4331 
Q 3641 3997 3641 3322 
Q 3641 2881 3436 2590 
Q 3231 2300 2841 2188 
z
M 1259 4147 
L 1259 2491 
L 2053 2491 
Q 2509 2491 2742 2702 
Q 2975 2913 2975 3322 
Q 2975 3731 2742 3939 
Q 2509 4147 2053 4147 
L 1259 4147 
z
" transform="scale(0.015625)"/>
      <path id="DejaVuSans-56" d="M 1831 0 
L 50 4666 
L 709 4666 
L 2188 738 
L 3669 4666 
L 4325 4666 
L 2547 0 
L 1831 0 
z
" transform="scale(0.015625)"/>
      <path id="DejaVuSans-34" d="M 2419 4116 
L 825 1625 
L 2419 1625 
L 2419 4116 
z
M 2253 4666 
L 3047 4666 
L 3047 1625 
L 3713 1625 
L 3713 1100 
L 3047 1100 
L 3047 0 
L 2419 0 
L 2419 1100 
L 313 1100 
L 313 1709 
L 2253 4666 
z
" transform="scale(0.015625)"/>
     </defs>
     <use xlink:href="#DejaVuSans-52"/>
     <use xlink:href="#DejaVuSans-41" x="65.482422"/>
     <use xlink:href="#DejaVuSans-56" x="127.515625"/>
     <use xlink:href="#DejaVuSans-34" x="195.923828"/>
    </g>
   </g>
  </g>
 </g>
 <defs>
  <clipPath id="pe69ab43bae">
   <rect x="57.6" y="41.472" width="357.12" height="266.112"/>
  </clipPath>
 </defs>
</svg>
