<?xml version="1.0" encoding="utf-8" standalone="no"?>
<!DOCTYPE svg PUBLIC "-//W3C//DTD SVG 1.1//EN"
  "http://www.w3.org/Graphics/SVG/1.1/DTD/svg11.dtd">
<svg xmlns:xlink="http://www.w3.org/1999/xlink" width="460.8pt" height="345.6pt" viewBox="0 0 460.8 345.6" xmlns="http://www.w3.org/2000/svg" version="1.1">
 <metadata>
  <rdf:RDF xmlns:dc="http://purl.org/dc/elements/1.1/" xmlns:cc="http://creativecommons.org/ns#" xmlns:rdf="http://www.w3.org/1999/02/22-rdf-syntax-ns#">
   <cc:Work>
    <dc:type rdf:resource="http://purl.org/dc/dcmitype/StillImage"/>
    <dc:date>2023-07-13T13:31:39.145953</dc:date>
    <dc:format>image/svg+xml</dc:format>
    <dc:creator>
     <cc:Agent>
      <dc:title>Matplotlib v3.5.1, https://matplotlib.org/</dc:title>
     </cc:Agent>
    </dc:creator>
   </cc:Work>
  </rdf:RDF>
 </metadata>
 <defs>
  <style type="text/css">*{stroke-linejoin: round; stroke-linecap: butt}</style>
 </defs>
 <g id="figure_1">
  <g id="patch_1">
   <path d="M 0 345.6 
L 460.8 345.6 
L 460.8 0 
L 0 0 
z
" style="fill: #ffffff"/>
  </g>
  <g id="axes_1">
   <g id="patch_2">
    <path d="M 57.6 307.584 
L 414.72 307.584 
L 414.72 41.472 
L 57.6 41.472 
z
" style="fill: #ffffff"/>
   </g>
   <g id="matplotlib.axis_1">
    <g id="xtick_1">
     <g id="line2d_1">
      <defs>
       <path id="ma5157e77e8" d="M 0 0 
L 0 3.5 
" style="stroke: #000000; stroke-width: 0.8"/>
      </defs>
      <g>
       <use xlink:href="#ma5157e77e8" x="73.832727" y="307.584" style="stroke: #000000; stroke-width: 0.8"/>
      </g>
     </g>
     <g id="text_1">
      <!-- 0 -->
      <g transform="translate(70.651477 322.182437)scale(0.1 -0.1)">
       <defs>
        <path id="DejaVuSans-30" d="M 2034 4250 
Q 1547 4250 1301 3770 
Q 1056 3291 1056 2328 
Q 1056 1369 1301 889 
Q 1547 409 2034 409 
Q 2525 409 2770 889 
Q 3016 1369 3016 2328 
Q 3016 3291 2770 3770 
Q 2525 4250 2034 4250 
z
M 2034 4750 
Q 2819 4750 3233 4129 
Q 3647 3509 3647 2328 
Q 3647 1150 3233 529 
Q 2819 -91 2034 -91 
Q 1250 -91 836 529 
Q 422 1150 422 2328 
Q 422 3509 836 4129 
Q 1250 4750 2034 4750 
z
" transform="scale(0.015625)"/>
       </defs>
       <use xlink:href="#DejaVuSans-30"/>
      </g>
     </g>
    </g>
    <g id="xtick_2">
     <g id="line2d_2">
      <g>
       <use xlink:href="#ma5157e77e8" x="141.752088" y="307.584" style="stroke: #000000; stroke-width: 0.8"/>
      </g>
     </g>
     <g id="text_2">
      <!-- 50 -->
      <g transform="translate(135.389588 322.182437)scale(0.1 -0.1)">
       <defs>
        <path id="DejaVuSans-35" d="M 691 4666 
L 3169 4666 
L 3169 4134 
L 1269 4134 
L 1269 2991 
Q 1406 3038 1543 3061 
Q 1681 3084 1819 3084 
Q 2600 3084 3056 2656 
Q 3513 2228 3513 1497 
Q 3513 744 3044 326 
Q 2575 -91 1722 -91 
Q 1428 -91 1123 -41 
Q 819 9 494 109 
L 494 744 
Q 775 591 1075 516 
Q 1375 441 1709 441 
Q 2250 441 2565 725 
Q 2881 1009 2881 1497 
Q 2881 1984 2565 2268 
Q 2250 2553 1709 2553 
Q 1456 2553 1204 2497 
Q 953 2441 691 2322 
L 691 4666 
z
" transform="scale(0.015625)"/>
       </defs>
       <use xlink:href="#DejaVuSans-35"/>
       <use xlink:href="#DejaVuSans-30" x="63.623047"/>
      </g>
     </g>
    </g>
    <g id="xtick_3">
     <g id="line2d_3">
      <g>
       <use xlink:href="#ma5157e77e8" x="209.671449" y="307.584" style="stroke: #000000; stroke-width: 0.8"/>
      </g>
     </g>
     <g id="text_3">
      <!-- 100 -->
      <g transform="translate(200.127699 322.182437)scale(0.1 -0.1)">
       <defs>
        <path id="DejaVuSans-31" d="M 794 531 
L 1825 531 
L 1825 4091 
L 703 3866 
L 703 4441 
L 1819 4666 
L 2450 4666 
L 2450 531 
L 3481 531 
L 3481 0 
L 794 0 
L 794 531 
z
" transform="scale(0.015625)"/>
       </defs>
       <use xlink:href="#DejaVuSans-31"/>
       <use xlink:href="#DejaVuSans-30" x="63.623047"/>
       <use xlink:href="#DejaVuSans-30" x="127.246094"/>
      </g>
     </g>
    </g>
    <g id="xtick_4">
     <g id="line2d_4">
      <g>
       <use xlink:href="#ma5157e77e8" x="277.59081" y="307.584" style="stroke: #000000; stroke-width: 0.8"/>
      </g>
     </g>
     <g id="text_4">
      <!-- 150 -->
      <g transform="translate(268.04706 322.182437)scale(0.1 -0.1)">
       <use xlink:href="#DejaVuSans-31"/>
       <use xlink:href="#DejaVuSans-35" x="63.623047"/>
       <use xlink:href="#DejaVuSans-30" x="127.246094"/>
      </g>
     </g>
    </g>
    <g id="xtick_5">
     <g id="line2d_5">
      <g>
       <use xlink:href="#ma5157e77e8" x="345.510171" y="307.584" style="stroke: #000000; stroke-width: 0.8"/>
      </g>
     </g>
     <g id="text_5">
      <!-- 200 -->
      <g transform="translate(335.966421 322.182437)scale(0.1 -0.1)">
       <defs>
        <path id="DejaVuSans-32" d="M 1228 531 
L 3431 531 
L 3431 0 
L 469 0 
L 469 531 
Q 828 903 1448 1529 
Q 2069 2156 2228 2338 
Q 2531 2678 2651 2914 
Q 2772 3150 2772 3378 
Q 2772 3750 2511 3984 
Q 2250 4219 1831 4219 
Q 1534 4219 1204 4116 
Q 875 4013 500 3803 
L 500 4441 
Q 881 4594 1212 4672 
Q 1544 4750 1819 4750 
Q 2544 4750 2975 4387 
Q 3406 4025 3406 3419 
Q 3406 3131 3298 2873 
Q 3191 2616 2906 2266 
Q 2828 2175 2409 1742 
Q 1991 1309 1228 531 
z
" transform="scale(0.015625)"/>
       </defs>
       <use xlink:href="#DejaVuSans-32"/>
       <use xlink:href="#DejaVuSans-30" x="63.623047"/>
       <use xlink:href="#DejaVuSans-30" x="127.246094"/>
      </g>
     </g>
    </g>
    <g id="xtick_6">
     <g id="line2d_6">
      <g>
       <use xlink:href="#ma5157e77e8" x="413.429532" y="307.584" style="stroke: #000000; stroke-width: 0.8"/>
      </g>
     </g>
     <g id="text_6">
      <!-- 250 -->
      <g transform="translate(403.885782 322.182437)scale(0.1 -0.1)">
       <use xlink:href="#DejaVuSans-32"/>
       <use xlink:href="#DejaVuSans-35" x="63.623047"/>
       <use xlink:href="#DejaVuSans-30" x="127.246094"/>
      </g>
     </g>
    </g>
    <g id="text_7">
     <!-- All Datas -->
     <g transform="translate(213.829531 335.860562)scale(0.1 -0.1)">
      <defs>
       <path id="DejaVuSans-41" d="M 2188 4044 
L 1331 1722 
L 3047 1722 
L 2188 4044 
z
M 1831 4666 
L 2547 4666 
L 4325 0 
L 3669 0 
L 3244 1197 
L 1141 1197 
L 716 0 
L 50 0 
L 1831 4666 
z
" transform="scale(0.015625)"/>
       <path id="DejaVuSans-6c" d="M 603 4863 
L 1178 4863 
L 1178 0 
L 603 0 
L 603 4863 
z
" transform="scale(0.015625)"/>
       <path id="DejaVuSans-20" transform="scale(0.015625)"/>
       <path id="DejaVuSans-44" d="M 1259 4147 
L 1259 519 
L 2022 519 
Q 2988 519 3436 956 
Q 3884 1394 3884 2338 
Q 3884 3275 3436 3711 
Q 2988 4147 2022 4147 
L 1259 4147 
z
M 628 4666 
L 1925 4666 
Q 3281 4666 3915 4102 
Q 4550 3538 4550 2338 
Q 4550 1131 3912 565 
Q 3275 0 1925 0 
L 628 0 
L 628 4666 
z
" transform="scale(0.015625)"/>
       <path id="DejaVuSans-61" d="M 2194 1759 
Q 1497 1759 1228 1600 
Q 959 1441 959 1056 
Q 959 750 1161 570 
Q 1363 391 1709 391 
Q 2188 391 2477 730 
Q 2766 1069 2766 1631 
L 2766 1759 
L 2194 1759 
z
M 3341 1997 
L 3341 0 
L 2766 0 
L 2766 531 
Q 2569 213 2275 61 
Q 1981 -91 1556 -91 
Q 1019 -91 701 211 
Q 384 513 384 1019 
Q 384 1609 779 1909 
Q 1175 2209 1959 2209 
L 2766 2209 
L 2766 2266 
Q 2766 2663 2505 2880 
Q 2244 3097 1772 3097 
Q 1472 3097 1187 3025 
Q 903 2953 641 2809 
L 641 3341 
Q 956 3463 1253 3523 
Q 1550 3584 1831 3584 
Q 2591 3584 2966 3190 
Q 3341 2797 3341 1997 
z
" transform="scale(0.015625)"/>
       <path id="DejaVuSans-74" d="M 1172 4494 
L 1172 3500 
L 2356 3500 
L 2356 3053 
L 1172 3053 
L 1172 1153 
Q 1172 725 1289 603 
Q 1406 481 1766 481 
L 2356 481 
L 2356 0 
L 1766 0 
Q 1100 0 847 248 
Q 594 497 594 1153 
L 594 3053 
L 172 3053 
L 172 3500 
L 594 3500 
L 594 4494 
L 1172 4494 
z
" transform="scale(0.015625)"/>
       <path id="DejaVuSans-73" d="M 2834 3397 
L 2834 2853 
Q 2591 2978 2328 3040 
Q 2066 3103 1784 3103 
Q 1356 3103 1142 2972 
Q 928 2841 928 2578 
Q 928 2378 1081 2264 
Q 1234 2150 1697 2047 
L 1894 2003 
Q 2506 1872 2764 1633 
Q 3022 1394 3022 966 
Q 3022 478 2636 193 
Q 2250 -91 1575 -91 
Q 1294 -91 989 -36 
Q 684 19 347 128 
L 347 722 
Q 666 556 975 473 
Q 1284 391 1588 391 
Q 1994 391 2212 530 
Q 2431 669 2431 922 
Q 2431 1156 2273 1281 
Q 2116 1406 1581 1522 
L 1381 1569 
Q 847 1681 609 1914 
Q 372 2147 372 2553 
Q 372 3047 722 3315 
Q 1072 3584 1716 3584 
Q 2034 3584 2315 3537 
Q 2597 3491 2834 3397 
z
" transform="scale(0.015625)"/>
      </defs>
      <use xlink:href="#DejaVuSans-41"/>
      <use xlink:href="#DejaVuSans-6c" x="68.408203"/>
      <use xlink:href="#DejaVuSans-6c" x="96.191406"/>
      <use xlink:href="#DejaVuSans-20" x="123.974609"/>
      <use xlink:href="#DejaVuSans-44" x="155.761719"/>
      <use xlink:href="#DejaVuSans-61" x="232.763672"/>
      <use xlink:href="#DejaVuSans-74" x="294.042969"/>
      <use xlink:href="#DejaVuSans-61" x="333.251953"/>
      <use xlink:href="#DejaVuSans-73" x="394.53125"/>
     </g>
    </g>
   </g>
   <g id="matplotlib.axis_2">
    <g id="ytick_1">
     <g id="line2d_7">
      <defs>
       <path id="m7c420990de" d="M 0 0 
L -3.5 0 
" style="stroke: #000000; stroke-width: 0.8"/>
      </defs>
      <g>
       <use xlink:href="#m7c420990de" x="57.6" y="300.004828" style="stroke: #000000; stroke-width: 0.8"/>
      </g>
     </g>
     <g id="text_8">
      <!-- 0 -->
      <g transform="translate(44.2375 303.804047)scale(0.1 -0.1)">
       <use xlink:href="#DejaVuSans-30"/>
      </g>
     </g>
    </g>
    <g id="ytick_2">
     <g id="line2d_8">
      <g>
       <use xlink:href="#m7c420990de" x="57.6" y="258.079543" style="stroke: #000000; stroke-width: 0.8"/>
      </g>
     </g>
     <g id="text_9">
      <!-- 5000 -->
      <g transform="translate(25.15 261.878761)scale(0.1 -0.1)">
       <use xlink:href="#DejaVuSans-35"/>
       <use xlink:href="#DejaVuSans-30" x="63.623047"/>
       <use xlink:href="#DejaVuSans-30" x="127.246094"/>
       <use xlink:href="#DejaVuSans-30" x="190.869141"/>
      </g>
     </g>
    </g>
    <g id="ytick_3">
     <g id="line2d_9">
      <g>
       <use xlink:href="#m7c420990de" x="57.6" y="216.154257" style="stroke: #000000; stroke-width: 0.8"/>
      </g>
     </g>
     <g id="text_10">
      <!-- 10000 -->
      <g transform="translate(18.7875 219.953476)scale(0.1 -0.1)">
       <use xlink:href="#DejaVuSans-31"/>
       <use xlink:href="#DejaVuSans-30" x="63.623047"/>
       <use xlink:href="#DejaVuSans-30" x="127.246094"/>
       <use xlink:href="#DejaVuSans-30" x="190.869141"/>
       <use xlink:href="#DejaVuSans-30" x="254.492188"/>
      </g>
     </g>
    </g>
    <g id="ytick_4">
     <g id="line2d_10">
      <g>
       <use xlink:href="#m7c420990de" x="57.6" y="174.228972" style="stroke: #000000; stroke-width: 0.8"/>
      </g>
     </g>
     <g id="text_11">
      <!-- 15000 -->
      <g transform="translate(18.7875 178.02819)scale(0.1 -0.1)">
       <use xlink:href="#DejaVuSans-31"/>
       <use xlink:href="#DejaVuSans-35" x="63.623047"/>
       <use xlink:href="#DejaVuSans-30" x="127.246094"/>
       <use xlink:href="#DejaVuSans-30" x="190.869141"/>
       <use xlink:href="#DejaVuSans-30" x="254.492188"/>
      </g>
     </g>
    </g>
    <g id="ytick_5">
     <g id="line2d_11">
      <g>
       <use xlink:href="#m7c420990de" x="57.6" y="132.303686" style="stroke: #000000; stroke-width: 0.8"/>
      </g>
     </g>
     <g id="text_12">
      <!-- 20000 -->
      <g transform="translate(18.7875 136.102905)scale(0.1 -0.1)">
       <use xlink:href="#DejaVuSans-32"/>
       <use xlink:href="#DejaVuSans-30" x="63.623047"/>
       <use xlink:href="#DejaVuSans-30" x="127.246094"/>
       <use xlink:href="#DejaVuSans-30" x="190.869141"/>
       <use xlink:href="#DejaVuSans-30" x="254.492188"/>
      </g>
     </g>
    </g>
    <g id="ytick_6">
     <g id="line2d_12">
      <g>
       <use xlink:href="#m7c420990de" x="57.6" y="90.378401" style="stroke: #000000; stroke-width: 0.8"/>
      </g>
     </g>
     <g id="text_13">
      <!-- 25000 -->
      <g transform="translate(18.7875 94.177619)scale(0.1 -0.1)">
       <use xlink:href="#DejaVuSans-32"/>
       <use xlink:href="#DejaVuSans-35" x="63.623047"/>
       <use xlink:href="#DejaVuSans-30" x="127.246094"/>
       <use xlink:href="#DejaVuSans-30" x="190.869141"/>
       <use xlink:href="#DejaVuSans-30" x="254.492188"/>
      </g>
     </g>
    </g>
    <g id="ytick_7">
     <g id="line2d_13">
      <g>
       <use xlink:href="#m7c420990de" x="57.6" y="48.453115" style="stroke: #000000; stroke-width: 0.8"/>
      </g>
     </g>
     <g id="text_14">
      <!-- 30000 -->
      <g transform="translate(18.7875 52.252334)scale(0.1 -0.1)">
       <defs>
        <path id="DejaVuSans-33" d="M 2597 2516 
Q 3050 2419 3304 2112 
Q 3559 1806 3559 1356 
Q 3559 666 3084 287 
Q 2609 -91 1734 -91 
Q 1441 -91 1130 -33 
Q 819 25 488 141 
L 488 750 
Q 750 597 1062 519 
Q 1375 441 1716 441 
Q 2309 441 2620 675 
Q 2931 909 2931 1356 
Q 2931 1769 2642 2001 
Q 2353 2234 1838 2234 
L 1294 2234 
L 1294 2753 
L 1863 2753 
Q 2328 2753 2575 2939 
Q 2822 3125 2822 3475 
Q 2822 3834 2567 4026 
Q 2313 4219 1838 4219 
Q 1578 4219 1281 4162 
Q 984 4106 628 3988 
L 628 4550 
Q 988 4650 1302 4700 
Q 1616 4750 1894 4750 
Q 2613 4750 3031 4423 
Q 3450 4097 3450 3541 
Q 3450 3153 3228 2886 
Q 3006 2619 2597 2516 
z
" transform="scale(0.015625)"/>
       </defs>
       <use xlink:href="#DejaVuSans-33"/>
       <use xlink:href="#DejaVuSans-30" x="63.623047"/>
       <use xlink:href="#DejaVuSans-30" x="127.246094"/>
       <use xlink:href="#DejaVuSans-30" x="190.869141"/>
       <use xlink:href="#DejaVuSans-30" x="254.492188"/>
      </g>
     </g>
    </g>
    <g id="text_15">
     <!-- Price -->
     <g transform="translate(12.707813 186.725656)rotate(-90)scale(0.1 -0.1)">
      <defs>
       <path id="DejaVuSans-50" d="M 1259 4147 
L 1259 2394 
L 2053 2394 
Q 2494 2394 2734 2622 
Q 2975 2850 2975 3272 
Q 2975 3691 2734 3919 
Q 2494 4147 2053 4147 
L 1259 4147 
z
M 628 4666 
L 2053 4666 
Q 2838 4666 3239 4311 
Q 3641 3956 3641 3272 
Q 3641 2581 3239 2228 
Q 2838 1875 2053 1875 
L 1259 1875 
L 1259 0 
L 628 0 
L 628 4666 
z
" transform="scale(0.015625)"/>
       <path id="DejaVuSans-72" d="M 2631 2963 
Q 2534 3019 2420 3045 
Q 2306 3072 2169 3072 
Q 1681 3072 1420 2755 
Q 1159 2438 1159 1844 
L 1159 0 
L 581 0 
L 581 3500 
L 1159 3500 
L 1159 2956 
Q 1341 3275 1631 3429 
Q 1922 3584 2338 3584 
Q 2397 3584 2469 3576 
Q 2541 3569 2628 3553 
L 2631 2963 
z
" transform="scale(0.015625)"/>
       <path id="DejaVuSans-69" d="M 603 3500 
L 1178 3500 
L 1178 0 
L 603 0 
L 603 3500 
z
M 603 4863 
L 1178 4863 
L 1178 4134 
L 603 4134 
L 603 4863 
z
" transform="scale(0.015625)"/>
       <path id="DejaVuSans-63" d="M 3122 3366 
L 3122 2828 
Q 2878 2963 2633 3030 
Q 2388 3097 2138 3097 
Q 1578 3097 1268 2742 
Q 959 2388 959 1747 
Q 959 1106 1268 751 
Q 1578 397 2138 397 
Q 2388 397 2633 464 
Q 2878 531 3122 666 
L 3122 134 
Q 2881 22 2623 -34 
Q 2366 -91 2075 -91 
Q 1284 -91 818 406 
Q 353 903 353 1747 
Q 353 2603 823 3093 
Q 1294 3584 2113 3584 
Q 2378 3584 2631 3529 
Q 2884 3475 3122 3366 
z
" transform="scale(0.015625)"/>
       <path id="DejaVuSans-65" d="M 3597 1894 
L 3597 1613 
L 953 1613 
Q 991 1019 1311 708 
Q 1631 397 2203 397 
Q 2534 397 2845 478 
Q 3156 559 3463 722 
L 3463 178 
Q 3153 47 2828 -22 
Q 2503 -91 2169 -91 
Q 1331 -91 842 396 
Q 353 884 353 1716 
Q 353 2575 817 3079 
Q 1281 3584 2069 3584 
Q 2775 3584 3186 3129 
Q 3597 2675 3597 1894 
z
M 3022 2063 
Q 3016 2534 2758 2815 
Q 2500 3097 2075 3097 
Q 1594 3097 1305 2825 
Q 1016 2553 972 2059 
L 3022 2063 
z
" transform="scale(0.015625)"/>
      </defs>
      <use xlink:href="#DejaVuSans-50"/>
      <use xlink:href="#DejaVuSans-72" x="58.552734"/>
      <use xlink:href="#DejaVuSans-69" x="99.666016"/>
      <use xlink:href="#DejaVuSans-63" x="127.449219"/>
      <use xlink:href="#DejaVuSans-65" x="182.429688"/>
     </g>
    </g>
   </g>
   <g id="line2d_14">
    <path d="M 73.832727 116.472698 
L 75.191114 111.382969 
L 76.549502 137.418571 
L 77.907889 157.475628 
L 79.266276 139.640611 
L 80.624663 170.078368 
L 81.983051 173.130529 
L 83.341438 119.768026 
L 84.699825 115.575497 
L 86.058212 160.04984 
L 87.416599 159.538352 
L 88.774987 132.722939 
L 90.133374 139.011732 
L 91.491761 123.960554 
L 92.850148 149.09057 
L 94.208536 107.19044 
L 95.566923 126.517997 
L 96.92531 82.068809 
L 98.283697 115.701273 
L 99.642084 111.357814 
L 101.000472 128.153083 
L 102.358859 132.722939 
L 103.717246 79.897079 
L 105.075633 75.360763 
L 106.434021 102.536733 
L 107.792408 187.22581 
L 109.150795 132.345611 
L 110.509182 165.340811 
L 111.867569 128.53041 
L 113.225957 165.91938 
L 114.584344 115.533572 
L 115.942731 165.860685 
L 117.301118 149.157651 
L 118.659506 90.395171 
L 120.017893 132.320456 
L 121.37628 123.960554 
L 122.734667 123.960554 
L 124.093054 56.922023 
L 125.451442 153.283099 
L 126.809829 119.809951 
L 128.168216 108.926147 
L 129.526603 56.846557 
L 130.88499 107.148515 
L 132.243378 102.955986 
L 133.601765 140.730669 
L 134.960152 66.061735 
L 136.318539 111.760296 
L 137.676927 132.404307 
L 139.035314 126.476071 
L 140.393701 128.236933 
L 141.752088 115.952825 
L 143.110475 84.508861 
L 144.468863 115.575497 
L 145.82725 114.736992 
L 147.185637 115.541957 
L 148.544024 128.153083 
L 149.902412 133.854922 
L 151.260799 121.86429 
L 152.619186 173.306615 
L 153.977573 174.270897 
L 155.33596 123.960554 
L 156.694348 140.730669 
L 158.052735 144.042766 
L 159.411122 144.965122 
L 160.769509 115.575497 
L 162.127897 133.133807 
L 163.486284 149.157651 
L 166.203058 108.867452 
L 167.561445 112.2634 
L 168.919833 90.378401 
L 170.27822 140.705513 
L 171.636607 128.203393 
L 172.994994 138.634404 
L 174.353382 151.631243 
L 175.711769 132.597163 
L 177.070156 153.308254 
L 178.428543 118.065859 
L 179.78693 112.2634 
L 181.145318 115.575497 
L 182.503705 149.09057 
L 183.862092 115.575497 
L 185.220479 165.8523 
L 186.578866 149.149266 
L 187.937254 144.898042 
L 189.295641 162.070639 
L 190.654028 115.533572 
L 192.012415 128.320784 
L 193.370803 98.805383 
L 194.72919 155.102656 
L 196.087577 132.722939 
L 197.445964 127.482278 
L 198.804351 149.115726 
L 200.162739 87.904809 
L 201.521126 123.960554 
L 202.879513 174.228972 
L 204.2379 71.134695 
L 205.596288 150.859818 
L 206.954675 111.341043 
L 208.313062 115.609037 
L 209.671449 132.471387 
L 211.029836 153.283099 
L 212.388224 87.946734 
L 213.746611 53.568 
L 215.104998 157.458857 
L 216.463385 115.617423 
L 217.821773 87.820958 
L 219.18016 132.387537 
L 220.538547 161.659771 
L 221.896934 126.014893 
L 223.255321 149.954231 
L 224.613709 168.401357 
L 225.972096 153.283099 
L 227.330483 82.035269 
L 228.68887 175.914368 
L 230.047258 162.30542 
L 231.405645 119.801566 
L 232.764032 82.068809 
L 234.122419 129.24314 
L 235.480806 161.651386 
L 236.839194 174.270897 
L 238.197581 119.768026 
L 239.555968 182.655954 
L 240.914355 111.760296 
L 242.272742 132.387537 
L 243.63113 115.99475 
L 244.989517 126.434146 
L 246.347904 178.4215 
L 247.706291 98.805383 
L 249.064679 119.801566 
L 250.423066 103.375239 
L 251.781453 171.294202 
L 253.13984 149.157651 
L 254.498227 149.115726 
L 255.856615 115.575497 
L 257.215002 115.743198 
L 258.573389 84.550786 
L 259.931776 56.913638 
L 261.290164 98.780228 
L 262.648551 149.09057 
L 264.006938 157.475628 
L 265.365325 100.901647 
L 266.723712 87.904809 
L 268.0821 138.189996 
L 269.440487 132.345611 
L 270.798874 100.52432 
L 272.157261 129.025129 
L 273.515649 111.341043 
L 274.874036 130.6686 
L 276.232423 119.768026 
L 278.949197 102.972756 
L 280.307585 107.1569 
L 281.665972 61.072626 
L 283.024359 94.612855 
L 284.382746 157.542708 
L 285.741134 93.774349 
L 287.099521 126.517997 
L 288.457908 98.838923 
L 289.816295 82.010114 
L 291.174682 73.650212 
L 293.891457 149.09057 
L 295.249844 133.133807 
L 296.608231 123.239439 
L 297.966618 115.575497 
L 299.325006 168.971541 
L 300.683393 174.270897 
L 302.04178 154.11322 
L 303.400167 151.589318 
L 304.758555 175.914368 
L 306.116942 107.165285 
L 307.475329 123.960554 
L 308.833716 123.960554 
L 310.192103 128.127928 
L 311.550491 111.424894 
L 312.908878 115.575497 
L 314.267265 182.655954 
L 315.625652 140.705513 
L 316.98404 136.823232 
L 318.342427 90.462251 
L 319.700814 89.003251 
L 321.059201 132.328841 
L 322.417588 107.19044 
L 323.775976 167.604777 
L 325.134363 117.629836 
L 326.49275 134.835973 
L 327.851137 125.671106 
L 329.209525 123.960554 
L 330.567912 144.965122 
L 331.926299 119.441009 
L 333.284686 170.078368 
L 334.643073 193.556528 
L 336.001461 136.53814 
L 337.359848 149.09057 
L 338.718235 94.361303 
L 340.076622 115.550342 
L 341.43501 65.30708 
L 342.793397 107.358141 
L 344.151784 107.19044 
L 345.510171 161.693311 
L 346.868558 144.965122 
L 348.226946 105.186412 
L 349.585333 140.697128 
L 350.94372 82.077194 
L 352.302107 140.730669 
L 353.660494 157.500783 
L 355.018882 130.199037 
L 356.377269 121.956526 
L 357.735656 176.325236 
L 359.094043 136.53814 
L 360.452431 151.253915 
L 361.810818 136.53814 
L 363.169205 149.115726 
L 364.527592 150.767582 
L 365.885979 140.697128 
L 367.244367 153.283099 
L 368.602754 86.227797 
L 369.961141 132.303686 
L 371.319528 69.499608 
L 372.677916 150.767582 
L 374.036303 107.22398 
L 375.39469 74.17847 
L 376.753077 107.19044 
L 378.111464 128.127928 
L 380.828239 119.717715 
L 382.186626 136.496215 
L 383.545013 151.589318 
L 384.903401 103.241078 
L 386.261788 119.726101 
L 387.620175 132.379152 
L 388.978562 123.960554 
L 390.336949 126.517997 
L 391.695337 77.84274 
L 393.053724 132.345611 
L 394.412111 107.19044 
L 395.770498 150.767582 
L 397.128886 98.847308 
L 398.487273 165.927765 
L 398.487273 165.927765 
" clip-path="url(#p3c7bf7ede9)" style="fill: none; stroke: #1f77b4; stroke-width: 1.5; stroke-linecap: square"/>
   </g>
   <g id="line2d_15">
    <path d="M 73.832727 110.006966 
L 75.191114 148.570177 
L 76.549502 116.558068 
L 77.907889 137.767708 
L 79.266276 120.280075 
L 80.624663 171.791109 
L 81.983051 138.191381 
L 83.341438 124.254891 
L 84.699825 122.070638 
L 86.058212 124.551531 
L 87.416599 157.320007 
L 88.774987 129.6752 
L 90.133374 126.248452 
L 91.491761 125.456259 
L 92.850148 119.060982 
L 94.208536 98.834142 
L 95.566923 130.70797 
L 96.92531 89.500464 
L 98.283697 130.705568 
L 99.642084 96.375296 
L 101.000472 119.834616 
L 102.358859 139.222744 
L 103.717246 86.922346 
L 105.075633 85.692289 
L 106.434021 67.334803 
L 107.792408 148.561196 
L 109.150795 116.999426 
L 110.509182 157.415431 
L 111.867569 132.855042 
L 113.225957 166.136918 
L 114.584344 107.480837 
L 115.942731 173.91921 
L 117.301118 160.113085 
L 118.659506 86.559264 
L 120.017893 136.48667 
L 121.37628 123.672052 
L 122.734667 121.713142 
L 124.093054 75.260794 
L 125.451442 126.980528 
L 126.809829 120.280075 
L 128.168216 97.126089 
L 129.526603 90.149036 
L 130.88499 127.594592 
L 132.243378 117.678231 
L 133.601765 141.083806 
L 134.960152 71.538235 
L 136.318539 101.685619 
L 137.676927 138.24296 
L 139.035314 129.738916 
L 140.393701 96.762827 
L 141.752088 120.984109 
L 143.110475 86.960385 
L 144.468863 119.594063 
L 145.82725 109.877061 
L 147.185637 122.874654 
L 148.544024 142.944835 
L 149.902412 140.834813 
L 151.260799 131.892087 
L 152.619186 133.10563 
L 153.977573 176.700033 
L 155.33596 152.726354 
L 156.694348 126.26069 
L 158.052735 135.890488 
L 159.411122 173.528762 
L 160.769509 128.039948 
L 162.127897 133.140114 
L 163.486284 123.294185 
L 164.844671 127.962384 
L 166.203058 96.802858 
L 167.561445 119.067983 
L 168.919833 93.601953 
L 170.27822 136.642315 
L 171.636607 126.508313 
L 172.994994 144.883068 
L 174.353382 160.155641 
L 175.711769 129.871786 
L 177.070156 140.936131 
L 178.428543 128.068287 
L 179.78693 116.940033 
L 181.145318 98.244659 
L 182.503705 117.87473 
L 183.862092 122.558125 
L 185.220479 132.73668 
L 186.578866 139.18443 
L 187.937254 125.222787 
L 189.295641 160.964868 
L 190.654028 124.418252 
L 192.012415 134.071973 
L 193.370803 98.946225 
L 194.72919 168.606855 
L 196.087577 136.420873 
L 197.445964 135.786651 
L 198.804351 145.479476 
L 200.162739 83.636729 
L 201.521126 121.869617 
L 202.879513 172.133068 
L 204.2379 84.525992 
L 205.596288 117.5788 
L 206.954675 116.576085 
L 208.313062 110.576836 
L 209.671449 131.831573 
L 211.029836 135.028919 
L 212.388224 100.45865 
L 213.746611 90.730851 
L 215.104998 142.908465 
L 216.463385 125.202941 
L 217.821773 96.582936 
L 219.18016 132.757728 
L 220.538547 146.553649 
L 221.896934 139.401971 
L 223.255321 138.744024 
L 224.613709 165.131341 
L 227.330483 90.036394 
L 228.68887 141.375567 
L 230.047258 170.380613 
L 231.405645 113.058465 
L 232.764032 93.384387 
L 234.122419 151.188186 
L 235.480806 167.41307 
L 236.839194 172.361228 
L 238.197581 130.492253 
L 239.555968 177.592116 
L 240.914355 127.15567 
L 242.272742 112.386638 
L 243.63113 133.853623 
L 244.989517 137.027558 
L 246.347904 295.488 
L 247.706291 85.512685 
L 249.064679 123.488112 
L 250.423066 98.942022 
L 251.781453 164.703586 
L 253.13984 177.202799 
L 254.498227 142.448671 
L 255.856615 102.283597 
L 257.215002 134.718642 
L 258.573389 96.86801 
L 259.931776 81.751508 
L 261.290164 97.073135 
L 262.648551 170.143772 
L 264.006938 135.563507 
L 265.365325 140.60127 
L 266.723712 110.34769 
L 268.0821 137.599767 
L 269.440487 123.414652 
L 270.798874 94.051419 
L 272.157261 139.726828 
L 273.515649 107.909038 
L 274.874036 120.370057 
L 276.232423 130.921291 
L 277.59081 112.988913 
L 278.949197 84.768679 
L 280.307585 112.429488 
L 281.665972 87.741092 
L 283.024359 83.294153 
L 284.382746 126.772226 
L 285.741134 93.164193 
L 287.099521 110.709671 
L 288.457908 88.627666 
L 289.816295 86.833494 
L 291.174682 78.463334 
L 292.53307 130.648236 
L 293.891457 119.564819 
L 295.249844 135.001079 
L 296.608231 129.997818 
L 297.966618 126.67201 
L 299.325006 176.218164 
L 300.683393 165.751477 
L 302.04178 139.367185 
L 303.400167 142.742108 
L 304.758555 135.23326 
L 306.116942 110.564601 
L 307.475329 139.354105 
L 308.833716 116.891484 
L 310.192103 135.041354 
L 311.550491 107.504662 
L 312.908878 122.273513 
L 314.267265 180.600462 
L 315.625652 135.602731 
L 316.98404 122.20783 
L 318.342427 89.664738 
L 319.700814 105.508443 
L 321.059201 128.313904 
L 322.417588 125.504037 
L 323.775976 146.687296 
L 325.134363 117.881075 
L 326.49275 133.414315 
L 327.851137 122.045224 
L 329.209525 135.410329 
L 330.567912 136.089809 
L 331.926299 118.946621 
L 333.284686 175.673155 
L 334.643073 180.574445 
L 336.001461 134.196735 
L 337.359848 123.312152 
L 338.718235 96.915327 
L 340.076622 122.739133 
L 341.43501 91.135229 
L 342.793397 107.201335 
L 344.151784 115.072147 
L 345.510171 139.076645 
L 346.868558 146.483374 
L 348.226946 96.799894 
L 349.585333 163.35766 
L 350.94372 88.132881 
L 352.302107 144.031127 
L 353.660494 143.887858 
L 355.018882 112.745805 
L 356.377269 129.246446 
L 357.735656 154.552153 
L 359.094043 143.310776 
L 360.452431 127.5662 
L 361.810818 113.622018 
L 363.169205 139.688705 
L 364.527592 149.903198 
L 365.885979 131.149151 
L 367.244367 151.292326 
L 368.602754 96.777658 
L 369.961141 123.933687 
L 371.319528 86.976756 
L 372.677916 124.29645 
L 374.036303 103.973668 
L 375.39469 98.085825 
L 376.753077 122.252418 
L 378.111464 131.647377 
L 379.469852 115.556105 
L 380.828239 124.085863 
L 382.186626 145.672288 
L 383.545013 130.70797 
L 384.903401 92.305895 
L 387.620175 138.831223 
L 388.978562 130.850768 
L 390.336949 108.120697 
L 391.695337 94.992393 
L 393.053724 109.652474 
L 394.412111 140.194543 
L 395.770498 122.901146 
L 397.128886 102.760649 
L 398.487273 127.058263 
L 398.487273 127.058263 
" clip-path="url(#p3c7bf7ede9)" style="fill: none; stroke: #ff7f0e; stroke-width: 1.5; stroke-linecap: square"/>
   </g>
   <g id="patch_3">
    <path d="M 57.6 307.584 
L 57.6 41.472 
" style="fill: none; stroke: #000000; stroke-width: 0.8; stroke-linejoin: miter; stroke-linecap: square"/>
   </g>
   <g id="patch_4">
    <path d="M 414.72 307.584 
L 414.72 41.472 
" style="fill: none; stroke: #000000; stroke-width: 0.8; stroke-linejoin: miter; stroke-linecap: square"/>
   </g>
   <g id="patch_5">
    <path d="M 57.6 307.584 
L 414.72 307.584 
" style="fill: none; stroke: #000000; stroke-width: 0.8; stroke-linejoin: miter; stroke-linecap: square"/>
   </g>
   <g id="patch_6">
    <path d="M 57.6 41.472 
L 414.72 41.472 
" style="fill: none; stroke: #000000; stroke-width: 0.8; stroke-linejoin: miter; stroke-linecap: square"/>
   </g>
   <g id="text_16">
    <!-- C-HR -->
    <g transform="translate(221.124375 35.472)scale(0.12 -0.12)">
     <defs>
      <path id="DejaVuSans-43" d="M 4122 4306 
L 4122 3641 
Q 3803 3938 3442 4084 
Q 3081 4231 2675 4231 
Q 1875 4231 1450 3742 
Q 1025 3253 1025 2328 
Q 1025 1406 1450 917 
Q 1875 428 2675 428 
Q 3081 428 3442 575 
Q 3803 722 4122 1019 
L 4122 359 
Q 3791 134 3420 21 
Q 3050 -91 2638 -91 
Q 1578 -91 968 557 
Q 359 1206 359 2328 
Q 359 3453 968 4101 
Q 1578 4750 2638 4750 
Q 3056 4750 3426 4639 
Q 3797 4528 4122 4306 
z
" transform="scale(0.015625)"/>
      <path id="DejaVuSans-2d" d="M 313 2009 
L 1997 2009 
L 1997 1497 
L 313 1497 
L 313 2009 
z
" transform="scale(0.015625)"/>
      <path id="DejaVuSans-48" d="M 628 4666 
L 1259 4666 
L 1259 2753 
L 3553 2753 
L 3553 4666 
L 4184 4666 
L 4184 0 
L 3553 0 
L 3553 2222 
L 1259 2222 
L 1259 0 
L 628 0 
L 628 4666 
z
" transform="scale(0.015625)"/>
      <path id="DejaVuSans-52" d="M 2841 2188 
Q 3044 2119 3236 1894 
Q 3428 1669 3622 1275 
L 4263 0 
L 3584 0 
L 2988 1197 
Q 2756 1666 2539 1819 
Q 2322 1972 1947 1972 
L 1259 1972 
L 1259 0 
L 628 0 
L 628 4666 
L 2053 4666 
Q 2853 4666 3247 4331 
Q 3641 3997 3641 3322 
Q 3641 2881 3436 2590 
Q 3231 2300 2841 2188 
z
M 1259 4147 
L 1259 2491 
L 2053 2491 
Q 2509 2491 2742 2702 
Q 2975 2913 2975 3322 
Q 2975 3731 2742 3939 
Q 2509 4147 2053 4147 
L 1259 4147 
z
" transform="scale(0.015625)"/>
     </defs>
     <use xlink:href="#DejaVuSans-43"/>
     <use xlink:href="#DejaVuSans-2d" x="69.824219"/>
     <use xlink:href="#DejaVuSans-48" x="105.908203"/>
     <use xlink:href="#DejaVuSans-52" x="181.103516"/>
    </g>
   </g>
  </g>
 </g>
 <defs>
  <clipPath id="p3c7bf7ede9">
   <rect x="57.6" y="41.472" width="357.12" height="266.112"/>
  </clipPath>
 </defs>
</svg>
