<?xml version="1.0" encoding="utf-8" standalone="no"?>
<!DOCTYPE svg PUBLIC "-//W3C//DTD SVG 1.1//EN"
  "http://www.w3.org/Graphics/SVG/1.1/DTD/svg11.dtd">
<svg xmlns:xlink="http://www.w3.org/1999/xlink" width="460.8pt" height="345.6pt" viewBox="0 0 460.8 345.6" xmlns="http://www.w3.org/2000/svg" version="1.1">
 <metadata>
  <rdf:RDF xmlns:dc="http://purl.org/dc/elements/1.1/" xmlns:cc="http://creativecommons.org/ns#" xmlns:rdf="http://www.w3.org/1999/02/22-rdf-syntax-ns#">
   <cc:Work>
    <dc:type rdf:resource="http://purl.org/dc/dcmitype/StillImage"/>
    <dc:date>2023-07-13T14:19:05.899777</dc:date>
    <dc:format>image/svg+xml</dc:format>
    <dc:creator>
     <cc:Agent>
      <dc:title>Matplotlib v3.5.1, https://matplotlib.org/</dc:title>
     </cc:Agent>
    </dc:creator>
   </cc:Work>
  </rdf:RDF>
 </metadata>
 <defs>
  <style type="text/css">*{stroke-linejoin: round; stroke-linecap: butt}</style>
 </defs>
 <g id="figure_1">
  <g id="patch_1">
   <path d="M 0 345.6 
L 460.8 345.6 
L 460.8 0 
L 0 0 
z
" style="fill: #ffffff"/>
  </g>
  <g id="axes_1">
   <g id="patch_2">
    <path d="M 57.6 307.584 
L 414.72 307.584 
L 414.72 41.472 
L 57.6 41.472 
z
" style="fill: #ffffff"/>
   </g>
   <g id="matplotlib.axis_1">
    <g id="xtick_1">
     <g id="line2d_1">
      <defs>
       <path id="me5307846ae" d="M 0 0 
L 0 3.5 
" style="stroke: #000000; stroke-width: 0.8"/>
      </defs>
      <g>
       <use xlink:href="#me5307846ae" x="73.832727" y="307.584" style="stroke: #000000; stroke-width: 0.8"/>
      </g>
     </g>
     <g id="text_1">
      <!-- 0 -->
      <g transform="translate(70.651477 322.182437)scale(0.1 -0.1)">
       <defs>
        <path id="DejaVuSans-30" d="M 2034 4250 
Q 1547 4250 1301 3770 
Q 1056 3291 1056 2328 
Q 1056 1369 1301 889 
Q 1547 409 2034 409 
Q 2525 409 2770 889 
Q 3016 1369 3016 2328 
Q 3016 3291 2770 3770 
Q 2525 4250 2034 4250 
z
M 2034 4750 
Q 2819 4750 3233 4129 
Q 3647 3509 3647 2328 
Q 3647 1150 3233 529 
Q 2819 -91 2034 -91 
Q 1250 -91 836 529 
Q 422 1150 422 2328 
Q 422 3509 836 4129 
Q 1250 4750 2034 4750 
z
" transform="scale(0.015625)"/>
       </defs>
       <use xlink:href="#DejaVuSans-30"/>
      </g>
     </g>
    </g>
    <g id="xtick_2">
     <g id="line2d_2">
      <g>
       <use xlink:href="#me5307846ae" x="135.088302" y="307.584" style="stroke: #000000; stroke-width: 0.8"/>
      </g>
     </g>
     <g id="text_2">
      <!-- 200 -->
      <g transform="translate(125.544552 322.182437)scale(0.1 -0.1)">
       <defs>
        <path id="DejaVuSans-32" d="M 1228 531 
L 3431 531 
L 3431 0 
L 469 0 
L 469 531 
Q 828 903 1448 1529 
Q 2069 2156 2228 2338 
Q 2531 2678 2651 2914 
Q 2772 3150 2772 3378 
Q 2772 3750 2511 3984 
Q 2250 4219 1831 4219 
Q 1534 4219 1204 4116 
Q 875 4013 500 3803 
L 500 4441 
Q 881 4594 1212 4672 
Q 1544 4750 1819 4750 
Q 2544 4750 2975 4387 
Q 3406 4025 3406 3419 
Q 3406 3131 3298 2873 
Q 3191 2616 2906 2266 
Q 2828 2175 2409 1742 
Q 1991 1309 1228 531 
z
" transform="scale(0.015625)"/>
       </defs>
       <use xlink:href="#DejaVuSans-32"/>
       <use xlink:href="#DejaVuSans-30" x="63.623047"/>
       <use xlink:href="#DejaVuSans-30" x="127.246094"/>
      </g>
     </g>
    </g>
    <g id="xtick_3">
     <g id="line2d_3">
      <g>
       <use xlink:href="#me5307846ae" x="196.343877" y="307.584" style="stroke: #000000; stroke-width: 0.8"/>
      </g>
     </g>
     <g id="text_3">
      <!-- 400 -->
      <g transform="translate(186.800127 322.182437)scale(0.1 -0.1)">
       <defs>
        <path id="DejaVuSans-34" d="M 2419 4116 
L 825 1625 
L 2419 1625 
L 2419 4116 
z
M 2253 4666 
L 3047 4666 
L 3047 1625 
L 3713 1625 
L 3713 1100 
L 3047 1100 
L 3047 0 
L 2419 0 
L 2419 1100 
L 313 1100 
L 313 1709 
L 2253 4666 
z
" transform="scale(0.015625)"/>
       </defs>
       <use xlink:href="#DejaVuSans-34"/>
       <use xlink:href="#DejaVuSans-30" x="63.623047"/>
       <use xlink:href="#DejaVuSans-30" x="127.246094"/>
      </g>
     </g>
    </g>
    <g id="xtick_4">
     <g id="line2d_4">
      <g>
       <use xlink:href="#me5307846ae" x="257.599451" y="307.584" style="stroke: #000000; stroke-width: 0.8"/>
      </g>
     </g>
     <g id="text_4">
      <!-- 600 -->
      <g transform="translate(248.055701 322.182437)scale(0.1 -0.1)">
       <defs>
        <path id="DejaVuSans-36" d="M 2113 2584 
Q 1688 2584 1439 2293 
Q 1191 2003 1191 1497 
Q 1191 994 1439 701 
Q 1688 409 2113 409 
Q 2538 409 2786 701 
Q 3034 994 3034 1497 
Q 3034 2003 2786 2293 
Q 2538 2584 2113 2584 
z
M 3366 4563 
L 3366 3988 
Q 3128 4100 2886 4159 
Q 2644 4219 2406 4219 
Q 1781 4219 1451 3797 
Q 1122 3375 1075 2522 
Q 1259 2794 1537 2939 
Q 1816 3084 2150 3084 
Q 2853 3084 3261 2657 
Q 3669 2231 3669 1497 
Q 3669 778 3244 343 
Q 2819 -91 2113 -91 
Q 1303 -91 875 529 
Q 447 1150 447 2328 
Q 447 3434 972 4092 
Q 1497 4750 2381 4750 
Q 2619 4750 2861 4703 
Q 3103 4656 3366 4563 
z
" transform="scale(0.015625)"/>
       </defs>
       <use xlink:href="#DejaVuSans-36"/>
       <use xlink:href="#DejaVuSans-30" x="63.623047"/>
       <use xlink:href="#DejaVuSans-30" x="127.246094"/>
      </g>
     </g>
    </g>
    <g id="xtick_5">
     <g id="line2d_5">
      <g>
       <use xlink:href="#me5307846ae" x="318.855026" y="307.584" style="stroke: #000000; stroke-width: 0.8"/>
      </g>
     </g>
     <g id="text_5">
      <!-- 800 -->
      <g transform="translate(309.311276 322.182437)scale(0.1 -0.1)">
       <defs>
        <path id="DejaVuSans-38" d="M 2034 2216 
Q 1584 2216 1326 1975 
Q 1069 1734 1069 1313 
Q 1069 891 1326 650 
Q 1584 409 2034 409 
Q 2484 409 2743 651 
Q 3003 894 3003 1313 
Q 3003 1734 2745 1975 
Q 2488 2216 2034 2216 
z
M 1403 2484 
Q 997 2584 770 2862 
Q 544 3141 544 3541 
Q 544 4100 942 4425 
Q 1341 4750 2034 4750 
Q 2731 4750 3128 4425 
Q 3525 4100 3525 3541 
Q 3525 3141 3298 2862 
Q 3072 2584 2669 2484 
Q 3125 2378 3379 2068 
Q 3634 1759 3634 1313 
Q 3634 634 3220 271 
Q 2806 -91 2034 -91 
Q 1263 -91 848 271 
Q 434 634 434 1313 
Q 434 1759 690 2068 
Q 947 2378 1403 2484 
z
M 1172 3481 
Q 1172 3119 1398 2916 
Q 1625 2713 2034 2713 
Q 2441 2713 2670 2916 
Q 2900 3119 2900 3481 
Q 2900 3844 2670 4047 
Q 2441 4250 2034 4250 
Q 1625 4250 1398 4047 
Q 1172 3844 1172 3481 
z
" transform="scale(0.015625)"/>
       </defs>
       <use xlink:href="#DejaVuSans-38"/>
       <use xlink:href="#DejaVuSans-30" x="63.623047"/>
       <use xlink:href="#DejaVuSans-30" x="127.246094"/>
      </g>
     </g>
    </g>
    <g id="xtick_6">
     <g id="line2d_6">
      <g>
       <use xlink:href="#me5307846ae" x="380.1106" y="307.584" style="stroke: #000000; stroke-width: 0.8"/>
      </g>
     </g>
     <g id="text_6">
      <!-- 1000 -->
      <g transform="translate(367.3856 322.182437)scale(0.1 -0.1)">
       <defs>
        <path id="DejaVuSans-31" d="M 794 531 
L 1825 531 
L 1825 4091 
L 703 3866 
L 703 4441 
L 1819 4666 
L 2450 4666 
L 2450 531 
L 3481 531 
L 3481 0 
L 794 0 
L 794 531 
z
" transform="scale(0.015625)"/>
       </defs>
       <use xlink:href="#DejaVuSans-31"/>
       <use xlink:href="#DejaVuSans-30" x="63.623047"/>
       <use xlink:href="#DejaVuSans-30" x="127.246094"/>
       <use xlink:href="#DejaVuSans-30" x="190.869141"/>
      </g>
     </g>
    </g>
    <g id="text_7">
     <!-- All Datas -->
     <g transform="translate(213.829531 335.860562)scale(0.1 -0.1)">
      <defs>
       <path id="DejaVuSans-41" d="M 2188 4044 
L 1331 1722 
L 3047 1722 
L 2188 4044 
z
M 1831 4666 
L 2547 4666 
L 4325 0 
L 3669 0 
L 3244 1197 
L 1141 1197 
L 716 0 
L 50 0 
L 1831 4666 
z
" transform="scale(0.015625)"/>
       <path id="DejaVuSans-6c" d="M 603 4863 
L 1178 4863 
L 1178 0 
L 603 0 
L 603 4863 
z
" transform="scale(0.015625)"/>
       <path id="DejaVuSans-20" transform="scale(0.015625)"/>
       <path id="DejaVuSans-44" d="M 1259 4147 
L 1259 519 
L 2022 519 
Q 2988 519 3436 956 
Q 3884 1394 3884 2338 
Q 3884 3275 3436 3711 
Q 2988 4147 2022 4147 
L 1259 4147 
z
M 628 4666 
L 1925 4666 
Q 3281 4666 3915 4102 
Q 4550 3538 4550 2338 
Q 4550 1131 3912 565 
Q 3275 0 1925 0 
L 628 0 
L 628 4666 
z
" transform="scale(0.015625)"/>
       <path id="DejaVuSans-61" d="M 2194 1759 
Q 1497 1759 1228 1600 
Q 959 1441 959 1056 
Q 959 750 1161 570 
Q 1363 391 1709 391 
Q 2188 391 2477 730 
Q 2766 1069 2766 1631 
L 2766 1759 
L 2194 1759 
z
M 3341 1997 
L 3341 0 
L 2766 0 
L 2766 531 
Q 2569 213 2275 61 
Q 1981 -91 1556 -91 
Q 1019 -91 701 211 
Q 384 513 384 1019 
Q 384 1609 779 1909 
Q 1175 2209 1959 2209 
L 2766 2209 
L 2766 2266 
Q 2766 2663 2505 2880 
Q 2244 3097 1772 3097 
Q 1472 3097 1187 3025 
Q 903 2953 641 2809 
L 641 3341 
Q 956 3463 1253 3523 
Q 1550 3584 1831 3584 
Q 2591 3584 2966 3190 
Q 3341 2797 3341 1997 
z
" transform="scale(0.015625)"/>
       <path id="DejaVuSans-74" d="M 1172 4494 
L 1172 3500 
L 2356 3500 
L 2356 3053 
L 1172 3053 
L 1172 1153 
Q 1172 725 1289 603 
Q 1406 481 1766 481 
L 2356 481 
L 2356 0 
L 1766 0 
Q 1100 0 847 248 
Q 594 497 594 1153 
L 594 3053 
L 172 3053 
L 172 3500 
L 594 3500 
L 594 4494 
L 1172 4494 
z
" transform="scale(0.015625)"/>
       <path id="DejaVuSans-73" d="M 2834 3397 
L 2834 2853 
Q 2591 2978 2328 3040 
Q 2066 3103 1784 3103 
Q 1356 3103 1142 2972 
Q 928 2841 928 2578 
Q 928 2378 1081 2264 
Q 1234 2150 1697 2047 
L 1894 2003 
Q 2506 1872 2764 1633 
Q 3022 1394 3022 966 
Q 3022 478 2636 193 
Q 2250 -91 1575 -91 
Q 1294 -91 989 -36 
Q 684 19 347 128 
L 347 722 
Q 666 556 975 473 
Q 1284 391 1588 391 
Q 1994 391 2212 530 
Q 2431 669 2431 922 
Q 2431 1156 2273 1281 
Q 2116 1406 1581 1522 
L 1381 1569 
Q 847 1681 609 1914 
Q 372 2147 372 2553 
Q 372 3047 722 3315 
Q 1072 3584 1716 3584 
Q 2034 3584 2315 3537 
Q 2597 3491 2834 3397 
z
" transform="scale(0.015625)"/>
      </defs>
      <use xlink:href="#DejaVuSans-41"/>
      <use xlink:href="#DejaVuSans-6c" x="68.408203"/>
      <use xlink:href="#DejaVuSans-6c" x="96.191406"/>
      <use xlink:href="#DejaVuSans-20" x="123.974609"/>
      <use xlink:href="#DejaVuSans-44" x="155.761719"/>
      <use xlink:href="#DejaVuSans-61" x="232.763672"/>
      <use xlink:href="#DejaVuSans-74" x="294.042969"/>
      <use xlink:href="#DejaVuSans-61" x="333.251953"/>
      <use xlink:href="#DejaVuSans-73" x="394.53125"/>
     </g>
    </g>
   </g>
   <g id="matplotlib.axis_2">
    <g id="ytick_1">
     <g id="line2d_7">
      <defs>
       <path id="me56c40f721" d="M 0 0 
L -3.5 0 
" style="stroke: #000000; stroke-width: 0.8"/>
      </defs>
      <g>
       <use xlink:href="#me56c40f721" x="57.6" y="285.170383" style="stroke: #000000; stroke-width: 0.8"/>
      </g>
     </g>
     <g id="text_8">
      <!-- 0 -->
      <g transform="translate(44.2375 288.969602)scale(0.1 -0.1)">
       <use xlink:href="#DejaVuSans-30"/>
      </g>
     </g>
    </g>
    <g id="ytick_2">
     <g id="line2d_8">
      <g>
       <use xlink:href="#me56c40f721" x="57.6" y="254.548109" style="stroke: #000000; stroke-width: 0.8"/>
      </g>
     </g>
     <g id="text_9">
      <!-- 2500 -->
      <g transform="translate(25.15 258.347328)scale(0.1 -0.1)">
       <defs>
        <path id="DejaVuSans-35" d="M 691 4666 
L 3169 4666 
L 3169 4134 
L 1269 4134 
L 1269 2991 
Q 1406 3038 1543 3061 
Q 1681 3084 1819 3084 
Q 2600 3084 3056 2656 
Q 3513 2228 3513 1497 
Q 3513 744 3044 326 
Q 2575 -91 1722 -91 
Q 1428 -91 1123 -41 
Q 819 9 494 109 
L 494 744 
Q 775 591 1075 516 
Q 1375 441 1709 441 
Q 2250 441 2565 725 
Q 2881 1009 2881 1497 
Q 2881 1984 2565 2268 
Q 2250 2553 1709 2553 
Q 1456 2553 1204 2497 
Q 953 2441 691 2322 
L 691 4666 
z
" transform="scale(0.015625)"/>
       </defs>
       <use xlink:href="#DejaVuSans-32"/>
       <use xlink:href="#DejaVuSans-35" x="63.623047"/>
       <use xlink:href="#DejaVuSans-30" x="127.246094"/>
       <use xlink:href="#DejaVuSans-30" x="190.869141"/>
      </g>
     </g>
    </g>
    <g id="ytick_3">
     <g id="line2d_9">
      <g>
       <use xlink:href="#me56c40f721" x="57.6" y="223.925835" style="stroke: #000000; stroke-width: 0.8"/>
      </g>
     </g>
     <g id="text_10">
      <!-- 5000 -->
      <g transform="translate(25.15 227.725054)scale(0.1 -0.1)">
       <use xlink:href="#DejaVuSans-35"/>
       <use xlink:href="#DejaVuSans-30" x="63.623047"/>
       <use xlink:href="#DejaVuSans-30" x="127.246094"/>
       <use xlink:href="#DejaVuSans-30" x="190.869141"/>
      </g>
     </g>
    </g>
    <g id="ytick_4">
     <g id="line2d_10">
      <g>
       <use xlink:href="#me56c40f721" x="57.6" y="193.303561" style="stroke: #000000; stroke-width: 0.8"/>
      </g>
     </g>
     <g id="text_11">
      <!-- 7500 -->
      <g transform="translate(25.15 197.10278)scale(0.1 -0.1)">
       <defs>
        <path id="DejaVuSans-37" d="M 525 4666 
L 3525 4666 
L 3525 4397 
L 1831 0 
L 1172 0 
L 2766 4134 
L 525 4134 
L 525 4666 
z
" transform="scale(0.015625)"/>
       </defs>
       <use xlink:href="#DejaVuSans-37"/>
       <use xlink:href="#DejaVuSans-35" x="63.623047"/>
       <use xlink:href="#DejaVuSans-30" x="127.246094"/>
       <use xlink:href="#DejaVuSans-30" x="190.869141"/>
      </g>
     </g>
    </g>
    <g id="ytick_5">
     <g id="line2d_11">
      <g>
       <use xlink:href="#me56c40f721" x="57.6" y="162.681287" style="stroke: #000000; stroke-width: 0.8"/>
      </g>
     </g>
     <g id="text_12">
      <!-- 10000 -->
      <g transform="translate(18.7875 166.480506)scale(0.1 -0.1)">
       <use xlink:href="#DejaVuSans-31"/>
       <use xlink:href="#DejaVuSans-30" x="63.623047"/>
       <use xlink:href="#DejaVuSans-30" x="127.246094"/>
       <use xlink:href="#DejaVuSans-30" x="190.869141"/>
       <use xlink:href="#DejaVuSans-30" x="254.492188"/>
      </g>
     </g>
    </g>
    <g id="ytick_6">
     <g id="line2d_12">
      <g>
       <use xlink:href="#me56c40f721" x="57.6" y="132.059013" style="stroke: #000000; stroke-width: 0.8"/>
      </g>
     </g>
     <g id="text_13">
      <!-- 12500 -->
      <g transform="translate(18.7875 135.858232)scale(0.1 -0.1)">
       <use xlink:href="#DejaVuSans-31"/>
       <use xlink:href="#DejaVuSans-32" x="63.623047"/>
       <use xlink:href="#DejaVuSans-35" x="127.246094"/>
       <use xlink:href="#DejaVuSans-30" x="190.869141"/>
       <use xlink:href="#DejaVuSans-30" x="254.492188"/>
      </g>
     </g>
    </g>
    <g id="ytick_7">
     <g id="line2d_13">
      <g>
       <use xlink:href="#me56c40f721" x="57.6" y="101.436739" style="stroke: #000000; stroke-width: 0.8"/>
      </g>
     </g>
     <g id="text_14">
      <!-- 15000 -->
      <g transform="translate(18.7875 105.235958)scale(0.1 -0.1)">
       <use xlink:href="#DejaVuSans-31"/>
       <use xlink:href="#DejaVuSans-35" x="63.623047"/>
       <use xlink:href="#DejaVuSans-30" x="127.246094"/>
       <use xlink:href="#DejaVuSans-30" x="190.869141"/>
       <use xlink:href="#DejaVuSans-30" x="254.492188"/>
      </g>
     </g>
    </g>
    <g id="ytick_8">
     <g id="line2d_14">
      <g>
       <use xlink:href="#me56c40f721" x="57.6" y="70.814465" style="stroke: #000000; stroke-width: 0.8"/>
      </g>
     </g>
     <g id="text_15">
      <!-- 17500 -->
      <g transform="translate(18.7875 74.613684)scale(0.1 -0.1)">
       <use xlink:href="#DejaVuSans-31"/>
       <use xlink:href="#DejaVuSans-37" x="63.623047"/>
       <use xlink:href="#DejaVuSans-35" x="127.246094"/>
       <use xlink:href="#DejaVuSans-30" x="190.869141"/>
       <use xlink:href="#DejaVuSans-30" x="254.492188"/>
      </g>
     </g>
    </g>
    <g id="text_16">
     <!-- Price -->
     <g transform="translate(12.707813 186.725656)rotate(-90)scale(0.1 -0.1)">
      <defs>
       <path id="DejaVuSans-50" d="M 1259 4147 
L 1259 2394 
L 2053 2394 
Q 2494 2394 2734 2622 
Q 2975 2850 2975 3272 
Q 2975 3691 2734 3919 
Q 2494 4147 2053 4147 
L 1259 4147 
z
M 628 4666 
L 2053 4666 
Q 2838 4666 3239 4311 
Q 3641 3956 3641 3272 
Q 3641 2581 3239 2228 
Q 2838 1875 2053 1875 
L 1259 1875 
L 1259 0 
L 628 0 
L 628 4666 
z
" transform="scale(0.015625)"/>
       <path id="DejaVuSans-72" d="M 2631 2963 
Q 2534 3019 2420 3045 
Q 2306 3072 2169 3072 
Q 1681 3072 1420 2755 
Q 1159 2438 1159 1844 
L 1159 0 
L 581 0 
L 581 3500 
L 1159 3500 
L 1159 2956 
Q 1341 3275 1631 3429 
Q 1922 3584 2338 3584 
Q 2397 3584 2469 3576 
Q 2541 3569 2628 3553 
L 2631 2963 
z
" transform="scale(0.015625)"/>
       <path id="DejaVuSans-69" d="M 603 3500 
L 1178 3500 
L 1178 0 
L 603 0 
L 603 3500 
z
M 603 4863 
L 1178 4863 
L 1178 4134 
L 603 4134 
L 603 4863 
z
" transform="scale(0.015625)"/>
       <path id="DejaVuSans-63" d="M 3122 3366 
L 3122 2828 
Q 2878 2963 2633 3030 
Q 2388 3097 2138 3097 
Q 1578 3097 1268 2742 
Q 959 2388 959 1747 
Q 959 1106 1268 751 
Q 1578 397 2138 397 
Q 2388 397 2633 464 
Q 2878 531 3122 666 
L 3122 134 
Q 2881 22 2623 -34 
Q 2366 -91 2075 -91 
Q 1284 -91 818 406 
Q 353 903 353 1747 
Q 353 2603 823 3093 
Q 1294 3584 2113 3584 
Q 2378 3584 2631 3529 
Q 2884 3475 3122 3366 
z
" transform="scale(0.015625)"/>
       <path id="DejaVuSans-65" d="M 3597 1894 
L 3597 1613 
L 953 1613 
Q 991 1019 1311 708 
Q 1631 397 2203 397 
Q 2534 397 2845 478 
Q 3156 559 3463 722 
L 3463 178 
Q 3153 47 2828 -22 
Q 2503 -91 2169 -91 
Q 1331 -91 842 396 
Q 353 884 353 1716 
Q 353 2575 817 3079 
Q 1281 3584 2069 3584 
Q 2775 3584 3186 3129 
Q 3597 2675 3597 1894 
z
M 3022 2063 
Q 3016 2534 2758 2815 
Q 2500 3097 2075 3097 
Q 1594 3097 1305 2825 
Q 1016 2553 972 2059 
L 3022 2063 
z
" transform="scale(0.015625)"/>
      </defs>
      <use xlink:href="#DejaVuSans-50"/>
      <use xlink:href="#DejaVuSans-72" x="58.552734"/>
      <use xlink:href="#DejaVuSans-69" x="99.666016"/>
      <use xlink:href="#DejaVuSans-63" x="127.449219"/>
      <use xlink:href="#DejaVuSans-65" x="182.429688"/>
     </g>
    </g>
   </g>
   <g id="line2d_15">
    <path d="M 73.832727 121.41471 
L 74.139005 211.701423 
L 74.445283 142.139866 
L 74.751561 113.746893 
L 75.057839 176.155088 
L 75.364117 171.378013 
L 75.670395 54.057956 
L 75.976672 138.244712 
L 76.28295 147.982595 
L 76.589228 250.934681 
L 77.201784 150.554866 
L 77.508062 165.192313 
L 78.120617 134.153576 
L 78.426895 157.842968 
L 78.733173 129.670476 
L 79.039451 128.506829 
L 79.345729 155.45443 
L 79.652007 156.618077 
L 79.958285 162.742532 
L 80.264563 122.32113 
L 80.57084 199.428016 
L 80.877118 144.369167 
L 81.183396 125.995803 
L 81.489674 146.390237 
L 81.795952 119.932592 
L 82.10223 174.991441 
L 82.408508 189.628888 
L 82.714786 150.432377 
L 83.021063 153.298622 
L 83.327341 169.05072 
L 83.633619 122.798837 
L 83.939897 198.913562 
L 84.246175 104.00901 
L 84.552453 140.694494 
L 84.858731 151.044823 
L 85.165009 138.183468 
L 85.471286 130.956611 
L 85.777564 162.791527 
L 86.083842 168.866986 
L 86.39012 138.244712 
L 86.696398 159.067859 
L 87.002676 152.943404 
L 87.308954 248.69313 
L 87.615232 128.739558 
L 87.921509 183.565678 
L 88.227787 211.73817 
L 88.840343 91.7601 
L 89.146621 137.326044 
L 89.452899 107.622438 
L 89.759177 105.172656 
L 90.67801 176.302074 
L 90.984288 199.550505 
L 91.290566 142.335848 
L 91.596844 174.954694 
L 91.903122 162.803776 
L 92.2094 195.863583 
L 92.515678 205.67496 
L 93.128233 140.694494 
L 93.434511 150.567115 
L 93.740789 150.665107 
L 94.047067 132.365236 
L 94.353345 166.845916 
L 94.659623 133.345148 
L 94.965901 122.32113 
L 95.272178 184.851813 
L 95.578456 181.079149 
L 95.884734 162.742532 
L 96.191012 129.217266 
L 96.49729 162.681287 
L 97.109846 189.579893 
L 97.416123 165.131069 
L 97.722401 181.177141 
L 98.028679 150.554866 
L 98.334957 193.328059 
L 98.641235 124.685169 
L 98.947513 166.417204 
L 99.253791 129.670476 
L 99.560069 171.96596 
L 100.172624 113.746893 
L 100.478902 155.331941 
L 100.78518 95.312284 
L 101.091458 155.331941 
L 101.397736 129.73172 
L 101.704014 203.825374 
L 102.010292 223.98708 
L 102.316569 147.737617 
L 102.622847 119.932592 
L 102.929125 167.580851 
L 103.235403 138.207966 
L 103.541681 136.088904 
L 103.847959 166.417204 
L 104.460515 144.369167 
L 104.766792 154.78074 
L 105.07307 199.562754 
L 105.379348 98.374511 
L 105.685626 195.875832 
L 105.991904 150.554866 
L 106.298182 175.175175 
L 106.60446 168.866986 
L 106.910738 113.697897 
L 107.217015 138.207966 
L 107.523293 189.469652 
L 107.829571 151.41229 
L 108.135849 150.444626 
L 108.442127 113.697897 
L 108.748405 166.417204 
L 109.054683 162.742532 
L 109.360961 101.546979 
L 109.667238 174.991441 
L 109.973516 150.554866 
L 110.279794 138.207966 
L 110.586072 144.307923 
L 110.89235 101.497983 
L 111.198628 164.763602 
L 111.504906 140.645499 
L 111.811184 129.352004 
L 112.117461 138.244712 
L 112.423739 162.803776 
L 112.730017 156.679321 
L 113.036295 145.630805 
L 113.342573 199.452514 
L 113.648851 117.48281 
L 113.955129 174.930197 
L 114.261407 162.803776 
L 114.567684 113.746893 
L 114.873962 132.120257 
L 115.18024 125.959056 
L 115.486518 129.73172 
L 115.792796 167.642095 
L 116.099074 141.453927 
L 116.405352 176.277577 
L 116.71163 174.991441 
L 117.017907 125.995803 
L 117.324185 230.111534 
L 117.630463 150.493622 
L 117.936741 174.991441 
L 118.243019 140.878228 
L 118.549297 138.183468 
L 118.855575 174.991441 
L 119.161852 174.991441 
L 119.46813 83.185863 
L 119.774408 168.866986 
L 120.080686 146.757704 
L 120.386964 165.192313 
L 120.693242 191.196749 
L 120.99952 168.866986 
L 121.305798 101.497983 
L 121.612075 197.100723 
L 121.918353 147.982595 
L 122.224631 170.055131 
L 122.530909 158.271679 
L 122.837187 119.136413 
L 123.143465 150.432377 
L 123.756021 144.467158 
L 124.062298 208.063497 
L 124.368576 217.80138 
L 124.674854 134.570039 
L 124.981132 148.04384 
L 125.28741 187.203604 
L 125.593688 117.421566 
L 125.899966 187.179106 
L 126.206244 144.430412 
L 126.512521 150.542618 
L 126.818799 132.120257 
L 127.125077 251.485882 
L 127.431355 141.919385 
L 127.737633 134.631284 
L 128.043911 163.918427 
L 128.350189 116.13543 
L 128.656467 157.842968 
L 128.962744 138.305957 
L 129.269022 170.643078 
L 129.5753 125.995803 
L 129.881578 139.383861 
L 130.187856 134.570039 
L 130.494134 168.866986 
L 130.800412 162.742532 
L 131.10669 125.995803 
L 131.412967 178.604869 
L 131.719245 153.494605 
L 132.331801 126.057047 
L 132.944357 195.777841 
L 133.250635 181.336376 
L 133.556913 138.244712 
L 133.86319 125.995803 
L 134.169468 104.00901 
L 134.475746 162.742532 
L 134.782024 193.928255 
L 135.088302 159.067859 
L 135.39458 156.679321 
L 135.700858 144.307923 
L 136.007136 162.705785 
L 136.313413 150.432377 
L 136.619691 125.995803 
L 136.925969 132.071262 
L 137.232247 116.747876 
L 137.538525 150.456875 
L 137.844803 132.842943 
L 138.151081 160.231505 
L 138.457358 168.928231 
L 138.763636 162.681287 
L 139.069914 153.715085 
L 139.376192 168.866986 
L 139.68247 138.207966 
L 139.988748 189.628888 
L 140.295026 138.183468 
L 140.601304 126.057047 
L 140.907581 150.456875 
L 141.213859 150.456875 
L 141.520137 144.33242 
L 141.826415 203.408911 
L 142.132693 138.183468 
L 142.438971 169.589672 
L 142.745249 150.542618 
L 143.051527 162.681287 
L 143.357804 153.004648 
L 143.664082 200.775396 
L 143.97036 144.430412 
L 144.276638 177.502468 
L 144.582916 165.743514 
L 144.889194 113.991871 
L 145.195472 117.48281 
L 145.50175 138.808162 
L 145.808027 125.077134 
L 146.114305 194.785679 
L 146.726861 110.500932 
L 147.033139 162.705785 
L 147.339417 181.115896 
L 147.645695 122.896828 
L 147.951973 150.530369 
L 148.25825 159.61906 
L 148.564528 156.569081 
L 148.870806 162.693536 
L 149.177084 165.192313 
L 149.483362 140.694494 
L 149.78964 144.33242 
L 150.095918 150.493622 
L 150.402196 147.002683 
L 150.708473 150.493622 
L 151.014751 132.071262 
L 151.321029 146.904691 
L 151.627307 170.189869 
L 151.933585 156.667072 
L 152.239863 158.884125 
L 152.546141 192.470635 
L 153.158696 146.439233 
L 153.464974 140.755739 
L 153.771252 159.067859 
L 154.07753 145.042857 
L 154.383808 163.293732 
L 154.690086 125.959056 
L 154.996364 156.556832 
L 155.302642 162.742532 
L 155.608919 183.565678 
L 155.915197 176.179585 
L 156.221475 199.48926 
L 156.527753 120.643029 
L 156.834031 116.012941 
L 157.140309 101.546979 
L 157.446587 116.13543 
L 157.752864 165.253558 
L 158.059142 193.364806 
L 158.36542 178.666114 
L 158.671698 196.365788 
L 158.977976 181.115896 
L 159.284254 145.557311 
L 159.590532 174.942446 
L 159.89681 101.448988 
L 160.203087 125.995803 
L 160.509365 180.197228 
L 160.815643 107.622438 
L 161.121921 170.202117 
L 161.428199 174.991441 
L 161.734477 154.597007 
L 162.040755 117.71554 
L 162.347033 110.317198 
L 162.65331 125.995803 
L 162.959588 150.432377 
L 163.265866 107.561194 
L 163.572144 116.747876 
L 163.878422 138.244712 
L 164.1847 193.303561 
L 164.490978 156.556832 
L 164.797256 154.229539 
L 165.103533 162.693536 
L 165.409811 140.694494 
L 165.716089 162.705785 
L 166.022367 156.58133 
L 166.328645 113.746893 
L 166.634923 115.522985 
L 167.247479 168.989475 
L 167.553756 138.244712 
L 167.860034 168.866986 
L 168.166312 150.554866 
L 168.47259 164.028667 
L 169.085146 119.871348 
L 169.391424 150.493622 
L 169.697702 138.183468 
L 170.003979 150.493622 
L 170.310257 64.80025 
L 170.616535 125.934558 
L 170.922813 132.120257 
L 171.229091 199.464763 
L 171.535369 157.879714 
L 171.841647 199.48926 
L 172.147925 140.437267 
L 172.454202 138.183468 
L 172.76048 174.991441 
L 173.373036 132.059013 
L 173.679314 162.705785 
L 173.985592 107.561194 
L 174.29187 128.996785 
L 174.598148 139.555346 
L 174.904425 174.930197 
L 175.210703 168.866986 
L 175.516981 174.930197 
L 175.823259 168.866986 
L 176.435815 181.0669 
L 176.742093 181.360874 
L 177.04837 132.169253 
L 177.354648 236.174745 
L 177.660926 187.546574 
L 177.967204 165.11882 
L 178.273482 162.693536 
L 178.57976 151.779757 
L 178.886038 162.705785 
L 179.192316 64.812499 
L 179.804871 211.73817 
L 180.111149 195.777841 
L 180.417427 126.057047 
L 180.723705 167.446113 
L 181.029983 107.365211 
L 181.336261 132.083511 
L 181.642539 144.307923 
L 181.948816 101.497983 
L 182.255094 195.777841 
L 182.561372 177.722948 
L 182.86765 122.749842 
L 183.173928 181.115896 
L 183.480206 199.440265 
L 183.786484 119.932592 
L 184.092762 181.054651 
L 184.399039 134.570039 
L 184.705317 138.244712 
L 185.011595 165.192313 
L 185.317873 159.006614 
L 185.624151 126.547004 
L 185.930429 132.965432 
L 186.236707 207.389807 
L 186.542985 113.746893 
L 187.15554 168.866986 
L 187.461818 175.236419 
L 187.768096 118.95268 
L 188.074374 143.144276 
L 188.380652 195.140897 
L 188.68693 118.658706 
L 188.993208 184.876311 
L 189.299485 150.493622 
L 189.912041 124.3422 
L 190.218319 138.183468 
L 190.524597 187.301595 
L 190.830875 168.866986 
L 191.137153 101.497983 
L 191.443431 157.291767 
L 191.749708 150.432377 
L 192.055986 154.168295 
L 192.362264 138.183468 
L 192.668542 168.805742 
L 192.97482 144.307923 
L 193.281098 134.753773 
L 193.587376 199.428016 
L 193.893654 211.799415 
L 194.199931 150.493622 
L 194.506209 129.119275 
L 194.812487 119.871348 
L 195.118765 159.251592 
L 195.425043 144.369167 
L 195.731321 116.257919 
L 196.037599 236.235989 
L 196.343877 102.722874 
L 196.956432 130.895366 
L 197.26271 205.67496 
L 197.875266 108.038901 
L 198.181544 193.303561 
L 198.487822 181.079149 
L 198.794099 174.942446 
L 199.100377 160.29275 
L 199.406655 162.742532 
L 199.712933 125.995803 
L 200.019211 174.954694 
L 200.325489 156.618077 
L 200.631767 183.896398 
L 200.938045 156.618077 
L 201.244322 174.991441 
L 201.5506 176.167336 
L 201.856878 174.930197 
L 202.163156 187.240351 
L 202.469434 141.882638 
L 202.775712 190.73129 
L 203.08199 193.31581 
L 203.388268 132.181502 
L 203.694545 150.554866 
L 204.000823 188.159019 
L 204.307101 205.062514 
L 204.613379 142.470586 
L 204.919657 135.12124 
L 205.225935 162.681287 
L 205.532213 138.305957 
L 205.838491 168.866986 
L 206.144768 128.506829 
L 206.451046 162.98751 
L 206.757324 168.83024 
L 207.063602 167.580851 
L 207.36988 194.626443 
L 207.676158 151.718513 
L 207.982436 205.67496 
L 208.288714 144.430412 
L 208.594991 212.901816 
L 208.901269 138.48969 
L 209.207547 113.746893 
L 209.513825 138.183468 
L 209.820103 144.369167 
L 210.126381 111.235867 
L 210.432659 103.947765 
L 210.738937 205.67496 
L 211.045214 135.12124 
L 211.351492 135.12124 
L 211.65777 155.184954 
L 211.964048 150.456875 
L 212.270326 181.115896 
L 212.576604 150.456875 
L 212.882882 171.255524 
L 213.18916 177.36773 
L 213.495437 193.328059 
L 213.801715 183.504433 
L 214.414271 146.904691 
L 214.720549 183.528931 
L 215.026827 129.670476 
L 215.333105 208.063497 
L 215.639383 120.422549 
L 215.94566 132.120257 
L 216.251938 162.705785 
L 216.558216 162.803776 
L 216.864494 150.554866 
L 217.170772 156.912051 
L 217.47705 150.616111 
L 217.783328 217.813629 
L 218.395883 150.456875 
L 218.702161 162.742532 
L 219.314717 150.432377 
L 219.620995 150.493622 
L 219.927273 106.397547 
L 220.233551 190.241334 
L 220.539828 138.305957 
L 220.846106 162.681287 
L 221.152384 254.609354 
L 221.458662 156.556832 
L 221.76494 143.144276 
L 222.071218 138.305957 
L 222.377496 130.834122 
L 222.683774 187.191355 
L 222.990051 110.07222 
L 223.296329 138.305957 
L 223.602607 128.996785 
L 223.908885 183.528931 
L 224.215163 146.880194 
L 224.521441 144.369167 
L 224.827719 161.137924 
L 225.133997 187.240351 
L 225.440274 147.37015 
L 226.05283 113.746893 
L 226.359108 138.305957 
L 226.665386 144.369167 
L 226.971664 230.074788 
L 227.277942 162.742532 
L 227.58422 175.040437 
L 227.890497 145.520565 
L 228.196775 162.791527 
L 228.503053 156.58133 
L 228.809331 53.568 
L 229.115609 89.249074 
L 229.421887 156.679321 
L 229.728165 154.229539 
L 230.034443 171.280022 
L 230.34072 119.871348 
L 230.646998 162.791527 
L 230.953276 138.207966 
L 231.259554 168.83024 
L 231.565832 138.305957 
L 231.87211 193.364806 
L 232.178388 137.105564 
L 232.484666 174.991441 
L 232.790943 165.265807 
L 233.097221 174.991441 
L 233.709777 150.493622 
L 234.016055 107.561194 
L 234.322333 156.544583 
L 234.628611 122.872331 
L 234.934889 113.746893 
L 235.241166 190.241334 
L 235.547444 162.705785 
L 235.853722 145.777792 
L 236.16 205.662711 
L 236.466278 141.882638 
L 236.772556 211.799415 
L 237.078834 140.755739 
L 237.385111 177.392227 
L 237.691389 160.29275 
L 237.997667 162.681287 
L 238.303945 134.570039 
L 238.610223 168.915982 
L 238.916501 138.183468 
L 239.222779 95.434773 
L 239.529057 150.456875 
L 239.835334 177.441223 
L 240.141612 139.469603 
L 240.754168 168.83024 
L 241.060446 166.600938 
L 241.366724 138.293708 
L 241.673002 165.131069 
L 241.97928 152.024736 
L 242.285557 150.493622 
L 242.591835 104.266237 
L 242.898113 138.244712 
L 243.204391 136.101153 
L 243.510669 126.057047 
L 243.816947 205.613715 
L 244.123225 116.196675 
L 244.429503 161.456396 
L 244.73578 168.83024 
L 245.042058 162.803776 
L 245.348336 101.497983 
L 245.654614 166.417204 
L 245.960892 168.866986 
L 246.26717 116.13543 
L 246.573448 162.693536 
L 246.879726 77.000164 
L 247.186003 156.569081 
L 247.492281 168.866986 
L 247.798559 217.813629 
L 248.411115 113.746893 
L 248.717393 168.928231 
L 249.023671 144.369167 
L 249.329949 181.115896 
L 249.636226 187.203604 
L 249.942504 174.991441 
L 250.248782 138.244712 
L 250.55506 162.742532 
L 250.861338 165.192313 
L 251.167616 166.478449 
L 251.473894 166.417204 
L 251.780172 214.187952 
L 252.086449 141.245695 
L 252.392727 162.681287 
L 252.699005 150.493622 
L 253.005283 125.995803 
L 253.311561 77.000164 
L 253.617839 132.181502 
L 253.924117 144.369167 
L 254.230395 175.542642 
L 254.536672 117.48281 
L 254.84295 103.996761 
L 255.149228 138.183468 
L 255.455506 155.393186 
L 255.761784 138.183468 
L 256.068062 146.818949 
L 256.680617 175.052686 
L 256.986895 178.666114 
L 257.293173 162.742532 
L 257.599451 211.799415 
L 257.905729 160.29275 
L 258.212007 155.393186 
L 258.518285 148.509299 
L 258.824563 110.133465 
L 259.13084 161.150173 
L 259.743396 175.260917 
L 260.049674 178.629367 
L 260.355952 126.179536 
L 260.66223 129.73172 
L 260.968508 187.240351 
L 261.274786 113.746893 
L 261.581063 168.805742 
L 261.887341 162.742532 
L 262.193619 171.378013 
L 262.499897 158.467662 
L 262.806175 199.428016 
L 263.112453 128.445585 
L 263.418731 122.872331 
L 263.725009 132.120257 
L 264.031286 110.07222 
L 264.337564 132.120257 
L 264.643842 126.057047 
L 264.95012 125.995803 
L 265.562676 171.867969 
L 265.868954 138.183468 
L 266.175232 141.919385 
L 266.481509 162.742532 
L 266.787787 174.954694 
L 267.094065 174.991441 
L 267.400343 146.818949 
L 267.706621 155.45443 
L 268.012899 205.576968 
L 268.319177 113.808138 
L 268.625455 242.360444 
L 268.931732 70.875709 
L 269.23801 113.746893 
L 269.544288 85.390667 
L 269.850566 187.179106 
L 270.156844 217.825878 
L 270.463122 123.484776 
L 270.7694 162.828274 
L 271.075678 234.227168 
L 271.381955 144.418163 
L 271.688233 153.494605 
L 271.994511 138.244712 
L 272.300789 135.12124 
L 272.607067 141.919385 
L 272.913345 159.031112 
L 273.219623 121.892418 
L 273.525901 132.083511 
L 273.832178 150.554866 
L 274.138456 205.613715 
L 274.444734 105.111412 
L 274.751012 155.944387 
L 275.05729 141.882638 
L 275.363568 171.316768 
L 275.976123 119.871348 
L 276.282401 171.255524 
L 276.588679 154.474518 
L 276.894957 128.347593 
L 277.201235 144.773381 
L 277.507513 125.995803 
L 277.813791 156.58133 
L 278.120069 122.847833 
L 278.732624 156.618077 
L 279.038902 181.079149 
L 279.34518 134.570039 
L 279.651458 175.236419 
L 279.957736 113.808138 
L 280.264014 197.039478 
L 280.570292 132.083511 
L 280.876569 132.181502 
L 281.182847 190.915024 
L 281.489125 151.718513 
L 281.795403 162.803776 
L 282.101681 156.58133 
L 282.407959 128.506829 
L 282.714237 168.805742 
L 283.020515 110.07222 
L 283.326792 174.942446 
L 283.63307 170.189869 
L 283.939348 135.721437 
L 284.245626 162.742532 
L 284.551904 174.954694 
L 284.858182 126.118292 
L 285.16446 128.996785 
L 285.777015 211.799415 
L 286.083293 125.995803 
L 286.389571 254.548109 
L 287.002127 121.034994 
L 287.308405 174.991441 
L 287.614683 141.858141 
L 287.920961 125.995803 
L 288.227238 128.445585 
L 288.533516 134.508795 
L 288.839794 98.374511 
L 289.146072 150.432377 
L 289.45235 171.867969 
L 289.758628 162.742532 
L 290.064906 125.934558 
L 290.371184 138.428446 
L 290.677461 103.764032 
L 290.983739 168.83024 
L 291.290017 89.200078 
L 291.596295 98.362263 
L 291.902573 156.618077 
L 292.208851 101.497983 
L 292.515129 150.554866 
L 292.821407 162.803776 
L 293.127684 144.908119 
L 293.433962 146.782202 
L 294.046518 112.007548 
L 294.352796 171.267773 
L 294.659074 138.207966 
L 294.965352 143.352508 
L 295.27163 138.183468 
L 295.577907 150.444626 
L 295.884185 123.595016 
L 296.190463 129.670476 
L 296.496741 132.181502 
L 296.803019 153.568098 
L 297.109297 150.456875 
L 297.415575 181.115896 
L 297.721852 178.629367 
L 298.02813 214.739153 
L 298.640686 134.570039 
L 299.253242 174.991441 
L 299.55952 132.120257 
L 299.865798 132.120257 
L 300.172075 148.04384 
L 300.478353 213.514262 
L 300.784631 138.244712 
L 301.090909 174.954694 
L 301.397187 160.843951 
L 301.703465 193.42605 
L 302.009743 138.244712 
L 302.316021 168.83024 
L 302.622298 113.746893 
L 302.928576 168.866986 
L 303.234854 165.866003 
L 303.541132 166.380458 
L 303.84741 140.63325 
L 304.153688 128.38434 
L 304.459966 187.485329 
L 304.766244 110.63567 
L 305.072521 132.120257 
L 305.685077 239.910662 
L 306.297633 168.83024 
L 306.603911 138.244712 
L 306.910189 122.933575 
L 307.216467 125.995803 
L 307.522744 144.614145 
L 307.829022 98.374511 
L 308.1353 155.699408 
L 308.441578 162.742532 
L 308.747856 160.231505 
L 309.054134 162.742532 
L 309.360412 143.266765 
L 309.66669 151.044823 
L 309.972967 115.278007 
L 310.279245 165.192313 
L 310.585523 131.201589 
L 310.891801 187.203604 
L 311.504357 135.255978 
L 311.810635 162.742532 
L 312.116913 176.155088 
L 312.42319 165.559781 
L 313.035746 134.631284 
L 313.342024 128.445585 
L 314.260858 200.714151 
L 314.567136 175.665131 
L 314.873413 176.730786 
L 315.179691 80.723833 
L 315.485969 150.554866 
L 315.792247 125.077134 
L 316.404803 260.856298 
L 316.711081 150.493622 
L 317.017358 150.493622 
L 317.323636 211.701423 
L 317.629914 106.556783 
L 317.936192 157.891963 
L 318.24247 127.612659 
L 318.548748 156.58133 
L 318.855026 165.143318 
L 319.161304 151.779757 
L 319.467581 209.288388 
L 320.080137 91.7601 
L 320.386415 227.625006 
L 320.692693 138.183468 
L 320.998971 219.014022 
L 321.305249 141.858141 
L 321.611527 166.600938 
L 321.917804 162.742532 
L 322.224082 113.697897 
L 322.53036 115.216762 
L 322.836638 193.328059 
L 323.142916 138.305957 
L 323.449194 236.480967 
L 323.755472 166.882663 
L 324.06175 197.039478 
L 324.368027 150.456875 
L 324.674305 127.281938 
L 324.980583 156.58133 
L 325.286861 169.111965 
L 325.593139 138.207966 
L 325.899417 214.236948 
L 326.205695 150.432377 
L 326.511973 125.995803 
L 326.81825 126.755235 
L 327.124528 156.618077 
L 327.430806 151.657268 
L 327.737084 179.95225 
L 328.043362 144.307923 
L 328.34964 138.48969 
L 328.655918 79.449946 
L 328.962196 153.984561 
L 329.268473 114.298094 
L 329.574751 208.063497 
L 329.881029 101.497983 
L 330.187307 150.456875 
L 330.493585 105.172656 
L 330.799863 171.255524 
L 331.106141 162.865021 
L 331.718696 113.697897 
L 332.024974 119.871348 
L 332.331252 150.444626 
L 332.63753 150.493622 
L 332.943808 154.229539 
L 333.250086 150.530369 
L 333.556364 113.746893 
L 333.862642 101.448988 
L 334.168919 252.110576 
L 334.475197 77.000164 
L 334.781475 159.031112 
L 335.087753 139.126634 
L 335.394031 150.456875 
L 336.006587 204.388824 
L 336.312864 168.83024 
L 336.619142 205.552471 
L 336.92542 190.915024 
L 337.231698 205.576968 
L 337.844254 122.382374 
L 338.150532 116.196675 
L 338.45681 159.031112 
L 338.763087 139.469603 
L 339.069365 150.493622 
L 339.375643 139.469603 
L 339.681921 142.164363 
L 339.988199 212.914065 
L 340.294477 156.618077 
L 340.600755 183.565678 
L 340.907033 175.015939 
L 341.21331 153.494605 
L 341.519588 168.817991 
L 341.825866 203.176182 
L 342.438422 138.305957 
L 342.7447 168.83024 
L 343.050978 138.305957 
L 343.357256 199.48926 
L 343.663533 166.968405 
L 343.969811 155.527924 
L 344.276089 138.183468 
L 344.582367 150.432377 
L 344.888645 115.033029 
L 345.194923 168.83024 
L 345.501201 134.668031 
L 345.807479 165.265807 
L 346.113756 174.954694 
L 346.420034 140.645499 
L 346.726312 150.493622 
L 347.03259 150.432377 
L 347.645146 208.002253 
L 347.951424 205.662711 
L 348.257702 174.991441 
L 348.563979 193.364806 
L 348.870257 150.7386 
L 349.176535 127.771895 
L 349.482813 174.954694 
L 349.789091 181.079149 
L 350.095369 107.561194 
L 350.401647 254.670598 
L 351.014202 119.871348 
L 351.32048 116.747876 
L 351.626758 150.493622 
L 351.933036 156.80181 
L 352.239314 140.694494 
L 352.545592 140.694494 
L 353.158148 199.550505 
L 353.464425 168.928231 
L 353.770703 119.993837 
L 354.383259 218.03411 
L 354.689537 119.822352 
L 355.302093 162.742532 
L 355.60837 193.364806 
L 355.914648 162.742532 
L 356.220926 145.116351 
L 356.527204 174.930197 
L 356.833482 181.115896 
L 357.13976 150.493622 
L 357.446038 167.5931 
L 357.752316 127.183947 
L 358.058593 223.950333 
L 358.364871 260.733809 
L 358.671149 216.698978 
L 358.977427 130.821873 
L 359.283705 185.34177 
L 359.589983 111.297111 
L 359.896261 157.046789 
L 360.202539 119.871348 
L 360.508816 101.497983 
L 360.815094 156.556832 
L 361.121372 168.805742 
L 361.42765 125.995803 
L 361.733928 159.129103 
L 362.040206 169.528427 
L 362.346484 125.995803 
L 362.652762 178.617118 
L 362.959039 150.554866 
L 363.571595 126.755235 
L 363.877873 146.757704 
L 364.184151 116.196675 
L 364.490429 165.351549 
L 364.796707 180.50345 
L 365.102985 138.244712 
L 365.409262 199.48926 
L 365.71554 174.954694 
L 366.021818 187.240351 
L 366.634374 163.906178 
L 366.940652 132.181502 
L 367.24693 177.392227 
L 367.553208 150.432377 
L 367.859485 174.611725 
L 368.165763 187.203604 
L 368.472041 150.493622 
L 368.778319 138.244712 
L 369.084597 171.867969 
L 369.390875 159.61906 
L 369.697153 189.628888 
L 370.003431 126.057047 
L 370.309708 138.244712 
L 370.615986 156.618077 
L 370.922264 138.244712 
L 371.228542 156.373099 
L 371.53482 181.079149 
L 371.841098 178.666114 
L 372.147376 127.379929 
L 372.453654 159.067859 
L 372.759931 174.966943 
L 373.066209 208.124742 
L 373.372487 119.834601 
L 373.678765 178.666114 
L 373.985043 187.485329 
L 374.291321 69.724312 
L 374.597599 183.565678 
L 374.903877 138.305957 
L 375.210154 125.995803 
L 375.516432 132.059013 
L 375.82271 132.059013 
L 376.128988 108.296128 
L 376.435266 150.456875 
L 376.741544 113.685648 
L 377.047822 183.565678 
L 377.966655 114.971784 
L 378.272933 187.301595 
L 378.579211 146.818949 
L 378.885489 181.789586 
L 379.191767 181.177141 
L 379.498045 187.179106 
L 379.804322 163.538711 
L 380.1106 162.693536 
L 380.416878 141.245695 
L 380.723156 175.052686 
L 381.029434 150.7386 
L 381.335712 195.777841 
L 381.64199 216.698978 
L 381.948268 254.915576 
L 382.254545 101.559228 
L 382.560823 211.799415 
L 382.867101 141.919385 
L 383.173379 138.244712 
L 383.479657 138.48969 
L 383.785935 165.155567 
L 384.092213 121.034994 
L 384.398491 220.27566 
L 384.704768 107.622438 
L 385.317324 182.279542 
L 385.623602 174.930197 
L 385.92988 126.057047 
L 386.236158 178.629367 
L 386.542436 150.493622 
L 386.848714 107.622438 
L 387.154991 95.373529 
L 387.461269 156.618077 
L 387.767547 184.116879 
L 388.073825 187.203604 
L 388.380103 156.679321 
L 388.686381 144.369167 
L 388.992659 125.946807 
L 389.298937 138.244712 
L 389.605214 202.184021 
L 389.911492 119.920343 
L 390.21777 114.065365 
L 390.524048 135.79493 
L 390.830326 223.950333 
L 391.136604 167.642095 
L 391.442882 187.203604 
L 391.74916 159.006614 
L 392.055437 144.33242 
L 392.361715 176.216332 
L 392.667993 162.705785 
L 392.974271 255.834245 
L 393.280549 144.369167 
L 393.586827 179.217315 
L 393.893105 162.742532 
L 394.199383 220.863608 
L 394.50566 118.646457 
L 394.811938 174.991441 
L 395.118216 162.705785 
L 395.424494 144.430412 
L 395.730772 113.685648 
L 396.03705 187.203604 
L 396.343328 162.742532 
L 396.649605 150.493622 
L 397.262161 161.468645 
L 397.568439 159.153601 
L 397.874717 162.742532 
L 398.180995 171.990458 
L 398.487273 157.291767 
L 398.487273 157.291767 
" clip-path="url(#pbf31486467)" style="fill: none; stroke: #1f77b4; stroke-width: 1.5; stroke-linecap: square"/>
   </g>
   <g id="line2d_16">
    <path d="M 73.832727 122.0913 
L 74.139005 202.176879 
L 74.445283 132.886064 
L 75.057839 169.705943 
L 75.364117 175.9972 
L 75.670395 106.638549 
L 75.976672 143.709429 
L 76.28295 138.726443 
L 76.589228 257.077678 
L 76.895506 178.40085 
L 77.201784 132.934269 
L 77.508062 177.897202 
L 77.81434 171.791577 
L 78.120617 127.456971 
L 78.426895 141.617816 
L 78.733173 125.629604 
L 79.039451 144.629388 
L 79.345729 147.058301 
L 79.652007 163.435316 
L 79.958285 160.672643 
L 80.264563 134.768796 
L 80.57084 195.436738 
L 80.877118 137.192322 
L 81.183396 143.724768 
L 81.795952 112.32169 
L 82.10223 165.430506 
L 82.408508 172.330516 
L 82.714786 148.21522 
L 83.021063 156.971296 
L 83.327341 169.012916 
L 83.633619 122.808878 
L 83.939897 195.70483 
L 84.246175 99.331655 
L 84.552453 150.017137 
L 84.858731 148.415562 
L 85.165009 160.070548 
L 85.471286 140.027036 
L 85.777564 191.103159 
L 86.39012 134.955685 
L 86.696398 163.719808 
L 87.002676 154.45267 
L 87.308954 243.319761 
L 87.615232 128.265586 
L 87.921509 177.58878 
L 88.227787 204.996608 
L 88.534065 130.438919 
L 88.840343 117.740154 
L 89.146621 137.828589 
L 89.452899 116.196439 
L 89.759177 129.154887 
L 90.065455 132.720719 
L 90.371732 167.923822 
L 90.67801 168.291879 
L 90.984288 183.973048 
L 91.290566 130.025641 
L 91.596844 164.528814 
L 91.903122 170.284018 
L 92.2094 170.34277 
L 92.515678 192.244248 
L 92.821955 158.547574 
L 93.128233 171.487548 
L 93.434511 147.379035 
L 93.740789 162.385491 
L 94.047067 138.813455 
L 94.353345 177.215168 
L 94.659623 137.686338 
L 94.965901 125.677337 
L 95.272178 179.970719 
L 95.578456 167.065806 
L 95.884734 160.650581 
L 96.191012 122.199475 
L 96.49729 165.516708 
L 96.803568 182.243243 
L 97.109846 181.168131 
L 97.416123 147.605074 
L 97.722401 174.153335 
L 98.028679 154.910047 
L 98.334957 193.673948 
L 98.641235 123.848803 
L 98.947513 167.73422 
L 99.253791 132.543043 
L 99.560069 177.009844 
L 99.866346 127.957996 
L 100.172624 121.570127 
L 100.478902 167.763393 
L 100.78518 97.943647 
L 101.091458 146.609117 
L 101.397736 115.28697 
L 101.704014 195.072927 
L 102.010292 231.82447 
L 102.316569 131.564832 
L 102.622847 130.603842 
L 102.929125 170.677938 
L 103.235403 132.827843 
L 103.541681 126.567599 
L 103.847959 165.201943 
L 104.154237 160.530404 
L 104.460515 135.927679 
L 104.766792 148.497813 
L 105.07307 145.304126 
L 105.379348 101.967854 
L 105.685626 201.275732 
L 105.991904 165.072769 
L 106.298182 174.81377 
L 106.60446 152.396235 
L 106.910738 138.51188 
L 107.217015 132.3979 
L 107.523293 175.216387 
L 107.829571 122.791227 
L 108.135849 157.386279 
L 108.442127 117.764114 
L 108.748405 161.292742 
L 109.054683 154.761903 
L 109.360961 118.026202 
L 109.667238 173.703745 
L 109.973516 156.34264 
L 110.279794 122.901623 
L 110.586072 126.261863 
L 110.89235 146.096553 
L 111.198628 153.556882 
L 111.504906 144.608203 
L 111.811184 148.041338 
L 112.117461 133.90513 
L 112.423739 165.748052 
L 112.730017 167.084935 
L 113.036295 142.993751 
L 113.342573 206.772094 
L 113.648851 103.686452 
L 113.955129 165.325561 
L 114.261407 180.145848 
L 114.567684 116.304193 
L 114.873962 144.609636 
L 115.18024 120.004892 
L 115.486518 138.348203 
L 115.792796 168.350539 
L 116.099074 131.556427 
L 116.405352 170.759934 
L 116.71163 179.403112 
L 117.017907 133.143797 
L 117.324185 217.387626 
L 117.630463 151.816599 
L 117.936741 170.841256 
L 118.243019 136.936528 
L 118.549297 131.187277 
L 118.855575 188.780674 
L 119.161852 162.781653 
L 119.46813 100.926447 
L 119.774408 179.174047 
L 120.080686 163.715596 
L 120.386964 163.331541 
L 120.693242 191.590998 
L 120.99952 178.497459 
L 121.305798 129.454629 
L 121.612075 192.871485 
L 121.918353 151.001899 
L 122.224631 167.544359 
L 122.530909 173.267477 
L 122.837187 141.083698 
L 123.143465 175.518455 
L 123.449743 137.21069 
L 123.756021 156.208405 
L 124.062298 204.658971 
L 124.368576 208.540129 
L 124.674854 140.862092 
L 124.981132 154.853907 
L 125.28741 177.776142 
L 125.593688 113.638413 
L 125.899966 182.763903 
L 126.206244 157.756696 
L 126.818799 134.221173 
L 127.125077 244.17125 
L 127.431355 154.209937 
L 127.737633 134.61442 
L 128.043911 162.689678 
L 128.350189 130.348046 
L 128.656467 152.297866 
L 128.962744 133.602916 
L 129.269022 171.457566 
L 129.5753 120.870856 
L 130.187856 134.624417 
L 130.494134 148.338611 
L 130.800412 154.395277 
L 131.10669 138.604413 
L 131.412967 177.277127 
L 131.719245 166.499202 
L 132.025523 132.312198 
L 132.331801 121.131471 
L 132.944357 183.856104 
L 133.250635 186.695614 
L 134.169468 101.312198 
L 134.782024 192.089197 
L 135.088302 152.706504 
L 135.39458 158.985701 
L 135.700858 139.178408 
L 136.007136 157.622063 
L 136.313413 165.592836 
L 136.619691 115.682294 
L 136.925969 128.256213 
L 137.232247 125.744933 
L 137.538525 157.247715 
L 137.844803 126.070416 
L 138.151081 161.50565 
L 138.457358 174.390221 
L 138.763636 152.928667 
L 139.069914 147.783026 
L 139.376192 185.726331 
L 139.68247 148.858762 
L 139.988748 182.858268 
L 140.295026 135.484409 
L 140.601304 142.312919 
L 140.907581 162.714218 
L 141.213859 156.66937 
L 141.520137 145.270824 
L 141.826415 205.512304 
L 142.132693 136.351887 
L 142.438971 163.36891 
L 142.745249 164.230234 
L 143.051527 173.449116 
L 143.357804 160.577093 
L 143.664082 182.52593 
L 143.97036 165.936936 
L 144.276638 183.449134 
L 144.889194 136.14433 
L 145.195472 102.651078 
L 145.808027 133.320821 
L 146.114305 195.240494 
L 146.420583 146.062546 
L 146.726861 129.47764 
L 147.339417 183.367942 
L 147.645695 119.036798 
L 147.951973 156.49338 
L 148.25825 157.48469 
L 148.564528 139.408544 
L 148.870806 163.732294 
L 149.177084 163.124085 
L 149.483362 156.059387 
L 149.78964 128.400572 
L 150.095918 158.298827 
L 150.402196 129.564825 
L 150.708473 154.977346 
L 151.014751 126.494642 
L 151.321029 141.237708 
L 151.627307 166.915273 
L 151.933585 161.1738 
L 152.239863 151.892235 
L 152.546141 200.251321 
L 152.852419 174.171482 
L 153.158696 166.923175 
L 153.464974 133.395979 
L 153.771252 175.064237 
L 154.07753 154.410404 
L 154.690086 133.632374 
L 154.996364 169.585555 
L 155.302642 162.446051 
L 155.608919 198.602526 
L 155.915197 164.579227 
L 156.221475 191.885461 
L 156.834031 100.122109 
L 157.140309 148.043654 
L 157.446587 120.03494 
L 158.059142 199.586575 
L 158.36542 191.498533 
L 158.671698 191.386629 
L 158.977976 194.491716 
L 159.284254 141.508299 
L 159.590532 188.556644 
L 159.89681 112.624545 
L 160.203087 128.658741 
L 160.509365 179.967808 
L 160.815643 117.955211 
L 161.121921 164.377799 
L 161.428199 162.857847 
L 161.734477 129.494794 
L 162.040755 108.498636 
L 162.347033 107.200134 
L 162.959588 143.361008 
L 163.265866 153.211446 
L 163.878422 131.370524 
L 164.1847 190.210865 
L 164.490978 158.195942 
L 164.797256 153.545796 
L 165.103533 174.091951 
L 165.409811 139.97703 
L 165.716089 142.735522 
L 166.022367 154.030446 
L 166.634923 98.367129 
L 166.941201 141.525717 
L 167.247479 131.976973 
L 167.553756 167.297468 
L 167.860034 160.850726 
L 168.166312 136.942361 
L 168.47259 170.210298 
L 168.778868 133.688719 
L 169.085146 118.545489 
L 169.391424 155.901209 
L 169.697702 122.128333 
L 170.003979 153.158527 
L 170.310257 123.575361 
L 170.616535 135.3917 
L 170.922813 135.151867 
L 171.229091 175.589885 
L 171.535369 160.72396 
L 171.841647 197.478213 
L 172.147925 130.701831 
L 172.454202 137.265381 
L 172.76048 188.694959 
L 173.066758 168.327992 
L 173.373036 123.409264 
L 173.679314 164.508627 
L 173.985592 133.84971 
L 174.29187 128.318362 
L 174.598148 117.725771 
L 174.904425 167.342849 
L 175.210703 178.497459 
L 175.516981 177.025046 
L 175.823259 165.326937 
L 176.435815 179.971334 
L 176.742093 174.465089 
L 177.04837 124.684394 
L 177.354648 224.865846 
L 177.660926 175.353049 
L 178.273482 138.541078 
L 178.57976 163.767255 
L 178.886038 165.734477 
L 179.192316 99.770533 
L 179.804871 197.877192 
L 180.111149 188.996433 
L 180.417427 118.042728 
L 180.723705 159.502108 
L 181.029983 111.287985 
L 181.336261 129.146231 
L 181.642539 138.760533 
L 181.948816 114.385312 
L 182.561372 181.053674 
L 182.86765 114.280925 
L 183.480206 188.219816 
L 183.786484 127.562827 
L 184.092762 193.233516 
L 184.399039 140.820257 
L 184.705317 150.171775 
L 185.011595 169.744153 
L 185.317873 130.625395 
L 185.624151 131.395987 
L 185.930429 121.825135 
L 186.236707 173.794053 
L 186.542985 118.3132 
L 186.849262 150.786763 
L 187.15554 168.736867 
L 187.461818 161.771122 
L 187.768096 134.930086 
L 188.074374 133.091347 
L 188.380652 191.590143 
L 188.68693 126.206027 
L 188.993208 172.779895 
L 189.605763 133.319963 
L 189.912041 133.479996 
L 190.218319 132.892468 
L 190.524597 189.007189 
L 190.830875 179.550515 
L 191.137153 124.217298 
L 191.443431 161.817461 
L 191.749708 167.586057 
L 192.055986 157.01814 
L 192.362264 133.733085 
L 192.668542 163.835412 
L 193.281098 137.549283 
L 193.587376 156.528793 
L 193.893654 212.612094 
L 194.199931 141.95475 
L 194.506209 115.67951 
L 194.812487 114.802699 
L 195.118765 157.366764 
L 195.731321 127.139945 
L 196.037599 248.665127 
L 196.343877 137.642796 
L 196.650154 129.372842 
L 196.956432 126.827109 
L 197.26271 196.595169 
L 197.875266 122.62072 
L 198.181544 196.207529 
L 198.487822 169.702898 
L 198.794099 178.095138 
L 199.100377 167.978209 
L 199.406655 161.709983 
L 199.712933 121.261285 
L 200.019211 167.98524 
L 200.325489 162.32762 
L 200.631767 176.066631 
L 200.938045 161.325484 
L 201.244322 177.035094 
L 201.5506 149.771436 
L 201.856878 155.230781 
L 202.163156 167.296455 
L 202.469434 151.149449 
L 203.08199 172.645245 
L 203.388268 133.164008 
L 204.307101 201.709821 
L 204.919657 118.832656 
L 205.225935 165.561011 
L 205.532213 133.68625 
L 205.838491 149.932702 
L 206.144768 140.177482 
L 206.451046 157.536043 
L 206.757324 164.003339 
L 207.063602 174.09701 
L 207.36988 175.004806 
L 207.676158 157.441495 
L 207.982436 195.75636 
L 208.288714 143.240308 
L 208.594991 203.194528 
L 208.901269 132.258417 
L 209.207547 154.031892 
L 209.513825 136.979232 
L 209.820103 154.37934 
L 210.126381 155.278882 
L 210.432659 113.554266 
L 210.738937 176.700369 
L 211.045214 130.764808 
L 211.351492 163.257463 
L 211.65777 172.775498 
L 211.964048 162.801808 
L 212.270326 182.273594 
L 212.576604 133.81844 
L 212.882882 181.097677 
L 213.18916 156.703621 
L 213.495437 159.446075 
L 213.801715 190.273303 
L 214.414271 138.551533 
L 214.720549 173.320041 
L 215.026827 160.313082 
L 215.333105 190.838425 
L 215.639383 116.415486 
L 215.94566 123.999784 
L 216.251938 173.023824 
L 216.558216 174.527002 
L 216.864494 151.618832 
L 217.170772 176.318023 
L 217.47705 153.103704 
L 217.783328 211.088333 
L 218.089605 178.640358 
L 218.395883 169.408671 
L 218.702161 187.086589 
L 219.008439 152.226003 
L 219.314717 143.027395 
L 219.927273 136.058029 
L 220.233551 197.587657 
L 220.539828 134.939814 
L 220.846106 162.972292 
L 221.152384 267.092159 
L 221.458662 158.93831 
L 221.76494 133.358215 
L 222.071218 149.226945 
L 222.377496 135.565593 
L 222.683774 201.137816 
L 222.990051 136.414969 
L 223.296329 152.366666 
L 223.602607 129.771953 
L 223.908885 178.766224 
L 224.215163 145.660442 
L 224.521441 157.718476 
L 224.827719 151.571408 
L 225.133997 206.140314 
L 225.746552 122.172294 
L 226.05283 116.916479 
L 226.359108 131.066522 
L 226.665386 162.685698 
L 226.971664 224.335416 
L 227.277942 167.665115 
L 227.58422 172.256717 
L 227.890497 145.27022 
L 228.196775 162.543465 
L 228.503053 152.286991 
L 228.809331 112.542908 
L 229.115609 119.547406 
L 229.421887 153.552785 
L 229.728165 154.922436 
L 230.034443 179.171408 
L 230.34072 122.138805 
L 230.646998 160.423609 
L 230.953276 136.603748 
L 231.259554 175.914049 
L 231.565832 133.793269 
L 231.87211 170.489373 
L 232.178388 139.147446 
L 232.484666 198.800176 
L 232.790943 158.365415 
L 233.097221 174.907039 
L 233.709777 149.376362 
L 234.016055 117.129235 
L 234.322333 150.524815 
L 234.628611 121.712547 
L 234.934889 126.971077 
L 235.241166 188.990519 
L 235.853722 129.463593 
L 236.16 197.055833 
L 236.466278 144.69792 
L 236.772556 215.920392 
L 237.078834 136.257815 
L 237.385111 179.31592 
L 237.691389 162.54707 
L 237.997667 166.954946 
L 238.303945 135.041532 
L 238.610223 172.267994 
L 239.222779 112.52286 
L 239.529057 154.692243 
L 239.835334 173.086981 
L 240.141612 124.76467 
L 240.44789 136.270516 
L 240.754168 167.229482 
L 241.060446 142.874686 
L 241.366724 153.265728 
L 241.673002 168.78041 
L 241.97928 127.885893 
L 242.285557 154.539129 
L 242.591835 109.979546 
L 242.898113 123.185882 
L 243.204391 130.698897 
L 243.510669 123.341027 
L 243.816947 167.769939 
L 244.123225 120.447107 
L 244.429503 160.323753 
L 244.73578 163.713767 
L 245.042058 164.334925 
L 245.348336 101.531411 
L 245.654614 165.55681 
L 245.960892 168.290642 
L 246.26717 106.423599 
L 246.573448 151.500584 
L 246.879726 120.535137 
L 247.186003 156.355597 
L 247.492281 167.376245 
L 247.798559 209.564122 
L 248.411115 128.072223 
L 248.717393 168.444153 
L 249.023671 150.379174 
L 249.329949 172.746762 
L 249.636226 182.533742 
L 249.942504 156.722233 
L 250.248782 152.466596 
L 250.55506 166.273472 
L 251.167616 170.635799 
L 251.473894 163.981139 
L 251.780172 201.562092 
L 252.086449 132.878546 
L 252.392727 176.267802 
L 253.005283 112.191386 
L 253.311561 122.499128 
L 253.617839 118.129885 
L 253.924117 153.037857 
L 254.230395 166.096814 
L 254.536672 103.660606 
L 254.84295 120.489821 
L 255.149228 143.735332 
L 255.761784 136.635255 
L 256.37434 149.82898 
L 256.680617 191.347579 
L 256.986895 167.816118 
L 257.293173 157.241254 
L 257.599451 198.917584 
L 257.905729 163.141888 
L 258.212007 158.991804 
L 258.518285 159.33483 
L 258.824563 132.051088 
L 259.13084 162.715308 
L 259.743396 181.495029 
L 260.049674 181.483901 
L 260.355952 153.924069 
L 260.66223 149.160404 
L 260.968508 201.526283 
L 261.274786 152.674075 
L 261.581063 168.32526 
L 261.887341 168.470525 
L 262.193619 168.176657 
L 262.499897 169.602717 
L 262.806175 196.239272 
L 263.112453 135.216168 
L 263.725009 121.110032 
L 264.031286 135.723746 
L 264.337564 136.547211 
L 264.643842 120.365079 
L 264.95012 126.668663 
L 265.562676 158.666411 
L 265.868954 130.304617 
L 266.175232 153.533225 
L 266.481509 163.050695 
L 266.787787 167.583594 
L 267.094065 168.573307 
L 267.400343 154.374474 
L 267.706621 151.892739 
L 268.012899 188.202786 
L 268.319177 129.657829 
L 268.625455 235.934486 
L 268.931732 161.206376 
L 269.544288 97.715562 
L 269.850566 183.49848 
L 270.156844 206.072965 
L 270.463122 154.316273 
L 270.7694 164.395841 
L 271.075678 236.206159 
L 271.381955 126.505332 
L 271.688233 154.853116 
L 271.994511 142.955265 
L 272.913345 160.854832 
L 273.219623 115.914762 
L 273.832178 160.601158 
L 274.138456 156.73516 
L 274.444734 111.252627 
L 274.751012 154.507181 
L 275.05729 143.354433 
L 275.363568 156.090551 
L 275.669846 136.168894 
L 275.976123 150.572631 
L 276.282401 187.024943 
L 276.894957 129.148975 
L 277.201235 153.729091 
L 277.507513 133.585947 
L 277.813791 169.518836 
L 278.120069 120.782464 
L 278.426346 132.204468 
L 279.038902 177.216392 
L 279.34518 140.094359 
L 279.651458 170.179801 
L 279.957736 114.376987 
L 280.264014 187.603404 
L 280.570292 131.330583 
L 280.876569 135.042348 
L 281.182847 199.001789 
L 281.795403 149.300659 
L 282.101681 145.259959 
L 282.407959 124.967973 
L 282.714237 160.942156 
L 283.020515 130.322358 
L 283.326792 177.189247 
L 283.63307 172.416411 
L 283.939348 146.607289 
L 284.245626 181.24097 
L 284.551904 170.04426 
L 284.858182 103.784474 
L 285.470738 153.422297 
L 285.777015 195.476869 
L 286.083293 137.159305 
L 286.389571 234.911194 
L 287.002127 126.432189 
L 287.308405 140.27532 
L 287.614683 143.566124 
L 288.227238 133.125924 
L 288.533516 134.570026 
L 288.839794 98.944158 
L 289.146072 162.858473 
L 289.45235 147.982158 
L 289.758628 161.899846 
L 290.064906 125.631449 
L 290.371184 134.686899 
L 290.677461 123.068459 
L 290.983739 160.230623 
L 291.290017 95.273674 
L 291.596295 100.560368 
L 291.902573 138.463736 
L 292.208851 114.531612 
L 292.821407 164.350656 
L 293.433962 157.352462 
L 293.74024 135.269537 
L 294.046518 124.646098 
L 294.352796 154.950435 
L 294.659074 133.632063 
L 294.965352 154.719306 
L 295.27163 132.827843 
L 295.577907 140.32783 
L 295.884185 119.135577 
L 296.190463 128.355183 
L 296.496741 132.002224 
L 296.803019 162.951802 
L 297.109297 156.879446 
L 297.415575 174.053692 
L 297.721852 174.072005 
L 298.02813 202.42528 
L 298.640686 145.908881 
L 298.946964 171.407883 
L 299.253242 165.946605 
L 299.55952 133.378367 
L 299.865798 129.159182 
L 300.172075 139.584968 
L 300.478353 209.14354 
L 300.784631 137.159969 
L 301.397187 177.215915 
L 301.703465 188.625259 
L 302.009743 111.394137 
L 302.316021 183.069657 
L 302.622298 127.838819 
L 302.928576 150.021798 
L 303.234854 158.721492 
L 303.541132 153.958093 
L 303.84741 134.202995 
L 304.153688 124.039504 
L 304.459966 188.030431 
L 304.766244 114.497957 
L 305.072521 134.070248 
L 305.685077 244.42472 
L 306.603911 117.728168 
L 306.910189 141.351992 
L 307.216467 141.454559 
L 307.522744 163.978222 
L 307.829022 100.34567 
L 308.1353 158.912496 
L 308.441578 173.732061 
L 308.747856 158.194586 
L 309.054134 161.631438 
L 309.360412 135.766401 
L 309.66669 120.561597 
L 309.972967 132.433495 
L 310.279245 157.895209 
L 310.585523 133.116953 
L 310.891801 186.16876 
L 311.504357 127.165951 
L 311.810635 177.065814 
L 312.116913 190.984309 
L 312.42319 143.942221 
L 312.729468 153.8427 
L 313.035746 126.516018 
L 313.342024 117.835897 
L 313.648302 127.768023 
L 313.95458 171.331621 
L 314.260858 152.444367 
L 314.567136 166.379818 
L 314.873413 171.180984 
L 315.179691 112.245368 
L 315.485969 168.993874 
L 315.792247 134.46825 
L 316.098525 195.050265 
L 316.404803 282.579686 
L 316.711081 139.469043 
L 317.017358 162.315117 
L 317.323636 203.929813 
L 317.629914 137.51504 
L 317.936192 173.480454 
L 318.24247 127.312776 
L 318.548748 162.099764 
L 318.855026 164.302935 
L 319.161304 155.601042 
L 319.467581 198.207002 
L 319.773859 128.62426 
L 320.080137 89.930819 
L 320.386415 225.982882 
L 320.692693 145.930905 
L 320.998971 208.515701 
L 321.305249 150.163063 
L 321.611527 169.236627 
L 321.917804 161.957131 
L 322.224082 120.291566 
L 322.53036 180.084757 
L 322.836638 181.395382 
L 323.142916 141.116521 
L 323.449194 222.688897 
L 323.755472 170.561739 
L 324.06175 202.675434 
L 324.368027 144.686546 
L 324.674305 126.57964 
L 324.980583 159.459207 
L 325.286861 175.856907 
L 325.593139 151.590398 
L 325.899417 205.104255 
L 326.205695 152.679423 
L 326.81825 125.533475 
L 327.124528 163.86362 
L 327.430806 170.255033 
L 327.737084 169.829916 
L 328.043362 153.692562 
L 328.34964 153.444687 
L 328.655918 119.685823 
L 328.962196 131.142633 
L 329.268473 130.349986 
L 329.574751 185.965854 
L 329.881029 122.447141 
L 330.187307 143.304341 
L 330.493585 125.853877 
L 330.799863 146.048723 
L 331.106141 158.209495 
L 331.718696 109.967535 
L 332.024974 124.949036 
L 332.331252 168.509504 
L 332.63753 146.181949 
L 333.250086 163.340644 
L 333.556364 127.894994 
L 333.862642 120.289343 
L 334.168919 267.57051 
L 334.475197 126.185848 
L 334.781475 162.443635 
L 335.087753 127.786586 
L 335.394031 150.406008 
L 335.700309 200.422783 
L 336.006587 179.774205 
L 336.312864 169.301981 
L 336.619142 192.080539 
L 336.92542 187.956271 
L 337.231698 193.770808 
L 337.537976 158.559567 
L 338.150532 115.502001 
L 338.45681 151.85547 
L 338.763087 146.649311 
L 339.069365 172.111461 
L 339.375643 132.445919 
L 339.681921 141.649192 
L 339.988199 176.74508 
L 340.294477 152.226003 
L 340.600755 186.949971 
L 341.21331 151.001899 
L 341.825866 200.72064 
L 342.438422 155.636873 
L 342.7447 153.837861 
L 343.050978 138.954371 
L 343.357256 195.232152 
L 343.663533 149.184407 
L 343.969811 168.839274 
L 344.276089 129.859424 
L 344.582367 154.448014 
L 344.888645 117.375174 
L 345.194923 173.608374 
L 345.501201 157.600937 
L 345.807479 157.245472 
L 346.113756 151.871246 
L 346.420034 130.815915 
L 346.726312 152.400503 
L 347.03259 138.033039 
L 347.338868 174.871867 
L 347.951424 209.016891 
L 348.257702 171.235516 
L 348.563979 189.752384 
L 349.176535 147.575197 
L 349.482813 166.472125 
L 349.789091 171.359321 
L 350.095369 128.418779 
L 350.401647 271.964036 
L 350.707925 172.59053 
L 351.32048 133.76996 
L 351.626758 154.231251 
L 351.933036 156.069645 
L 352.239314 146.765941 
L 352.545592 140.860946 
L 352.85187 164.329919 
L 353.158148 196.660817 
L 353.464425 173.090091 
L 353.770703 123.829183 
L 354.076981 156.954773 
L 354.383259 204.04536 
L 354.689537 154.793491 
L 354.995815 131.676527 
L 355.302093 161.832352 
L 355.60837 160.427257 
L 355.914648 166.481343 
L 356.220926 145.916798 
L 356.833482 183.694863 
L 357.13976 164.172025 
L 357.446038 160.974299 
L 357.752316 124.449929 
L 358.364871 295.488 
L 358.977427 125.343857 
L 359.283705 177.917633 
L 359.589983 126.614337 
L 359.896261 160.570231 
L 360.202539 128.136416 
L 360.508816 142.579714 
L 360.815094 146.41686 
L 361.121372 170.742532 
L 361.42765 136.946247 
L 362.040206 170.425006 
L 362.346484 130.370243 
L 362.652762 168.630599 
L 362.959039 164.467184 
L 363.265317 125.917649 
L 363.571595 125.566791 
L 363.877873 161.340255 
L 364.184151 124.006214 
L 364.490429 167.94305 
L 364.796707 182.105097 
L 365.102985 128.46121 
L 365.409262 182.11222 
L 365.71554 173.287529 
L 366.021818 176.566128 
L 366.328096 162.009174 
L 366.634374 153.176276 
L 366.940652 125.156594 
L 367.24693 182.621278 
L 367.553208 144.363992 
L 367.859485 176.572626 
L 368.472041 179.435091 
L 368.778319 129.552877 
L 369.084597 170.255558 
L 369.390875 167.019719 
L 369.697153 172.057736 
L 370.003431 157.418566 
L 370.309708 119.428525 
L 370.615986 179.404447 
L 370.922264 128.782868 
L 371.228542 161.063952 
L 371.841098 170.38049 
L 372.147376 136.132464 
L 372.453654 159.446728 
L 372.759931 160.694554 
L 373.066209 178.293572 
L 373.372487 119.705544 
L 373.678765 187.667199 
L 373.985043 187.173458 
L 374.291321 122.719448 
L 374.597599 182.97896 
L 375.210154 130.615083 
L 375.516432 141.255998 
L 375.82271 139.089711 
L 376.128988 139.458718 
L 376.435266 158.259515 
L 376.741544 132.505642 
L 377.047822 139.361295 
L 377.354099 154.849947 
L 377.660377 135.970438 
L 377.966655 150.731973 
L 378.272933 195.697284 
L 378.579211 146.919805 
L 378.885489 189.174756 
L 379.191767 168.165492 
L 379.498045 206.240324 
L 380.1106 148.640998 
L 380.416878 133.566058 
L 380.723156 183.276789 
L 381.029434 160.653761 
L 381.335712 195.81379 
L 381.64199 204.202725 
L 381.948268 226.050687 
L 382.254545 121.136013 
L 382.560823 181.6055 
L 382.867101 149.166849 
L 383.173379 135.501141 
L 383.785935 173.701867 
L 384.092213 128.098184 
L 384.398491 204.564908 
L 384.704768 113.627939 
L 385.317324 178.62445 
L 385.623602 166.822055 
L 385.92988 126.862081 
L 386.236158 185.619963 
L 386.542436 159.658363 
L 386.848714 109.979546 
L 387.154991 123.226261 
L 387.461269 160.346305 
L 387.767547 160.012635 
L 388.073825 176.262046 
L 388.380103 163.948506 
L 388.686381 165.475613 
L 388.992659 134.809912 
L 389.298937 136.046294 
L 389.605214 194.920531 
L 389.911492 131.329073 
L 390.21777 121.272061 
L 390.524048 134.813345 
L 390.830326 222.029381 
L 391.136604 165.233835 
L 391.442882 177.179055 
L 391.74916 128.84084 
L 392.055437 165.283978 
L 392.361715 158.945869 
L 392.667993 163.118869 
L 392.974271 252.747511 
L 393.280549 145.621995 
L 393.586827 198.753141 
L 393.893105 170.357955 
L 394.199383 219.015314 
L 394.50566 132.29042 
L 394.811938 161.125892 
L 395.118216 174.526861 
L 395.424494 143.948765 
L 395.730772 129.486794 
L 396.03705 180.998481 
L 396.649605 132.566699 
L 396.955883 166.863413 
L 397.262161 171.228234 
L 397.568439 154.826242 
L 397.874717 154.743584 
L 398.180995 180.092733 
L 398.487273 162.248647 
L 398.487273 162.248647 
" clip-path="url(#pbf31486467)" style="fill: none; stroke: #ff7f0e; stroke-width: 1.5; stroke-linecap: square"/>
   </g>
   <g id="patch_3">
    <path d="M 57.6 307.584 
L 57.6 41.472 
" style="fill: none; stroke: #000000; stroke-width: 0.8; stroke-linejoin: miter; stroke-linecap: square"/>
   </g>
   <g id="patch_4">
    <path d="M 414.72 307.584 
L 414.72 41.472 
" style="fill: none; stroke: #000000; stroke-width: 0.8; stroke-linejoin: miter; stroke-linecap: square"/>
   </g>
   <g id="patch_5">
    <path d="M 57.6 307.584 
L 414.72 307.584 
" style="fill: none; stroke: #000000; stroke-width: 0.8; stroke-linejoin: miter; stroke-linecap: square"/>
   </g>
   <g id="patch_6">
    <path d="M 57.6 41.472 
L 414.72 41.472 
" style="fill: none; stroke: #000000; stroke-width: 0.8; stroke-linejoin: miter; stroke-linecap: square"/>
   </g>
   <g id="text_17">
    <!-- Yaris -->
    <g transform="translate(222.384375 35.472)scale(0.12 -0.12)">
     <defs>
      <path id="DejaVuSans-59" d="M -13 4666 
L 666 4666 
L 1959 2747 
L 3244 4666 
L 3922 4666 
L 2272 2222 
L 2272 0 
L 1638 0 
L 1638 2222 
L -13 4666 
z
" transform="scale(0.015625)"/>
     </defs>
     <use xlink:href="#DejaVuSans-59"/>
     <use xlink:href="#DejaVuSans-61" x="47.333984"/>
     <use xlink:href="#DejaVuSans-72" x="108.613281"/>
     <use xlink:href="#DejaVuSans-69" x="149.726562"/>
     <use xlink:href="#DejaVuSans-73" x="177.509766"/>
    </g>
   </g>
  </g>
 </g>
 <defs>
  <clipPath id="pbf31486467">
   <rect x="57.6" y="41.472" width="357.12" height="266.112"/>
  </clipPath>
 </defs>
</svg>
